<svg width="23" height="21" viewBox="0 0 23 21" fill="none" xmlns="http://www.w3.org/2000/svg">
<path fill-rule="evenodd" clip-rule="evenodd" d="M17.4178 18.8737C17.4178 18.8737 18.9557 18.8737 18.9557 17.3357C18.9557 15.7978 17.4178 11.1838 9.72787 11.1838C2.03798 11.1838 0.5 15.7978 0.5 17.3357C0.5 18.8737 2.03798 18.8737 2.03798 18.8737H17.4178ZM2.04567 17.4219V17.4188V17.4219ZM2.07181 17.3357H17.3839C17.3911 17.3349 17.3983 17.3339 17.4055 17.3327L17.4178 17.3296C17.4162 16.9512 17.1809 15.8131 16.1382 14.7704C15.1354 13.7676 13.2483 12.7218 9.72787 12.7218C6.2059 12.7218 4.32034 13.7676 3.31758 14.7704C2.27483 15.8131 2.04105 16.9512 2.03798 17.3296C2.04924 17.3318 2.06051 17.3338 2.07181 17.3357ZM17.4116 17.4219V17.4188V17.4219ZM9.72787 8.10786C10.5437 8.10786 11.326 7.78379 11.9029 7.20694C12.4798 6.63008 12.8038 5.8477 12.8038 5.03191C12.8038 4.21611 12.4798 3.43373 11.9029 2.85687C11.326 2.28002 10.5437 1.95595 9.72787 1.95595C8.91208 1.95595 8.1297 2.28002 7.55284 2.85687C6.97599 3.43373 6.65192 4.21611 6.65192 5.03191C6.65192 5.8477 6.97599 6.63008 7.55284 7.20694C8.1297 7.78379 8.91208 8.10786 9.72787 8.10786ZM14.3418 5.03191C14.3418 6.2556 13.8557 7.42917 12.9904 8.29445C12.1251 9.15973 10.9516 9.64584 9.72787 9.64584C8.50418 9.64584 7.33061 9.15973 6.46533 8.29445C5.60005 7.42917 5.11394 6.2556 5.11394 5.03191C5.11394 3.80821 5.60005 2.63464 6.46533 1.76936C7.33061 0.904079 8.50418 0.417969 9.72787 0.417969C10.9516 0.417969 12.1251 0.904079 12.9904 1.76936C13.8557 2.63464 14.3418 3.80821 14.3418 5.03191Z" fill="#7749F8"/>
<circle cx="16.2285" cy="14.4922" r="6.5" fill="white"/>
<path fill-rule="evenodd" clip-rule="evenodd" d="M19.7285 14.7422C19.7285 15.1564 19.3927 15.4922 18.9785 15.4922L13.4785 15.4922C13.0643 15.4922 12.7285 15.1564 12.7285 14.7422C12.7285 14.328 13.0643 13.9922 13.4785 13.9922L18.9785 13.9922C19.3927 13.9922 19.7285 14.328 19.7285 14.7422Z" fill="#7749F8"/>
<path fill-rule="evenodd" clip-rule="evenodd" d="M16.4785 10.9922C16.8927 10.9922 17.2285 11.328 17.2285 11.7422V17.2422C17.2285 17.6564 16.8927 17.9922 16.4785 17.9922C16.0643 17.9922 15.7285 17.6564 15.7285 17.2422V11.7422C15.7285 11.328 16.0643 10.9922 16.4785 10.9922Z" fill="#7749F8"/>
</svg>
