<svg width="300" height="257" viewBox="0 0 300 257" fill="none" xmlns="http://www.w3.org/2000/svg">
<path d="M203.135 62.6698C189.337 51.1386 170.407 35.238 154.132 21.4662C137.819 7.58422 116.783 0.524356 95.3983 1.75475C71.6197 3.2134 41.9933 11.5251 21.0269 39.6731C-19.6379 94.2542 -1.47707 221.971 76.876 246.072C155.229 270.173 225.803 251.815 267.532 211.84C309.261 171.865 304.149 95.9559 284.241 86.8295C273.925 82.079 257.663 80.0685 244.378 79.2274C229.218 78.2407 214.768 72.4399 203.135 62.6698Z" fill="#7749F8" fill-opacity="0.1"/>
<path d="M158.728 121.857C152.706 117.817 145.491 115.944 138.265 116.545C131.039 117.145 124.232 120.184 118.96 125.163C113.689 130.142 110.266 136.765 109.254 143.945C108.242 151.125 109.701 158.435 113.391 164.677" stroke="#263238" stroke-width="0.969642" stroke-linecap="round" stroke-linejoin="round"/>
<path d="M170.093 135.419C169.47 134.019 168.75 132.664 167.938 131.365" stroke="#263238" stroke-width="0.969642" stroke-linecap="round" stroke-linejoin="round"/>
<path d="M167.369 166.234C169.752 162.688 171.403 158.702 172.224 154.509C173.046 150.316 173.021 146.002 172.152 141.818" stroke="#263238" stroke-width="0.969642" stroke-linecap="round" stroke-linejoin="round"/>
<path d="M109.127 116.627C106.954 118.808 105.005 121.203 103.312 123.776" stroke="#263238" stroke-width="0.969642" stroke-linecap="round" stroke-linejoin="round"/>
<path d="M176.348 175.834C182.781 167.519 186.09 157.209 185.7 146.703C185.309 136.197 181.243 126.162 174.21 118.347C167.178 110.532 157.625 105.434 147.218 103.942C136.811 102.45 126.211 104.658 117.266 110.182" stroke="#263238" stroke-width="0.969642" stroke-linecap="round" stroke-linejoin="round"/>
<path d="M105.295 175.835C100.857 170.091 97.8751 163.359 96.6028 156.213C95.3305 149.066 95.8061 141.719 97.9888 134.796" stroke="#263238" stroke-width="0.969642" stroke-linecap="round" stroke-linejoin="round"/>
<path d="M91.2266 187.182C94.0189 190.748 97.1866 194.004 100.675 196.893" stroke="#263238" stroke-width="0.969642" stroke-linecap="round" stroke-linejoin="round"/>
<path d="M176.507 96.3973C165.259 88.6945 151.816 84.8462 138.196 85.4299C124.575 86.0135 111.511 90.9975 100.963 99.6344C90.4145 108.271 82.9509 120.095 79.6913 133.333C76.4318 146.571 77.5522 160.508 82.8843 173.055" stroke="#263238" stroke-width="0.969642" stroke-linecap="round" stroke-linejoin="round"/>
<path d="M199.635 125.603C197.942 121.238 195.767 117.075 193.15 113.191" stroke="#263238" stroke-width="0.969642" stroke-linecap="round" stroke-linejoin="round"/>
<path d="M184.418 193.89C190.576 188.015 195.476 180.951 198.82 173.124C202.165 165.298 203.884 156.874 203.873 148.363" stroke="#263238" stroke-width="0.969642" stroke-linecap="round" stroke-linejoin="round"/>
<path d="M52.8105 148.363C52.8106 169.272 60.2141 189.505 73.7085 205.475C87.2028 221.446 105.916 232.123 126.531 235.613" stroke="#263238" stroke-width="0.969642" stroke-linecap="round" stroke-linejoin="round"/>
<path d="M211.948 201.012C222.727 186.427 228.765 168.883 229.246 150.753C229.727 132.624 224.627 114.784 214.637 99.6483C204.646 84.5123 190.247 72.8106 173.388 66.1264C156.529 59.4422 138.023 58.0983 120.375 62.2764" stroke="#263238" stroke-width="0.969642" stroke-linecap="round" stroke-linejoin="round"/>
<path d="M52.8105 148.363C52.8113 128.528 59.4747 109.269 71.7316 93.6745C83.9884 78.0802 101.128 67.0551 120.401 62.3682" stroke="#263238" stroke-width="0.969642" stroke-linecap="round" stroke-linejoin="round"/>
<path d="M193.15 219.706C195.397 218.054 197.559 216.302 199.635 214.449" stroke="#263238" stroke-width="0.969642" stroke-linecap="round" stroke-linejoin="round"/>
<path d="M155.58 235.612C165.642 233.927 175.334 230.503 184.221 225.493" stroke="#263238" stroke-width="0.969642" stroke-linecap="round" stroke-linejoin="round"/>
<path d="M140.863 227.689C131.902 227.679 123.312 224.115 116.975 217.778C110.639 211.442 107.075 202.851 107.064 193.891V182.511C107.064 182.023 107.258 181.555 107.603 181.21C107.948 180.865 108.416 180.671 108.904 180.671H113.504C113.991 180.671 114.459 180.865 114.804 181.21C115.149 181.555 115.343 182.023 115.343 182.511C115.343 182.999 115.149 183.467 114.804 183.812C114.459 184.157 113.991 184.35 113.504 184.35H110.764V193.891C110.764 201.879 113.937 209.54 119.585 215.188C125.234 220.837 132.895 224.01 140.883 224.01C148.871 224.01 156.532 220.837 162.18 215.188C167.829 209.54 171.002 201.879 171.002 193.891V184.35H168.242C167.754 184.35 167.286 184.157 166.941 183.812C166.596 183.467 166.403 182.999 166.403 182.511C166.403 182.023 166.596 181.555 166.941 181.21C167.286 180.865 167.754 180.671 168.242 180.671H172.842C173.33 180.671 173.798 180.865 174.143 181.21C174.488 181.555 174.681 182.023 174.681 182.511V193.891C174.671 202.855 171.104 211.449 164.764 217.785C158.423 224.122 149.827 227.684 140.863 227.689Z" fill="#263238"/>
<path d="M176.501 255.968V252.289C176.502 251.805 176.408 251.327 176.223 250.88C176.038 250.433 175.767 250.027 175.426 249.685C175.084 249.343 174.678 249.072 174.231 248.888C173.784 248.703 173.305 248.609 172.822 248.609H108.904C108.421 248.609 107.942 248.703 107.495 248.888C107.048 249.072 106.642 249.343 106.3 249.685C105.959 250.027 105.688 250.433 105.503 250.88C105.318 251.327 105.224 251.805 105.225 252.289V255.968H176.501Z" fill="#263238"/>
<path d="M144.451 253.091C144.511 252.828 144.542 252.559 144.543 252.289V225.85H137.184V252.289C137.184 252.559 137.215 252.828 137.276 253.091H144.451Z" fill="#263238"/>
<path d="M163.622 148.363C163.673 145.342 163.123 142.34 162.002 139.533C160.881 136.726 159.212 134.171 157.093 132.016C154.974 129.86 152.448 128.149 149.66 126.98C146.873 125.812 143.881 125.21 140.859 125.21C137.836 125.21 134.844 125.812 132.057 126.98C129.27 128.149 126.743 129.86 124.624 132.016C122.505 134.171 120.836 136.726 119.716 139.533C118.595 142.34 118.044 145.342 118.095 148.363V193.89C118.197 199.861 120.639 205.552 124.897 209.738C129.155 213.925 134.887 216.27 140.859 216.27C146.83 216.27 152.562 213.925 156.82 209.738C161.078 205.552 163.521 199.861 163.622 193.89V148.363Z" stroke="#263238" stroke-width="0.969642" stroke-linecap="round" stroke-linejoin="round"/>
<path d="M163.622 148.363C163.673 145.342 163.123 142.34 162.002 139.533C160.881 136.726 159.212 134.171 157.093 132.016C154.974 129.86 152.448 128.149 149.66 126.98C146.873 125.812 143.881 125.21 140.859 125.21C137.836 125.21 134.844 125.812 132.057 126.98C129.27 128.149 126.743 129.86 124.624 132.016C122.505 134.171 120.836 136.726 119.716 139.533C118.595 142.34 118.044 145.342 118.095 148.363V193.89C118.197 199.861 120.639 205.552 124.897 209.738C129.155 213.925 134.887 216.27 140.859 216.27C146.83 216.27 152.562 213.925 156.82 209.738C161.078 205.552 163.521 199.861 163.622 193.89V148.363Z" fill="#7749F8"/>
<path d="M131.436 150.76H118.098V156.279H131.436C132.168 156.279 132.87 155.988 133.387 155.471C133.905 154.953 134.195 154.251 134.195 153.519C134.195 152.787 133.905 152.086 133.387 151.568C132.87 151.05 132.168 150.76 131.436 150.76Z" fill="white"/>
<path d="M163.624 150.76H150.293C149.561 150.76 148.859 151.05 148.341 151.568C147.824 152.086 147.533 152.787 147.533 153.519C147.533 154.251 147.824 154.953 148.341 155.471C148.859 155.988 149.561 156.279 150.293 156.279H163.624V150.76Z" fill="white"/>
<path d="M140.863 150.76C140.317 150.76 139.784 150.922 139.33 151.225C138.876 151.528 138.522 151.959 138.314 152.463C138.105 152.968 138.05 153.522 138.157 154.058C138.263 154.593 138.526 155.085 138.912 155.471C139.298 155.857 139.789 156.119 140.325 156.226C140.86 156.332 141.415 156.278 141.919 156.069C142.423 155.86 142.854 155.506 143.158 155.053C143.461 154.599 143.623 154.065 143.623 153.519C143.623 152.787 143.332 152.086 142.814 151.568C142.297 151.05 141.595 150.76 140.863 150.76Z" fill="white"/>
<path d="M140.863 161.916C140.317 161.916 139.784 162.078 139.33 162.381C138.876 162.684 138.522 163.115 138.314 163.62C138.105 164.124 138.05 164.679 138.157 165.214C138.263 165.749 138.526 166.241 138.912 166.627C139.298 167.013 139.789 167.276 140.325 167.382C140.86 167.489 141.415 167.434 141.919 167.225C142.423 167.016 142.854 166.663 143.158 166.209C143.461 165.755 143.623 165.221 143.623 164.676C143.623 163.944 143.332 163.242 142.814 162.724C142.297 162.207 141.595 161.916 140.863 161.916Z" fill="white"/>
<path d="M140.863 173.053C140.317 173.053 139.784 173.215 139.33 173.518C138.876 173.821 138.522 174.252 138.314 174.756C138.105 175.261 138.05 175.815 138.157 176.351C138.263 176.886 138.526 177.378 138.912 177.764C139.298 178.15 139.789 178.412 140.325 178.519C140.86 178.625 141.415 178.571 141.919 178.362C142.423 178.153 142.854 177.799 143.158 177.345C143.461 176.892 143.623 176.358 143.623 175.812C143.623 175.08 143.332 174.379 142.814 173.861C142.297 173.343 141.595 173.053 140.863 173.053Z" fill="white"/>
<path d="M131.436 161.916H118.098V167.435H131.436C132.168 167.435 132.87 167.144 133.387 166.627C133.905 166.109 134.195 165.408 134.195 164.676C134.195 163.944 133.905 163.242 133.387 162.724C132.87 162.207 132.168 161.916 131.436 161.916Z" fill="white"/>
<path d="M163.624 161.916H150.293C149.561 161.916 148.859 162.207 148.341 162.724C147.824 163.242 147.533 163.944 147.533 164.676C147.533 165.408 147.824 166.109 148.341 166.627C148.859 167.144 149.561 167.435 150.293 167.435H163.624V161.916Z" fill="white"/>
<path d="M131.436 173.053H118.098V178.572H131.436C132.168 178.572 132.87 178.281 133.387 177.764C133.905 177.246 134.195 176.544 134.195 175.812C134.195 175.08 133.905 174.379 133.387 173.861C132.87 173.343 132.168 173.053 131.436 173.053Z" fill="white"/>
<path d="M163.624 173.053H150.293C149.561 173.053 148.859 173.343 148.341 173.861C147.824 174.379 147.533 175.08 147.533 175.812C147.533 176.544 147.824 177.246 148.341 177.764C148.859 178.281 149.561 178.572 150.293 178.572H163.624V173.053Z" fill="white"/>
<path d="M163.622 148.363C163.673 145.342 163.123 142.34 162.002 139.533C160.881 136.726 159.212 134.171 157.093 132.016C154.974 129.86 152.448 128.149 149.66 126.98C146.873 125.812 143.881 125.21 140.859 125.21C137.836 125.21 134.844 125.812 132.057 126.98C129.27 128.149 126.743 129.86 124.624 132.016C122.505 134.171 120.836 136.726 119.716 139.533C118.595 142.34 118.044 145.342 118.095 148.363V193.89C118.197 199.861 120.639 205.552 124.897 209.738C129.155 213.925 134.887 216.27 140.859 216.27C146.83 216.27 152.562 213.925 156.82 209.738C161.078 205.552 163.521 199.861 163.622 193.89V148.363Z" stroke="#263238" stroke-width="0.969642" stroke-miterlimit="10"/>
<path d="M118.096 193.89C118.197 199.86 120.64 205.551 124.898 209.738C129.156 213.924 134.888 216.27 140.859 216.27C146.83 216.27 152.562 213.924 156.82 209.738C161.078 205.551 163.521 199.86 163.623 193.89H118.096Z" fill="#263238" stroke="#263238" stroke-width="0.969642" stroke-miterlimit="10"/>
<path d="M161.677 74.3057V52.9024C161.677 51.8674 161.266 50.8748 160.534 50.143C159.802 49.4111 158.809 49 157.774 49H124.197C123.162 49 122.17 49.4111 121.438 50.143C120.706 50.8748 120.295 51.8674 120.295 52.9024V74.3057C120.295 75.3407 120.706 76.3333 121.438 77.0651C122.17 77.797 123.162 78.2081 124.197 78.2081H135.89L134.967 86.3541H140.986V94.0336L148.129 81.4936H142.27L142.887 78.2031H157.774C158.809 78.2031 159.8 77.7926 160.532 77.0619C161.264 76.3311 161.676 75.3398 161.677 74.3057Z" fill="white" stroke="#7749F8" stroke-width="1.02547" stroke-linecap="round" stroke-linejoin="round"/>
<path d="M126.705 56.3232H149.407" stroke="#7749F8" stroke-width="1.02547" stroke-linecap="round" stroke-linejoin="round"/>
<path d="M126.705 62.3877H155.266" stroke="#7749F8" stroke-width="1.02547" stroke-linecap="round" stroke-linejoin="round"/>
<path d="M126.705 68.4521H150.872" stroke="#7749F8" stroke-width="1.02547" stroke-linecap="round" stroke-linejoin="round"/>
<path d="M201.682 204.187L228.253 213.044L221.663 219.64L233.962 231.94L207.391 223.083L213.982 216.486L201.682 204.187Z" fill="#7749F8" stroke="#F8F8F8" stroke-width="1.02547" stroke-linecap="round" stroke-linejoin="round"/>
<path d="M80.2867 204.187L53.7156 213.044L60.3058 219.64L48.0059 231.94L74.5769 223.083L67.9867 216.486L80.2867 204.187Z" fill="#7749F8" stroke="#F8F8F8" stroke-width="1.02547" stroke-linecap="round" stroke-linejoin="round"/>
<path d="M140.241 1L127.711 26.0599H137.041V43.4585L149.564 18.3987H140.241V1Z" fill="#7749F8" stroke="#F8F8F8" stroke-width="1.02547" stroke-linecap="round" stroke-linejoin="round"/>
<rect x="34" y="105" width="46" height="46" rx="23" fill="#7749F8"/>
<path d="M51.7887 140C48.5537 140 45.5382 139.059 43 137.436C45.155 137.575 48.9581 137.241 51.3236 134.985C47.7651 134.822 46.1603 132.092 45.9509 130.926C46.2533 131.043 47.6953 131.183 48.5093 130.856C44.4159 129.83 43.7879 126.237 43.9275 125.141C44.695 125.677 45.9975 125.864 46.5091 125.817C42.6948 123.088 44.067 118.983 44.7415 118.096C47.4788 121.889 51.5812 124.019 56.6564 124.137C56.5607 123.717 56.5102 123.28 56.5102 122.832C56.5102 119.611 59.1134 117 62.3247 117C64.0025 117 65.5144 117.713 66.5757 118.853C67.6969 118.59 69.3843 117.975 70.2092 117.443C69.7934 118.936 68.4989 120.181 67.7159 120.643C67.7224 120.659 67.7095 120.627 67.7159 120.643C68.4037 120.539 70.2648 120.181 71 119.683C70.6364 120.521 69.264 121.916 68.1377 122.696C68.3473 131.938 61.2765 140 51.7887 140Z" fill="#F8F8F8"/>
<rect x="206" y="130" width="46" height="46" rx="23" fill="#7749F8"/>
<circle cx="224.024" cy="146.79" r="2.26376" fill="white"/>
<circle cx="234.727" cy="146.79" r="2.26376" fill="white"/>
<circle cx="224.024" cy="158.316" r="2.26376" fill="white"/>
<circle cx="234.727" cy="158.316" r="2.26376" fill="white"/>
<circle cx="229.378" cy="141.852" r="1.85217" fill="white"/>
<circle cx="229.378" cy="163.256" r="1.85217" fill="white"/>
<circle cx="218.675" cy="152.552" r="2.67536" fill="white"/>
<circle cx="229.377" cy="152.552" r="2.67536" fill="white"/>
<circle cx="240.08" cy="152.552" r="2.67536" fill="white"/>
</svg>
