<svg width="18" height="24" viewBox="0 0 18 24" fill="none" xmlns="http://www.w3.org/2000/svg">
<path fill-rule="evenodd" clip-rule="evenodd" d="M7.5 0C6.30664 0 5.16211 0.473633 4.31836 1.31836C3.47461 2.16211 3 3.30664 3 4.5V12C3 13.1934 3.47461 14.3379 4.31836 15.1816C5.16211 16.0264 6.30664 16.5 7.5 16.5C8.69336 16.5 9.83789 16.0264 10.6816 15.1816C11.5254 14.3379 12 13.1934 12 12V4.5C12 3.30664 11.5254 2.16211 10.6816 1.31836C9.83789 0.473633 8.69336 0 7.5 0ZM1.28033 9.96967C1.13968 9.82902 0.948912 9.75 0.75 9.75C0.551088 9.75 0.360322 9.82902 0.21967 9.96967C0.0790178 10.1103 5.92479e-10 10.3011 5.92479e-10 10.5V12C-2.33569e-05 13.8593 0.690576 15.6523 1.93782 17.0312C3.18506 18.4101 4.90003 19.2766 6.75 19.4625V22.5H2.25C2.05109 22.5 1.86032 22.579 1.71967 22.7197C1.57902 22.8603 1.5 23.0511 1.5 23.25C1.5 23.4489 1.57902 23.6397 1.71967 23.7803C1.86032 23.921 2.05109 24 2.25 24H12.75C12.9489 24 13.1397 23.921 13.2803 23.7803C13.421 23.6397 13.5 23.4489 13.5 23.25C13.5 23.0511 13.421 22.8603 13.2803 22.7197C13.1397 22.579 12.9489 22.5 12.75 22.5H8.25V19.4625C10.1 19.2766 11.8149 18.4101 13.0622 17.0312C14.3094 15.6523 15 13.8593 15 12V10.5C15 10.3011 14.921 10.1103 14.7803 9.96967C14.6397 9.82902 14.4489 9.75 14.25 9.75C14.0511 9.75 13.8603 9.82902 13.7197 9.96967C13.579 10.1103 13.5 10.3011 13.5 10.5V12C13.5 13.5913 12.8679 15.1174 11.7426 16.2426C10.6174 17.3679 9.0913 18 7.5 18C5.9087 18 4.38258 17.3679 3.25736 16.2426C2.13214 15.1174 1.5 13.5913 1.5 12V10.5C1.5 10.3011 1.42098 10.1103 1.28033 9.96967Z" fill="#737B7B"/>
<circle cx="11.5" cy="13.5" r="6.5" fill="white"/>
<path fill-rule="evenodd" clip-rule="evenodd" d="M15 13.75C15 14.1642 14.6642 14.5 14.25 14.5L8.75 14.5C8.33579 14.5 8 14.1642 8 13.75C8 13.3358 8.33579 13 8.75 13L14.25 13C14.6642 13 15 13.3358 15 13.75Z" fill="#7749F8"/>
<path fill-rule="evenodd" clip-rule="evenodd" d="M11.75 10C12.1642 10 12.5 10.3358 12.5 10.75V16.25C12.5 16.6642 12.1642 17 11.75 17C11.3358 17 11 16.6642 11 16.25V10.75C11 10.3358 11.3358 10 11.75 10Z" fill="#7749F8"/>
</svg>
