<svg width="356" height="285" viewBox="0 0 356 285" fill="none" xmlns="http://www.w3.org/2000/svg">
<path fill-rule="evenodd" clip-rule="evenodd" d="M24.7466 18.2857C62.307 -29.3401 130.046 32.5712 191.083 43.2662C249.074 53.4275 329.144 20.9304 347.624 74.8608C372.681 147.987 340.125 235.072 268.639 269.603C195.745 304.813 110.149 273.795 54.4993 216.451C2.21458 162.575 -21.6115 77.0669 24.7466 18.2857Z" fill="#7749F8" fill-opacity="0.1"/>
<path d="M152.803 154.32C151.143 154.317 149.553 153.656 148.38 152.481C147.208 151.306 146.549 149.714 146.549 148.054V78.3835C146.549 76.9468 145.978 75.5689 144.962 74.553C143.946 73.537 142.568 72.9663 141.132 72.9663C139.695 72.9663 138.317 73.537 137.301 74.553C136.285 75.5689 135.714 76.9468 135.714 78.3835V130.403C135.648 131.832 135.034 133.18 134 134.168C132.965 135.155 131.59 135.706 130.16 135.706C128.73 135.706 127.354 135.155 126.32 134.168C125.285 133.18 124.671 131.832 124.605 130.403V101.703C124.635 101.159 124.553 100.615 124.366 100.104C124.178 99.5926 123.888 99.125 123.514 98.7296C123.14 98.3342 122.689 98.0193 122.188 97.804C121.688 97.5888 121.149 97.4778 120.605 97.4778C120.06 97.4778 119.522 97.5888 119.021 97.804C118.521 98.0193 118.07 98.3342 117.696 98.7296C117.321 99.125 117.032 99.5926 116.844 100.104C116.656 100.615 116.575 101.159 116.605 101.703V112.382H107.779V111.186H115.409V101.703C115.375 100.999 115.484 100.297 115.73 99.6368C115.976 98.977 116.354 98.3739 116.839 97.8643C117.325 97.3546 117.909 96.9488 118.557 96.6716C119.204 96.3944 119.901 96.2514 120.605 96.2514C121.309 96.2514 122.006 96.3944 122.653 96.6716C123.3 96.9488 123.885 97.3546 124.37 97.8643C124.856 98.3739 125.233 98.977 125.479 99.6368C125.725 100.297 125.835 100.999 125.801 101.703V130.403C125.859 131.52 126.344 132.571 127.155 133.341C127.966 134.111 129.042 134.54 130.16 134.54C131.278 134.54 132.353 134.111 133.164 133.341C133.975 132.571 134.46 131.52 134.519 130.403V78.3835C134.519 76.6296 135.215 74.9476 136.456 73.7074C137.696 72.4672 139.378 71.7705 141.132 71.7705C142.886 71.7705 144.568 72.4672 145.808 73.7074C147.048 74.9476 147.745 76.6296 147.745 78.3835V148.054C147.711 148.74 147.818 149.425 148.057 150.069C148.297 150.712 148.664 151.3 149.138 151.798C149.611 152.295 150.181 152.69 150.812 152.961C151.443 153.231 152.123 153.371 152.809 153.371C153.496 153.371 154.175 153.231 154.806 152.961C155.437 152.69 156.007 152.295 156.481 151.798C156.954 151.3 157.322 150.712 157.561 150.069C157.801 149.425 157.907 148.74 157.874 148.054V63.0766C157.832 61.996 158.009 60.918 158.394 59.9074C158.778 58.8967 159.363 57.9742 160.113 57.1949C160.863 56.4156 161.762 55.7956 162.757 55.3722C163.752 54.9487 164.822 54.7305 165.904 54.7305C166.985 54.7305 168.056 54.9487 169.051 55.3722C170.046 55.7956 170.945 56.4156 171.695 57.1949C172.445 57.9742 173.029 58.8967 173.414 59.9074C173.799 60.918 173.976 61.996 173.934 63.0766V147.683C173.934 149.12 174.505 150.498 175.521 151.514C176.537 152.53 177.915 153.101 179.351 153.101C180.788 153.101 182.166 152.53 183.182 151.514C184.198 150.498 184.769 149.12 184.769 147.683V80.2491C184.769 78.2129 185.577 76.2601 187.017 74.8203C188.457 73.3805 190.41 72.5717 192.446 72.5717C194.482 72.5717 196.435 73.3805 197.875 74.8203C199.314 76.2601 200.123 78.2129 200.123 80.2491V130.045C200.123 131.294 200.62 132.493 201.503 133.376C202.387 134.26 203.585 134.756 204.835 134.756C206.085 134.756 207.283 134.26 208.167 133.376C209.05 132.493 209.547 131.294 209.547 130.045V102.946C209.614 101.49 210.239 100.115 211.294 99.1076C212.349 98.1004 213.751 97.5383 215.209 97.5383C216.667 97.5383 218.069 98.1004 219.124 99.1076C220.179 100.115 220.804 101.49 220.871 102.946V111.162H229.685V112.358H219.676V102.946C219.616 101.802 219.12 100.724 218.289 99.9344C217.458 99.1451 216.355 98.7051 215.209 98.7051C214.063 98.7051 212.96 99.1451 212.129 99.9344C211.298 100.724 210.802 101.802 210.743 102.946V130.045C210.743 131.611 210.12 133.114 209.012 134.222C207.904 135.33 206.402 135.952 204.835 135.952C203.268 135.952 201.766 135.33 200.658 134.222C199.55 133.114 198.927 131.611 198.927 130.045V80.2491C198.927 78.5301 198.245 76.8814 197.029 75.6659C195.814 74.4504 194.165 73.7675 192.446 73.7675C190.727 73.7675 189.078 74.4504 187.863 75.6659C186.647 76.8814 185.964 78.5301 185.964 80.2491V147.671C185.964 149.425 185.268 151.107 184.027 152.348C182.787 153.588 181.105 154.285 179.351 154.285C177.597 154.285 175.915 153.588 174.675 152.348C173.435 151.107 172.738 149.425 172.738 147.671V63.0766C172.777 62.155 172.629 61.2352 172.302 60.3724C171.976 59.5096 171.479 58.7217 170.841 58.056C170.202 57.3903 169.436 56.8606 168.587 56.4987C167.739 56.1369 166.826 55.9503 165.904 55.9503C164.982 55.9503 164.069 56.1369 163.22 56.4987C162.372 56.8606 161.605 57.3903 160.967 58.056C160.329 58.7217 159.831 59.5096 159.505 60.3724C159.179 61.2352 159.031 62.155 159.07 63.0766V148.066C159.063 149.725 158.401 151.314 157.227 152.486C156.052 153.658 154.462 154.317 152.803 154.32Z" fill="#263238"/>
<path d="M187.412 223.677C186.299 223.675 185.234 223.232 184.448 222.445C183.662 221.657 183.221 220.591 183.221 219.479V172.8C183.221 171.838 182.839 170.915 182.158 170.234C181.478 169.553 180.554 169.171 179.592 169.171C178.629 169.171 177.706 169.553 177.025 170.234C176.345 170.915 175.962 171.838 175.962 172.8V207.653C175.918 208.61 175.506 209.513 174.813 210.175C174.12 210.837 173.199 211.206 172.241 211.206C171.282 211.206 170.361 210.837 169.668 210.175C168.975 209.513 168.563 208.61 168.519 207.653V188.424C168.539 188.06 168.484 187.695 168.359 187.353C168.233 187.01 168.039 186.697 167.788 186.432C167.537 186.167 167.235 185.956 166.9 185.812C166.565 185.668 166.204 185.593 165.839 185.593C165.474 185.593 165.113 185.668 164.778 185.812C164.443 185.956 164.141 186.167 163.89 186.432C163.639 186.697 163.445 187.01 163.319 187.353C163.194 187.695 163.139 188.06 163.159 188.424V195.579H157.246V194.777H162.358V188.424C162.335 187.953 162.408 187.482 162.573 187.04C162.738 186.598 162.991 186.194 163.316 185.852C163.642 185.511 164.033 185.239 164.467 185.053C164.9 184.867 165.367 184.772 165.839 184.772C166.311 184.772 166.778 184.867 167.211 185.053C167.645 185.239 168.036 185.511 168.362 185.852C168.687 186.194 168.94 186.598 169.105 187.04C169.27 187.482 169.343 187.953 169.32 188.424V207.653C169.359 208.401 169.684 209.105 170.228 209.621C170.771 210.137 171.492 210.424 172.241 210.424C172.99 210.424 173.71 210.137 174.254 209.621C174.797 209.105 175.122 208.401 175.161 207.653V172.8C175.161 171.625 175.628 170.498 176.459 169.667C177.29 168.836 178.417 168.37 179.592 168.37C180.767 168.37 181.894 168.836 182.725 169.667C183.556 170.498 184.022 171.625 184.022 172.8V219.479C184 219.938 184.071 220.397 184.232 220.828C184.392 221.26 184.639 221.654 184.956 221.987C185.273 222.32 185.655 222.585 186.078 222.766C186.5 222.947 186.956 223.041 187.416 223.041C187.876 223.041 188.331 222.947 188.754 222.766C189.176 222.585 189.558 222.32 189.875 221.987C190.193 221.654 190.439 221.26 190.599 220.828C190.76 220.397 190.831 219.938 190.809 219.479V162.545C190.781 161.821 190.899 161.099 191.157 160.422C191.415 159.744 191.807 159.126 192.309 158.604C192.811 158.082 193.414 157.667 194.08 157.383C194.747 157.099 195.464 156.953 196.189 156.953C196.913 156.953 197.63 157.099 198.297 157.383C198.964 157.667 199.566 158.082 200.069 158.604C200.571 159.126 200.963 159.744 201.221 160.422C201.478 161.099 201.597 161.821 201.569 162.545V219.23C201.569 220.193 201.951 221.116 202.632 221.797C203.313 222.477 204.236 222.86 205.198 222.86C206.161 222.86 207.084 222.477 207.765 221.797C208.445 221.116 208.828 220.193 208.828 219.23V174.05C208.828 172.686 209.37 171.378 210.334 170.413C211.299 169.448 212.607 168.906 213.972 168.906C215.336 168.906 216.644 169.448 217.609 170.413C218.573 171.378 219.115 172.686 219.115 174.05V207.412C219.115 208.25 219.448 209.053 220.04 209.645C220.632 210.237 221.435 210.569 222.272 210.569C223.109 210.569 223.912 210.237 224.504 209.645C225.096 209.053 225.429 208.25 225.429 207.412V189.257C225.474 188.281 225.893 187.36 226.599 186.685C227.306 186.01 228.245 185.634 229.223 185.634C230.2 185.634 231.139 186.01 231.846 186.685C232.552 187.36 232.971 188.281 233.016 189.257V194.761H238.921V195.563H232.215V189.257C232.175 188.49 231.843 187.768 231.286 187.239C230.729 186.71 229.99 186.416 229.223 186.416C228.455 186.416 227.716 186.71 227.159 187.239C226.602 187.768 226.27 188.49 226.23 189.257V207.412C226.23 208.462 225.813 209.469 225.071 210.211C224.328 210.953 223.322 211.37 222.272 211.37C221.222 211.37 220.216 210.953 219.473 210.211C218.731 209.469 218.314 208.462 218.314 207.412V174.05C218.314 172.899 217.857 171.794 217.042 170.98C216.228 170.165 215.123 169.708 213.972 169.708C212.82 169.708 211.715 170.165 210.901 170.98C210.087 171.794 209.629 172.899 209.629 174.05V219.222C209.629 220.397 209.162 221.524 208.331 222.355C207.5 223.186 206.373 223.653 205.198 223.653C204.023 223.653 202.896 223.186 202.065 222.355C201.234 221.524 200.768 220.397 200.768 219.222V162.545C200.793 161.927 200.694 161.311 200.476 160.733C200.257 160.155 199.924 159.627 199.496 159.181C199.069 158.735 198.555 158.38 197.987 158.138C197.418 157.895 196.807 157.77 196.189 157.77C195.571 157.77 194.959 157.895 194.391 158.138C193.822 158.38 193.309 158.735 192.881 159.181C192.453 159.627 192.12 160.155 191.902 160.733C191.683 161.311 191.584 161.927 191.61 162.545V219.487C191.606 220.598 191.162 221.663 190.375 222.448C189.588 223.233 188.523 223.675 187.412 223.677Z" fill="#263238"/>
<path d="M266.712 198.224C265.6 198.222 264.534 197.778 263.749 196.991C262.963 196.204 262.522 195.138 262.522 194.026V147.347C262.522 146.385 262.14 145.461 261.459 144.781C260.778 144.1 259.855 143.718 258.893 143.718C257.93 143.718 257.007 144.1 256.326 144.781C255.645 145.461 255.263 146.385 255.263 147.347V182.2C255.219 183.157 254.807 184.06 254.114 184.722C253.421 185.383 252.5 185.753 251.541 185.753C250.583 185.753 249.662 185.383 248.969 184.722C248.276 184.06 247.864 183.157 247.82 182.2V162.971C247.84 162.606 247.785 162.242 247.66 161.899C247.534 161.557 247.34 161.244 247.089 160.979C246.838 160.714 246.536 160.503 246.201 160.359C245.866 160.214 245.505 160.14 245.14 160.14C244.775 160.14 244.414 160.214 244.079 160.359C243.744 160.503 243.442 160.714 243.191 160.979C242.94 161.244 242.746 161.557 242.62 161.899C242.494 162.242 242.44 162.606 242.46 162.971V170.126H236.547V169.324H241.659V162.971C241.636 162.5 241.709 162.029 241.874 161.587C242.039 161.145 242.292 160.741 242.617 160.399C242.942 160.058 243.334 159.786 243.768 159.6C244.201 159.414 244.668 159.318 245.14 159.318C245.612 159.318 246.078 159.414 246.512 159.6C246.946 159.786 247.337 160.058 247.663 160.399C247.988 160.741 248.241 161.145 248.406 161.587C248.57 162.029 248.644 162.5 248.621 162.971V182.2C248.66 182.948 248.985 183.652 249.528 184.168C250.072 184.684 250.792 184.971 251.541 184.971C252.291 184.971 253.011 184.684 253.555 184.168C254.098 183.652 254.423 182.948 254.462 182.2V147.347C254.462 146.172 254.929 145.045 255.76 144.214C256.59 143.383 257.717 142.917 258.893 142.917C260.068 142.917 261.195 143.383 262.026 144.214C262.856 145.045 263.323 146.172 263.323 147.347V194.026C263.301 194.485 263.372 194.944 263.533 195.375C263.693 195.806 263.939 196.2 264.257 196.534C264.574 196.867 264.955 197.132 265.378 197.313C265.801 197.494 266.256 197.588 266.716 197.588C267.176 197.588 267.632 197.494 268.054 197.313C268.477 197.132 268.859 196.867 269.176 196.534C269.493 196.2 269.74 195.806 269.9 195.375C270.061 194.944 270.132 194.485 270.109 194.026V137.092C270.081 136.368 270.2 135.646 270.458 134.968C270.716 134.291 271.107 133.673 271.61 133.151C272.112 132.629 272.715 132.214 273.381 131.93C274.048 131.646 274.765 131.5 275.49 131.5C276.214 131.5 276.931 131.646 277.598 131.93C278.264 132.214 278.867 132.629 279.369 133.151C279.872 133.673 280.264 134.291 280.521 134.968C280.779 135.646 280.898 136.368 280.87 137.092V193.777C280.87 194.74 281.252 195.663 281.933 196.344C282.613 197.024 283.537 197.407 284.499 197.407C285.462 197.407 286.385 197.024 287.066 196.344C287.746 195.663 288.129 194.74 288.129 193.777V148.597C288.129 147.233 288.671 145.925 289.635 144.96C290.6 143.995 291.908 143.453 293.272 143.453C294.637 143.453 295.945 143.995 296.909 144.96C297.874 145.925 298.416 147.233 298.416 148.597V181.959C298.416 182.797 298.749 183.6 299.341 184.192C299.933 184.784 300.736 185.116 301.573 185.116C302.41 185.116 303.213 184.784 303.805 184.192C304.397 183.6 304.73 182.797 304.73 181.959V163.804C304.73 162.799 305.129 161.835 305.84 161.124C306.55 160.414 307.514 160.014 308.519 160.014C309.524 160.014 310.488 160.414 311.199 161.124C311.91 161.835 312.309 162.799 312.309 163.804V169.308H318.222V170.11H311.508V163.804C311.508 163.011 311.193 162.251 310.632 161.691C310.072 161.13 309.312 160.816 308.519 160.816C307.727 160.816 306.967 161.13 306.406 161.691C305.846 162.251 305.531 163.011 305.531 163.804V181.959C305.531 183.009 305.114 184.016 304.372 184.758C303.629 185.5 302.623 185.917 301.573 185.917C300.523 185.917 299.516 185.5 298.774 184.758C298.032 184.016 297.615 183.009 297.615 181.959V148.597C297.615 147.445 297.157 146.341 296.343 145.526C295.529 144.712 294.424 144.255 293.272 144.255C292.121 144.255 291.016 144.712 290.202 145.526C289.387 146.341 288.93 147.445 288.93 148.597V193.769C288.93 194.944 288.463 196.071 287.632 196.902C286.801 197.733 285.674 198.2 284.499 198.2C283.324 198.2 282.197 197.733 281.366 196.902C280.535 196.071 280.068 194.944 280.068 193.769V137.092C280.094 136.474 279.995 135.858 279.777 135.28C279.558 134.702 279.225 134.174 278.797 133.728C278.369 133.282 277.856 132.927 277.288 132.685C276.719 132.442 276.108 132.317 275.49 132.317C274.872 132.317 274.26 132.442 273.692 132.685C273.123 132.927 272.61 133.282 272.182 133.728C271.754 134.174 271.421 134.702 271.203 135.28C270.984 135.858 270.885 136.474 270.911 137.092V194.034C270.906 195.145 270.462 196.21 269.676 196.995C268.889 197.78 267.824 198.222 266.712 198.224Z" fill="#263238"/>
<path d="M231.759 62.6363C231.145 62.5105 230.606 62.1463 230.261 61.6236C229.915 61.1009 229.791 60.4625 229.916 59.8484L235.147 34.0737C235.255 33.5422 235.147 32.9895 234.848 32.5374C234.548 32.0853 234.081 31.7707 233.55 31.6628C233.018 31.5549 232.465 31.6626 232.013 31.9622C231.561 32.2617 231.247 32.7286 231.139 33.2602L227.233 52.505C227.101 53.0285 226.773 53.4811 226.316 53.7688C225.859 54.0565 225.309 54.1571 224.78 54.0497C224.251 53.9423 223.783 53.6352 223.475 53.1922C223.166 52.7492 223.04 52.2043 223.123 51.6708L225.278 41.053C225.33 40.8541 225.34 40.6467 225.309 40.4435C225.278 40.2403 225.206 40.0455 225.097 39.8711C224.989 39.6967 224.845 39.5464 224.676 39.4292C224.508 39.312 224.317 39.2305 224.115 39.1896C223.914 39.1487 223.706 39.1493 223.505 39.1914C223.304 39.2335 223.113 39.3161 222.945 39.4343C222.777 39.5524 222.634 39.7037 222.527 39.8787C222.419 40.0537 222.348 40.2489 222.318 40.4523L221.516 44.403L218.251 43.7403L218.341 43.2979L221.164 43.8708L221.876 40.3625C221.916 40.0997 222.009 39.8479 222.15 39.6223C222.29 39.3967 222.475 39.2019 222.693 39.0498C222.911 38.8977 223.158 38.7915 223.418 38.7375C223.678 38.6836 223.947 38.683 224.207 38.7359C224.468 38.7888 224.715 38.894 224.933 39.0451C225.152 39.1963 225.338 39.3903 225.479 39.6153C225.621 39.8403 225.715 40.0918 225.756 40.3543C225.798 40.6169 225.786 40.8851 225.72 41.1428L223.565 51.7606C223.503 52.178 223.603 52.6035 223.846 52.9491C224.088 53.2947 224.454 53.5342 224.867 53.6182C225.281 53.7021 225.711 53.6242 226.069 53.4003C226.427 53.1765 226.685 52.8238 226.79 52.4152L230.696 33.1704C230.828 32.5215 231.212 31.9515 231.764 31.5858C232.316 31.2202 232.991 31.0887 233.639 31.2204C234.288 31.3521 234.858 31.7361 235.224 32.2881C235.59 32.84 235.721 33.5146 235.589 34.1635L230.358 59.9382C230.294 60.1894 230.282 60.451 230.322 60.707C230.363 60.9631 230.455 61.2082 230.592 61.4277C230.73 61.6472 230.911 61.8364 231.124 61.9838C231.338 62.1312 231.578 62.2338 231.832 62.2854C232.086 62.337 232.348 62.3364 232.602 62.2837C232.856 62.2311 233.096 62.1274 233.309 61.9791C233.521 61.8307 233.702 61.6407 233.838 61.4206C233.975 61.2006 234.066 60.955 234.105 60.6988L240.486 29.2612C240.552 28.8583 240.698 28.4728 240.916 28.1278C241.134 27.7828 241.42 27.4854 241.756 27.2534C242.092 27.0214 242.471 26.8595 242.871 26.7776C243.271 26.6957 243.683 26.6953 244.083 26.7765C244.483 26.8577 244.863 27.0188 245.199 27.2502C245.536 27.4815 245.822 27.7784 246.041 28.123C246.26 28.4676 246.407 28.8528 246.473 29.2556C246.54 29.6584 246.524 30.0704 246.427 30.4671L240.075 61.7675C239.967 62.2991 240.074 62.8517 240.374 63.3038C240.674 63.7559 241.141 64.0705 241.672 64.1784C242.204 64.2863 242.756 64.1786 243.208 63.879C243.66 63.5795 243.975 63.1126 244.083 62.5811L249.146 37.6336C249.299 36.8803 249.745 36.2186 250.386 35.7941C251.027 35.3695 251.81 35.2169 252.563 35.3698C253.316 35.5227 253.978 35.9686 254.403 36.6093C254.827 37.2501 254.98 38.0332 254.827 38.7865L251.088 57.2085C250.994 57.6708 251.088 58.1514 251.348 58.5446C251.609 58.9379 252.015 59.2115 252.477 59.3053C252.939 59.3992 253.42 59.3055 253.813 59.045C254.207 58.7844 254.48 58.3783 254.574 57.916L256.609 47.891C256.743 47.3571 257.078 46.8955 257.543 46.602C258.009 46.3086 258.57 46.206 259.11 46.3155C259.649 46.425 260.126 46.7382 260.44 47.19C260.755 47.6418 260.883 48.1974 260.798 48.7414L260.182 51.7807L263.442 52.4425L263.352 52.8849L259.649 52.1333L260.356 48.6516C260.42 48.2237 260.317 47.7875 260.069 47.4331C259.821 47.0787 259.446 46.8332 259.022 46.7471C258.598 46.6611 258.157 46.7411 257.79 46.9706C257.424 47.2002 257.159 47.5618 257.051 47.9808L255.016 58.0058C254.899 58.5854 254.556 59.0946 254.063 59.4213C253.57 59.748 252.967 59.8654 252.387 59.7477C251.808 59.6301 251.299 59.287 250.972 58.794C250.645 58.3009 250.528 57.6983 250.645 57.1187L254.384 38.6967C254.513 38.0608 254.385 37.3996 254.026 36.8587C253.668 36.3177 253.109 35.9413 252.473 35.8122C251.837 35.6831 251.176 35.812 250.635 36.1704C250.094 36.5288 249.718 37.0874 249.589 37.7234L244.526 62.6664C244.395 63.3153 244.01 63.8853 243.459 64.2509C242.907 64.6166 242.232 64.7481 241.583 64.6164C240.934 64.4847 240.364 64.1007 239.999 63.5487C239.633 62.9968 239.501 62.3222 239.633 61.6733L245.985 30.3773C246.069 30.0393 246.083 29.6878 246.027 29.3442C245.971 29.0005 245.846 28.6717 245.66 28.3774C245.474 28.0832 245.23 27.8297 244.943 27.6321C244.657 27.4346 244.333 27.297 243.992 27.2278C243.651 27.1585 243.299 27.159 242.958 27.2291C242.617 27.2993 242.293 27.4377 242.007 27.6361C241.721 27.8344 241.478 28.0886 241.293 28.3833C241.107 28.678 240.983 29.0071 240.928 29.351L234.547 60.793C234.42 61.4062 234.055 61.9443 233.533 62.2897C233.011 62.6351 232.373 62.7597 231.759 62.6363Z" fill="#263238"/>
<path d="M274.448 71.3023C273.835 71.1765 273.296 70.8123 272.95 70.2896C272.605 69.767 272.48 69.1285 272.605 68.5145L277.836 42.7397C277.944 42.2082 277.837 41.6556 277.537 41.2034C277.237 40.7513 276.771 40.4367 276.239 40.3288C275.708 40.2209 275.155 40.3286 274.703 40.6282C274.251 40.9277 273.936 41.3947 273.828 41.9262L269.922 61.171C269.79 61.6945 269.462 62.1472 269.005 62.4348C268.548 62.7225 267.998 62.8231 267.469 62.7157C266.94 62.6083 266.473 62.3012 266.164 61.8582C265.855 61.4152 265.73 60.8703 265.812 60.3368L267.967 49.719C268.019 49.5201 268.03 49.3127 267.999 49.1095C267.968 48.9063 267.896 48.7115 267.787 48.5372C267.678 48.3628 267.535 48.2124 267.366 48.0952C267.197 47.978 267.006 47.8965 266.805 47.8556C266.603 47.8147 266.396 47.8153 266.194 47.8574C265.993 47.8995 265.803 47.9821 265.634 48.1003C265.466 48.2185 265.324 48.3697 265.216 48.5447C265.108 48.7197 265.037 48.9149 265.008 49.1183L264.206 53.069L260.941 52.4063L261.031 51.9639L263.853 52.5368L264.565 49.0285C264.605 48.7658 264.699 48.5139 264.839 48.2883C264.98 48.0627 265.165 47.8679 265.383 47.7158C265.601 47.5638 265.847 47.4575 266.107 47.4036C266.368 47.3496 266.636 47.349 266.897 47.4019C267.157 47.4548 267.404 47.56 267.623 47.7111C267.842 47.8623 268.027 48.0563 268.169 48.2813C268.31 48.5064 268.404 48.7578 268.446 49.0203C268.487 49.2829 268.475 49.5511 268.41 49.8088L266.255 60.4266C266.192 60.8441 266.293 61.2695 266.535 61.6151C266.777 61.9608 267.143 62.2002 267.557 62.2842C267.97 62.3681 268.4 62.2902 268.758 62.0663C269.116 61.8425 269.374 61.4899 269.48 61.0812L273.386 41.8364C273.517 41.1875 273.902 40.6176 274.453 40.2519C275.005 39.8862 275.68 39.7547 276.329 39.8864C276.978 40.0181 277.548 40.4022 277.913 40.9541C278.279 41.506 278.411 42.1806 278.279 42.8295L273.048 68.6043C272.984 68.8555 272.972 69.117 273.012 69.373C273.052 69.6291 273.144 69.8743 273.282 70.0937C273.42 70.3132 273.601 70.5024 273.814 70.6498C274.027 70.7973 274.268 70.8999 274.522 70.9514C274.776 71.003 275.038 71.0024 275.292 70.9497C275.545 70.8971 275.786 70.7934 275.998 70.6451C276.211 70.4967 276.391 70.3067 276.528 70.0867C276.665 69.8666 276.756 69.621 276.795 69.3648L283.175 37.9272C283.241 37.5243 283.387 37.1388 283.606 36.7938C283.824 36.4488 284.11 36.1514 284.445 35.9194C284.781 35.6874 285.161 35.5256 285.561 35.4436C285.96 35.3617 286.373 35.3613 286.773 35.4425C287.173 35.5237 287.552 35.6848 287.889 35.9162C288.225 36.1475 288.511 36.4444 288.73 36.789C288.949 37.1336 289.096 37.5188 289.163 37.9216C289.229 38.3244 289.214 38.7365 289.117 39.1331L282.764 70.4336C282.656 70.9651 282.764 71.5177 283.063 71.9698C283.363 72.4219 283.83 72.7366 284.361 72.8444C284.893 72.9523 285.446 72.8446 285.898 72.5451C286.35 72.2455 286.664 71.7786 286.772 71.2471L291.836 46.2996C291.989 45.5463 292.435 44.8846 293.075 44.4601C293.716 44.0355 294.499 43.8829 295.252 44.0358C296.006 44.1887 296.667 44.6346 297.092 45.2753C297.517 45.9161 297.669 46.6993 297.516 47.4526L293.777 65.8745C293.684 66.3368 293.777 66.8174 294.038 67.2107C294.298 67.6039 294.704 67.8775 295.167 67.9714C295.629 68.0652 296.11 67.9715 296.503 67.711C296.896 67.4504 297.17 67.0443 297.264 66.582L299.298 56.557C299.411 56.0021 299.739 55.5145 300.211 55.2018C300.684 54.889 301.261 54.7765 301.816 54.8892C302.371 55.0018 302.858 55.3303 303.171 55.8024C303.484 56.2745 303.596 56.8515 303.483 57.4065L302.867 60.4458L306.132 61.1085L306.042 61.5509L302.334 60.7984L303.041 57.3167C303.13 56.879 303.041 56.424 302.794 56.0517C302.548 55.6794 302.163 55.4204 301.726 55.3316C301.288 55.2427 300.833 55.3314 300.461 55.5781C300.088 55.8247 299.829 56.2092 299.741 56.6468L297.706 66.6718C297.588 67.2515 297.245 67.7606 296.752 68.0873C296.259 68.414 295.656 68.5314 295.077 68.4138C294.497 68.2961 293.988 67.953 293.661 67.46C293.335 66.9669 293.217 66.3643 293.335 65.7847L297.074 47.3628C297.203 46.7268 297.074 46.0656 296.716 45.5247C296.357 44.9837 295.799 44.6073 295.163 44.4782C294.527 44.3492 293.866 44.478 293.325 44.8364C292.784 45.1948 292.407 45.7535 292.278 46.3894L287.216 71.3324C287.084 71.9813 286.7 72.5513 286.148 72.917C285.596 73.2827 284.921 73.4141 284.273 73.2824C283.624 73.1507 283.054 72.7667 282.688 72.2147C282.322 71.6628 282.191 70.9882 282.323 70.3393L288.675 39.0433C288.758 38.7053 288.772 38.3539 288.716 38.0102C288.661 37.6665 288.536 37.3377 288.35 37.0435C288.163 36.7492 287.92 36.4957 287.633 36.2982C287.346 36.1006 287.022 35.963 286.681 35.8938C286.34 35.8245 285.988 35.825 285.647 35.8952C285.306 35.9653 284.983 36.1037 284.697 36.3021C284.411 36.5004 284.167 36.7546 283.982 37.0493C283.797 37.344 283.673 37.6732 283.618 38.017L277.236 69.459C277.109 70.0722 276.745 70.6103 276.223 70.9557C275.7 71.3011 275.062 71.4257 274.448 71.3023Z" fill="#263238"/>
<path d="M39.4589 102.252C39.9695 102.636 40.6115 102.801 41.2437 102.711C41.8759 102.621 42.4465 102.284 42.8299 101.773C43.2134 101.262 43.3783 100.62 43.2885 99.9883L40.863 82.9277C40.7732 82.2956 40.4358 81.725 39.9253 81.3415C39.4147 80.958 38.7727 80.7931 38.1405 80.883C37.5083 80.9728 36.9377 81.3102 36.5543 81.8207C36.1708 82.3313 36.0059 82.9733 36.0957 83.6055L38.5212 100.666C38.611 101.298 38.9484 101.869 39.4589 102.252Z" fill="#7749F8" stroke="#FAFAFA"/>
<path d="M32.9562 100.873C33.4667 101.257 34.1087 101.422 34.7409 101.332C35.0552 101.287 35.3577 101.181 35.6307 101.019C35.9038 100.857 36.1421 100.642 36.332 100.388C36.5218 100.133 36.6594 99.8435 36.7369 99.5356C36.8142 99.2282 36.8301 98.9086 36.7836 98.5951L34.9939 86.0059C34.904 85.3737 34.5667 84.8031 34.0561 84.4196C33.5455 84.0362 32.9036 83.8712 32.2714 83.9611C31.6392 84.051 31.0686 84.3883 30.6851 84.8989C30.3017 85.4094 30.1367 86.0514 30.2266 86.6836L32.0184 99.287C32.1082 99.9192 32.4456 100.49 32.9562 100.873Z" fill="#7749F8" stroke="#FAFAFA"/>
<path d="M28.5507 102.215C27.9223 102.292 27.289 102.118 26.7879 101.731C26.2873 101.344 25.959 100.776 25.8738 100.15L24.0841 87.5606C23.9942 86.9284 24.1591 86.2864 24.5426 85.7758C24.9261 85.2653 25.4967 84.9279 26.1288 84.838C26.761 84.7482 27.403 84.9131 27.9136 85.2966C28.4242 85.68 28.7615 86.2506 28.8514 86.8828L30.6411 99.472C30.6882 99.7895 30.6714 100.113 30.5915 100.424C30.5116 100.736 30.37 101.028 30.1751 101.284C29.9803 101.54 29.7362 101.754 29.4572 101.914L29.2084 101.48L29.4572 101.914C29.1782 102.074 28.8699 102.177 28.5507 102.215ZM28.5507 102.215C28.5507 102.215 28.5507 102.215 28.5507 102.215L28.4902 101.719L28.5507 102.215Z" fill="#7749F8" stroke="#FAFAFA"/>
<path d="M100.935 91.2131C101.445 91.5966 102.087 91.7615 102.719 91.6716C103.034 91.6269 103.336 91.5205 103.609 91.3585C103.882 91.1964 104.121 90.9819 104.31 90.7274C104.5 90.4729 104.638 90.1834 104.715 89.8754C104.793 89.5681 104.809 89.2484 104.762 88.9349L102.972 76.3457C102.883 75.7135 102.545 75.1429 102.035 74.7595C101.524 74.376 100.882 74.2111 100.25 74.3009C99.6177 74.3908 99.0471 74.7281 98.6637 75.2387C98.2802 75.7493 98.1152 76.3913 98.2051 77.0234L99.9969 89.6268C100.087 90.259 100.424 90.8296 100.935 91.2131Z" fill="#7749F8" stroke="#FAFAFA"/>
<path d="M96.539 92.5494C95.9105 92.6259 95.2773 92.4519 94.7762 92.065C94.2756 91.6784 93.9473 91.1104 93.8621 90.4837L92.0723 77.8945C91.9825 77.2623 92.1474 76.6204 92.5309 76.1098C92.9144 75.5992 93.4849 75.2619 94.1171 75.172C94.7493 75.0821 95.3913 75.2471 95.9019 75.6306C96.4124 76.014 96.7498 76.5846 96.8396 77.2168L98.6294 89.806C98.6765 90.1235 98.6597 90.4473 98.5798 90.7582C98.4998 91.0697 98.3582 91.362 98.1634 91.6179L97.7656 91.315L98.1634 91.6179C97.9686 91.8738 97.7244 92.0881 97.4454 92.2481L97.1967 91.8143L97.4454 92.2481C97.1664 92.408 96.8582 92.5105 96.539 92.5494ZM96.539 92.5494C96.539 92.5494 96.5389 92.5494 96.5389 92.5494L96.4785 92.053L96.539 92.5494Z" fill="#7749F8" stroke="#FAFAFA"/>
<path d="M45.6425 101.373C46.1531 101.757 46.7951 101.922 47.4273 101.832C48.0595 101.742 48.63 101.405 49.0135 100.894C49.397 100.384 49.5619 99.7416 49.472 99.1094L47.0466 82.0488C46.9567 81.4166 46.6194 80.8461 46.1089 80.4626C45.5983 80.0791 44.9563 79.9142 44.3241 80.0041C43.6919 80.0939 43.1213 80.4313 42.7379 80.9418C42.3544 81.4524 42.1895 82.0944 42.2793 82.7266L44.7048 99.7871C44.7946 100.419 45.132 100.99 45.6425 101.373Z" fill="#7749F8" stroke="#FAFAFA"/>
<path d="M51.8608 76.5739L51.5605 76.9737L51.8608 76.5739C51.3502 76.1905 50.7082 76.0255 50.0761 76.1154C49.4439 76.2053 48.8733 76.5426 48.4898 77.0532C48.1064 77.5637 47.9414 78.2057 48.0313 78.8379L51.3105 101.904C51.4004 102.536 51.7377 103.107 52.2483 103.49C52.7589 103.874 53.4009 104.039 54.033 103.949C54.6652 103.859 55.2358 103.522 55.6193 103.011C56.0028 102.501 56.1677 101.859 56.0778 101.227L52.7986 78.1602C52.7087 77.528 52.3714 76.9574 51.8608 76.5739Z" fill="#7749F8" stroke="#FAFAFA"/>
<path d="M60.8604 107.808L60.8637 107.807C61.4958 107.717 62.0664 107.38 62.4499 106.869C62.8334 106.359 62.9983 105.717 62.9084 105.085L58.2849 72.5625C58.195 71.9303 57.8577 71.3597 57.3471 70.9763C56.8366 70.5928 56.1946 70.4279 55.5624 70.5177C54.9302 70.6076 54.3596 70.9449 53.9761 71.4555C53.5927 71.9661 53.4277 72.6081 53.5176 73.2402L58.1411 105.762L58.1416 105.766C58.2353 106.395 58.5732 106.962 59.082 107.344C59.5909 107.727 60.2298 107.893 60.8604 107.808Z" fill="#7749F8" stroke="#FAFAFA"/>
<path d="M88.9023 95.221C89.4129 95.6045 90.0549 95.7694 90.687 95.6795C91.3192 95.5897 91.8898 95.2523 92.2733 94.7418C92.6567 94.2312 92.8217 93.5892 92.7318 92.957L90.3064 75.8965C90.2165 75.2643 89.8792 74.6937 89.3686 74.3103C88.858 73.9268 88.2161 73.7618 87.5839 73.8517C86.9517 73.9416 86.3811 74.2789 85.9976 74.7895C85.6142 75.3001 85.4492 75.942 85.5391 76.5742L87.9645 93.6348C88.0544 94.267 88.3917 94.8375 88.9023 95.221Z" fill="#7749F8" stroke="#FAFAFA"/>
<path d="M82.7226 96.0999C83.2332 96.4834 83.8752 96.6483 84.5074 96.5585C85.1395 96.4686 85.7101 96.1312 86.0936 95.6207C86.4771 95.1101 86.642 94.4681 86.5521 93.8359L84.1267 76.7754C84.0368 76.1432 83.6995 75.5726 83.1889 75.1892C82.6784 74.8057 82.0364 74.6407 81.4042 74.7306C80.772 74.8205 80.2014 75.1578 79.8179 75.6684C79.4345 76.179 79.2695 76.821 79.3594 77.4531L81.7848 94.5137C81.8747 95.1459 82.212 95.7164 82.7226 96.0999Z" fill="#7749F8" stroke="#FAFAFA"/>
<path d="M76.5796 73.0583L76.2793 73.4581L76.5796 73.0583C76.069 72.6748 75.427 72.5099 74.7948 72.5998C74.1626 72.6896 73.592 73.027 73.2086 73.5375C72.8251 74.0481 72.6602 74.6901 72.75 75.3223L76.0293 98.3886C76.1192 99.0208 76.4565 99.5914 76.9671 99.9749C77.4776 100.358 78.1196 100.523 78.7518 100.433C79.384 100.344 79.9546 100.006 80.338 99.4956C80.7215 98.9851 80.8864 98.3431 80.7966 97.7109L77.5173 74.6445C77.4274 74.0123 77.0901 73.4418 76.5796 73.0583Z" fill="#7749F8" stroke="#FAFAFA"/>
<path d="M71.4559 105.591C71.9664 105.974 72.6084 106.139 73.2406 106.049C73.8728 105.959 74.4434 105.622 74.8268 105.111C75.2103 104.601 75.3753 103.959 75.2854 103.327L70.6619 70.8047C70.572 70.1725 70.2347 69.6019 69.7241 69.2185C69.2135 68.835 68.5715 68.67 67.9393 68.7599C67.3072 68.8498 66.7366 69.1871 66.3531 69.6977C65.9696 70.2083 65.8047 70.8503 65.8946 71.4824L70.5181 104.004C70.608 104.637 70.9453 105.207 71.4559 105.591Z" fill="#7749F8" stroke="#FAFAFA"/>
<path d="M69.4992 111.995L69.0994 111.695L69.4992 111.995C69.8826 111.484 70.0476 110.843 69.9577 110.21L63.6247 65.6641C63.5349 65.0319 63.1975 64.4613 62.687 64.0778L62.3867 64.4776L62.687 64.0778C62.1764 63.6943 61.5344 63.5294 60.9022 63.6193C60.2701 63.7092 59.6995 64.0465 59.316 64.5571C58.9325 65.0676 58.7676 65.7096 58.8575 66.3418L65.1904 110.888C65.2803 111.52 65.6176 112.091 66.1282 112.474L66.4277 112.076L66.1282 112.474C66.6388 112.858 67.2807 113.023 67.9129 112.933C68.5451 112.843 69.1157 112.506 69.4992 111.995Z" fill="#7749F8" stroke="#FAFAFA"/>
<rect x="100.268" y="104.371" width="136.496" height="117.678" rx="8" fill="#263238"/>
<path d="M100.768 112.371C100.768 108.229 104.125 104.871 108.268 104.871H168.532H228.797C232.939 104.871 236.297 108.229 236.297 112.371V186.156C236.297 190.303 232.932 193.663 228.785 193.656L168.533 193.554H168.532L108.28 193.656C104.133 193.663 100.768 190.303 100.768 186.156V112.371Z" fill="#7749F8" stroke="white"/>
<path d="M185.496 149.836L161.314 164.726C158.464 166.483 154 165.055 154 162.388V132.607C153.999 132.011 154.243 131.426 154.702 130.924C155.161 130.422 155.816 130.024 156.588 129.778C157.36 129.531 158.217 129.446 159.056 129.533C159.895 129.621 160.68 129.876 161.318 130.27L185.491 145.16C185.965 145.451 186.345 145.811 186.605 146.214C186.865 146.617 187 147.055 187 147.498C187 147.941 186.865 148.378 186.605 148.782C186.345 149.185 185.965 149.544 185.491 149.836H185.496Z" fill="white"/>
<path d="M68.0774 229.426L75.9349 224.889V233.972L68.0774 229.426Z" fill="#7749F8" stroke="#FAFAFA"/>
<path d="M64.4648 234.314V224.266H65.1682V234.314H64.4648Z" fill="#7749F8" stroke="#FAFAFA"/>
<path d="M126.473 224.889L134.341 229.426L126.473 233.972V224.889Z" fill="#7749F8" stroke="#FAFAFA"/>
<path d="M137.252 234.314V224.266H137.955V234.314H137.252Z" fill="#7749F8" stroke="#FAFAFA"/>
<path d="M99.7106 236.201H100.211V235.701V220.534V220.034H99.7106H95.4289H94.9289V220.534V235.701V236.201H95.4289H99.7106ZM108.076 236.201H108.576V235.701V220.534V220.034H108.076H103.794H103.294V220.534V235.701V236.201H103.794H108.076ZM94.0316 216.563C96.3169 215.036 99.0037 214.221 101.752 214.221C105.438 214.221 108.973 215.685 111.579 218.291C114.185 220.897 115.649 224.432 115.649 228.117C115.649 230.866 114.834 233.553 113.307 235.838C111.78 238.123 109.61 239.905 107.07 240.956C104.531 242.008 101.737 242.283 99.0411 241.747C96.3454 241.211 93.8692 239.887 91.9257 237.944C89.9822 236 88.6587 233.524 88.1225 230.829C87.5863 228.133 87.8615 225.339 88.9133 222.799C89.9651 220.26 91.7463 218.09 94.0316 216.563Z" fill="#7749F8" stroke="#FAFAFA"/>
<path d="M240.2 249.941V249.441H239.7H226.289H225.789V249.941V254.819V255.319H226.289H239.7H240.2V254.819V249.941Z" fill="#7749F8" stroke="#FAFAFA"/>
<path d="M240.2 243.035V242.535H239.7H226.289H225.789V243.035V247.913V248.413H226.289H239.7H240.2V247.913V243.035Z" fill="#7749F8" stroke="#FAFAFA"/>
<path d="M240.2 236.129V235.629H239.7H226.289H225.789V236.129V241.007V241.507H226.289H239.7H240.2V241.007V236.129Z" fill="#7749F8" stroke="#FAFAFA"/>
<path d="M240.2 229.223V228.723H239.7H226.289H225.789V229.223V234.1V234.6H226.289H239.7H240.2V234.1V229.223Z" fill="#7749F8" stroke="#FAFAFA"/>
<path d="M274.932 249.941V249.441H274.432H261.021H260.521V249.941V254.819V255.319H261.021H274.432H274.932V254.819V249.941Z" fill="#7749F8" stroke="#FAFAFA"/>
<path d="M274.932 243.035V242.535H274.432H261.021H260.521V243.035V247.913V248.413H261.021H274.432H274.932V247.913V243.035Z" fill="#7749F8" stroke="#FAFAFA"/>
<path d="M205.457 249.941V249.441H204.957H191.547H191.047V249.941V254.819V255.319H191.547H204.957H205.457V254.819V249.941Z" fill="#7749F8" stroke="#FAFAFA"/>
<path d="M205.457 243.035V242.535H204.957H191.547H191.047V243.035V247.913V248.413H191.547H204.957H205.457V247.913V243.035Z" fill="#7749F8" stroke="#FAFAFA"/>
<path d="M222.821 249.941V249.441H222.321H208.91H208.41V249.941V254.819V255.319H208.91H222.321H222.821V254.819V249.941Z" fill="#7749F8" stroke="#FAFAFA"/>
<path d="M222.821 243.035V242.535H222.321H208.91H208.41V243.035V247.913V248.413H208.91H222.321H222.821V247.913V243.035Z" fill="#7749F8" stroke="#FAFAFA"/>
<path d="M222.821 236.129V235.629H222.321H208.91H208.41V236.129V241.007V241.507H208.91H222.321H222.821V241.007V236.129Z" fill="#7749F8" stroke="#FAFAFA"/>
<path d="M222.821 229.223V228.723H222.321H208.91H208.41V229.223V234.1V234.6H208.91H222.321H222.821V234.1V229.223Z" fill="#7749F8" stroke="#FAFAFA"/>
<path d="M222.821 222.312V221.812H222.321H208.91H208.41V222.312V227.19V227.69H208.91H222.321H222.821V227.19V222.312Z" fill="#7749F8" stroke="#FAFAFA"/>
<path d="M222.821 215.406V214.906H222.321H208.91H208.41V215.406V220.284V220.784H208.91H222.321H222.821V220.284V215.406Z" fill="#7749F8" stroke="#FAFAFA"/>
<path d="M222.821 208.5V208H222.321H208.91H208.41V208.5V213.378V213.878H208.91H222.321H222.821V213.378V208.5Z" fill="#7749F8" stroke="#FAFAFA"/>
<path d="M257.569 249.941V249.441H257.069H243.658H243.158V249.941V254.819V255.319H243.658H257.069H257.569V254.819V249.941Z" fill="#7749F8" stroke="#FAFAFA"/>
<path d="M257.569 243.035V242.535H257.069H243.658H243.158V243.035V247.913V248.413H243.658H257.069H257.569V247.913V243.035Z" fill="#7749F8" stroke="#FAFAFA"/>
<path d="M257.569 236.129V235.629H257.069H243.658H243.158V236.129V241.007V241.507H243.658H257.069H257.569V241.007V236.129Z" fill="#7749F8" stroke="#FAFAFA"/>
<path d="M257.569 229.223V228.723H257.069H243.658H243.158V229.223V234.1V234.6H243.658H257.069H257.569V234.1V229.223Z" fill="#7749F8" stroke="#FAFAFA"/>
<path d="M257.569 222.312V221.812H257.069H243.658H243.158V222.312V227.19V227.69H243.658H257.069H257.569V227.19V222.312Z" fill="#7749F8" stroke="#FAFAFA"/>
<path d="M257.569 215.406V214.906H257.069H243.658H243.158V215.406V220.284V220.784H243.658H257.069H257.569V220.284V215.406Z" fill="#7749F8" stroke="#FAFAFA"/>
</svg>
