<svg width="20" height="21" viewBox="0 0 20 21" fill="none" xmlns="http://www.w3.org/2000/svg">
<path d="M11.1122 13.658C11.2622 12.4581 12.117 11.522 13.2125 11.3576C13.8409 11.2634 14.5234 11.1855 15.0638 11.1855C15.6041 11.1855 16.2867 11.2634 16.915 11.3576C18.0106 11.522 18.8653 12.4581 19.0153 13.658C19.1014 14.3462 19.1725 15.0937 19.1725 15.6855C19.1725 16.2774 19.1014 17.0249 19.0153 17.7131C18.8653 18.913 18.0106 19.8491 16.915 20.0135C16.2867 20.1077 15.6041 20.1855 15.0638 20.1855C14.5234 20.1855 13.8409 20.1077 13.2125 20.0135C12.117 19.8491 11.2622 18.913 11.1122 17.7131C11.0261 17.0249 10.9551 16.2774 10.9551 15.6855C10.9551 15.0937 11.0261 14.3462 11.1122 13.658Z" fill="#7749F8"/>
<path d="M1.06924 13.658C1.21928 12.4581 2.07399 11.522 3.16955 11.3576C3.79792 11.2634 4.48043 11.1855 5.02081 11.1855C5.56118 11.1855 6.24369 11.2634 6.87206 11.3576C7.96762 11.522 8.82233 12.4581 8.97237 13.658C9.05843 14.3462 9.1295 15.0937 9.1295 15.6855C9.1295 16.2774 9.05843 17.0249 8.97237 17.7131C8.82233 18.913 7.96762 19.8491 6.87206 20.0135C6.24369 20.1077 5.56118 20.1855 5.02081 20.1855C4.48043 20.1855 3.79792 20.1077 3.16955 20.0135C2.07399 19.8491 1.21928 18.913 1.06924 17.7131C0.983179 17.0249 0.912109 16.2774 0.912109 15.6855C0.912109 15.0937 0.983179 14.3462 1.06924 13.658Z" fill="#7749F8"/>
<path d="M11.1122 2.65798C11.2622 1.45808 12.117 0.52197 13.2125 0.357639C13.8409 0.263385 14.5234 0.185547 15.0638 0.185547C15.6041 0.185547 16.2867 0.263385 16.915 0.357639C18.0106 0.52197 18.8653 1.45808 19.0153 2.65798C19.1014 3.34619 19.1725 4.09371 19.1725 4.68555C19.1725 5.27739 19.1014 6.0249 19.0153 6.71311C18.8653 7.91301 18.0106 8.84912 16.915 9.01346C16.2867 9.10771 15.6041 9.18555 15.0638 9.18555C14.5234 9.18555 13.8409 9.10771 13.2125 9.01346C12.117 8.84912 11.2622 7.91301 11.1122 6.71311C11.0261 6.0249 10.9551 5.27739 10.9551 4.68555C10.9551 4.09371 11.0261 3.34619 11.1122 2.65798Z" fill="#7749F8"/>
<path d="M1.06924 2.65798C1.21928 1.45808 2.07399 0.52197 3.16955 0.357639C3.79792 0.263385 4.48043 0.185547 5.02081 0.185547C5.56118 0.185547 6.24369 0.263385 6.87206 0.357639C7.96762 0.52197 8.82233 1.45808 8.97237 2.65798C9.05843 3.34619 9.1295 4.09371 9.1295 4.68555C9.1295 5.27739 9.05843 6.0249 8.97237 6.71311C8.82233 7.91301 7.96762 8.84912 6.87206 9.01346C6.24369 9.10771 5.56118 9.18555 5.02081 9.18555C4.48043 9.18555 3.79792 9.10771 3.16955 9.01346C2.07399 8.84912 1.21928 7.91301 1.06924 6.71311C0.983179 6.0249 0.912109 5.27739 0.912109 4.68555C0.912109 4.09371 0.983179 3.34619 1.06924 2.65798Z" fill="#7749F8"/>
</svg>
