<svg width="15" height="18" viewBox="0 0 15 18" fill="none" xmlns="http://www.w3.org/2000/svg">
<mask id="path-1-outside-1_1149_18065" maskUnits="userSpaceOnUse" x="0" y="0" width="15" height="18" fill="black">
<rect fill="white" width="15" height="18"/>
<path d="M7.27204 12.7479C7.20749 12.7211 7.14887 12.6818 7.09952 12.6324L6.91587 12.4487L3.91202 9.44488C3.81227 9.34512 3.75623 9.20982 3.75623 9.06875C3.75623 8.92768 3.81227 8.79238 3.91202 8.69263C4.01178 8.59287 4.14707 8.53683 4.28815 8.53683C4.42922 8.53683 4.56452 8.59287 4.66427 8.69263L5.71433 9.74318L6.48332 10.5125L6.9444 10.9738V1.63125C6.9444 1.49035 7.00037 1.35523 7.1 1.2556C7.19963 1.15597 7.33475 1.1 7.47565 1.1C7.61654 1.1 7.75167 1.15597 7.8513 1.2556C7.95093 1.35523 8.0069 1.49035 8.0069 1.63125V10.9738L10.287 8.69263C10.3868 8.59287 10.5221 8.53683 10.6631 8.53683C10.8042 8.53683 10.9395 8.59287 11.0393 8.69263C11.139 8.79238 11.1951 8.92768 11.1951 9.06875C11.1951 9.20982 11.139 9.34512 11.0393 9.44488L7.86651 12.6176L7.85177 12.6324C7.80242 12.6818 7.7438 12.7211 7.67926 12.7479C7.67311 12.7504 7.66693 12.7529 7.6607 12.7552C7.60776 12.7749 7.55201 12.786 7.49557 12.7881C7.48894 12.7883 7.4823 12.7885 7.47565 12.7885C7.40577 12.7885 7.33658 12.7747 7.27204 12.7479Z"/>
<path d="M2.31808 6.5681C2.4177 6.46847 2.55283 6.4125 2.69373 6.4125H4.81873C4.95962 6.4125 5.09475 6.35653 5.19438 6.2569C5.294 6.15727 5.34998 6.02215 5.34998 5.88125C5.34998 5.74035 5.294 5.60523 5.19438 5.5056C5.09475 5.40597 4.95962 5.35 4.81873 5.35H2.69373C2.27104 5.35 1.86566 5.51791 1.56677 5.8168C1.26789 6.11568 1.09998 6.52106 1.09998 6.94375V15.4438C1.09998 15.8664 1.26789 16.2718 1.56677 16.5707C1.86566 16.8696 2.27104 17.0375 2.69373 17.0375H12.2562C12.6789 17.0375 13.0843 16.8696 13.3832 16.5707C13.6821 16.2718 13.85 15.8664 13.85 15.4438V6.94375C13.85 6.52106 13.6821 6.11568 13.3832 5.8168C13.0843 5.51791 12.6789 5.35 12.2562 5.35H10.1312C9.99033 5.35 9.8552 5.40597 9.75558 5.5056C9.65595 5.60523 9.59998 5.74035 9.59998 5.88125C9.59998 6.02215 9.65595 6.15727 9.75558 6.2569C9.8552 6.35653 9.99033 6.4125 10.1312 6.4125H12.2562C12.3971 6.4125 12.5322 6.46847 12.6319 6.5681C12.7315 6.66773 12.7875 6.80285 12.7875 6.94375V15.4438C12.7875 15.5846 12.7315 15.7198 12.6319 15.8194C12.5322 15.919 12.3971 15.975 12.2562 15.975H2.69373C2.55283 15.975 2.4177 15.919 2.31808 15.8194C2.21845 15.7198 2.16248 15.5846 2.16248 15.4438V6.94375C2.16248 6.80285 2.21845 6.66773 2.31808 6.5681Z"/>
<path d="M5.71433 9.74318L6.48332 10.5125L6.21201 10.0996L5.60127 9.48858L5.71433 9.74318Z"/>
<path d="M6.91587 12.4487L3.91202 9.44488C3.81227 9.34512 3.75623 9.20982 3.75623 9.06875C3.75623 8.92768 3.81227 8.79238 3.91202 8.69263C4.01178 8.59287 4.14707 8.53683 4.28815 8.53683C4.42922 8.53683 4.56452 8.59287 4.66427 8.69263L5.71433 9.74318L5.60127 9.48858L4.73502 8.62193C4.61652 8.50342 4.45577 8.43683 4.28817 8.43683C4.12058 8.43683 3.95984 8.50341 3.84134 8.62191C3.72283 8.74042 3.65625 8.90115 3.65625 9.06875C3.65625 9.23635 3.72283 9.39708 3.84134 9.51559L7.02884 12.7031L6.91587 12.4487Z"/>
<path d="M6.9444 10.9738V1.63125C6.9444 1.49035 7.00037 1.35523 7.1 1.2556C7.19963 1.15597 7.33475 1.1 7.47565 1.1C7.61654 1.1 7.75167 1.15597 7.8513 1.2556C7.95093 1.35523 8.0069 1.49035 8.0069 1.63125V10.9738L10.287 8.69263C10.3868 8.59287 10.5221 8.53683 10.6631 8.53683C10.8042 8.53683 10.9395 8.59287 11.0393 8.69263C11.139 8.79238 11.1951 8.92768 11.1951 9.06875C11.1951 9.20982 11.139 9.34512 11.0393 9.44488L7.86651 12.6176L7.9226 12.703L11.11 9.51559C11.2285 9.39708 11.2951 9.23635 11.2951 9.06875C11.2951 8.90115 11.2285 8.74042 11.11 8.62191C10.9915 8.50341 10.8308 8.43683 10.6632 8.43683C10.4956 8.43683 10.3348 8.50342 10.2163 8.62193L8.10692 10.7323V1.63125C8.10692 1.46383 8.04041 1.30327 7.92203 1.18489C7.80365 1.06651 7.64309 1 7.47567 1C7.30825 1 7.14769 1.06651 7.02931 1.18489C6.91093 1.30327 6.84442 1.46383 6.84442 1.63125V10.7323L6.21201 10.0996L6.48332 10.5125L6.9444 10.9738Z"/>
<path d="M7.27204 12.7479C7.20749 12.7211 7.14887 12.6818 7.09952 12.6324L6.91587 12.4487L7.02884 12.7031L7.23373 12.8402L7.49557 12.7881C7.48894 12.7883 7.4823 12.7885 7.47565 12.7885C7.40577 12.7885 7.33658 12.7747 7.27204 12.7479Z"/>
<path d="M7.71761 12.8402C7.79426 12.8084 7.86398 12.7617 7.9226 12.703L7.6607 12.7552C7.60776 12.7749 7.55201 12.786 7.49557 12.7881L7.23373 12.8402C7.31042 12.8721 7.39264 12.8885 7.47567 12.8885C7.5587 12.8885 7.64092 12.8721 7.71761 12.8402Z"/>
<path d="M7.02884 12.7031C7.08745 12.7618 7.15708 12.8084 7.23373 12.8402L7.02884 12.7031Z"/>
<path d="M7.85177 12.6324C7.80242 12.6818 7.7438 12.7211 7.67926 12.7479C7.67311 12.7504 7.66693 12.7529 7.6607 12.7552L7.9226 12.703L7.86651 12.6176L7.85177 12.6324Z"/>
<path fill-rule="evenodd" clip-rule="evenodd" d="M2.38881 6.63881C2.46969 6.55794 2.57938 6.5125 2.69375 6.5125H4.81875C4.98617 6.5125 5.14673 6.44599 5.26511 6.32761C5.38349 6.20923 5.45 6.04867 5.45 5.88125C5.45 5.71383 5.38349 5.55327 5.26511 5.43489C5.14673 5.31651 4.98617 5.25 4.81875 5.25H2.69375C2.24454 5.25 1.81373 5.42845 1.49609 5.74609C1.17845 6.06373 1 6.49454 1 6.94375V15.4438C1 15.893 1.17845 16.3238 1.49609 16.6414C1.81373 16.9591 2.24454 17.1375 2.69375 17.1375H12.2563C12.7055 17.1375 13.1363 16.9591 13.4539 16.6414C13.7716 16.3238 13.95 15.893 13.95 15.4438V6.94375C13.95 6.49454 13.7716 6.06373 13.4539 5.74609C13.1363 5.42845 12.7055 5.25 12.2563 5.25H10.1313C9.96383 5.25 9.80327 5.31651 9.68489 5.43489C9.56651 5.55327 9.5 5.71383 9.5 5.88125C9.5 6.04867 9.56651 6.20923 9.68489 6.32761C9.80327 6.44599 9.96383 6.5125 10.1313 6.5125H12.2563C12.3706 6.5125 12.4803 6.55794 12.5612 6.63881C12.6421 6.71969 12.6875 6.82938 12.6875 6.94375V15.4438C12.6875 15.5581 12.6421 15.6678 12.5612 15.7487C12.4803 15.8296 12.3706 15.875 12.2563 15.875H2.69375C2.57938 15.875 2.46969 15.8296 2.38881 15.7487C2.30794 15.6678 2.2625 15.5581 2.2625 15.4438V6.94375C2.2625 6.82938 2.30794 6.71969 2.38881 6.63881ZM2.31808 6.5681C2.4177 6.46847 2.55283 6.4125 2.69373 6.4125H4.81873C4.95962 6.4125 5.09475 6.35653 5.19438 6.2569C5.294 6.15727 5.34998 6.02215 5.34998 5.88125C5.34998 5.74035 5.294 5.60523 5.19438 5.5056C5.09475 5.40597 4.95962 5.35 4.81873 5.35H2.69373C2.27104 5.35 1.86566 5.51791 1.56677 5.8168C1.26789 6.11568 1.09998 6.52106 1.09998 6.94375V15.4438C1.09998 15.8664 1.26789 16.2718 1.56677 16.5707C1.86566 16.8696 2.27104 17.0375 2.69373 17.0375H12.2562C12.6789 17.0375 13.0843 16.8696 13.3832 16.5707C13.6821 16.2718 13.85 15.8664 13.85 15.4438V6.94375C13.85 6.52106 13.6821 6.11568 13.3832 5.8168C13.0843 5.51791 12.6789 5.35 12.2562 5.35H10.1312C9.99033 5.35 9.8552 5.40597 9.75558 5.5056C9.65595 5.60523 9.59998 5.74035 9.59998 5.88125C9.59998 6.02215 9.65595 6.15727 9.75558 6.2569C9.8552 6.35653 9.99033 6.4125 10.1312 6.4125H12.2562C12.3971 6.4125 12.5322 6.46847 12.6319 6.5681C12.7315 6.66773 12.7875 6.80285 12.7875 6.94375V15.4438C12.7875 15.5846 12.7315 15.7198 12.6319 15.8194C12.5322 15.919 12.3971 15.975 12.2562 15.975H2.69373C2.55283 15.975 2.4177 15.919 2.31808 15.8194C2.21845 15.7198 2.16248 15.5846 2.16248 15.4438V6.94375C2.16248 6.80285 2.21845 6.66773 2.31808 6.5681Z"/>
</mask>
<path d="M7.27204 12.7479C7.20749 12.7211 7.14887 12.6818 7.09952 12.6324L6.91587 12.4487L3.91202 9.44488C3.81227 9.34512 3.75623 9.20982 3.75623 9.06875C3.75623 8.92768 3.81227 8.79238 3.91202 8.69263C4.01178 8.59287 4.14707 8.53683 4.28815 8.53683C4.42922 8.53683 4.56452 8.59287 4.66427 8.69263L5.71433 9.74318L6.48332 10.5125L6.9444 10.9738V1.63125C6.9444 1.49035 7.00037 1.35523 7.1 1.2556C7.19963 1.15597 7.33475 1.1 7.47565 1.1C7.61654 1.1 7.75167 1.15597 7.8513 1.2556C7.95093 1.35523 8.0069 1.49035 8.0069 1.63125V10.9738L10.287 8.69263C10.3868 8.59287 10.5221 8.53683 10.6631 8.53683C10.8042 8.53683 10.9395 8.59287 11.0393 8.69263C11.139 8.79238 11.1951 8.92768 11.1951 9.06875C11.1951 9.20982 11.139 9.34512 11.0393 9.44488L7.86651 12.6176L7.85177 12.6324C7.80242 12.6818 7.7438 12.7211 7.67926 12.7479C7.67311 12.7504 7.66693 12.7529 7.6607 12.7552C7.60776 12.7749 7.55201 12.786 7.49557 12.7881C7.48894 12.7883 7.4823 12.7885 7.47565 12.7885C7.40577 12.7885 7.33658 12.7747 7.27204 12.7479Z" fill="#56C456"/>
<path d="M2.31808 6.5681C2.4177 6.46847 2.55283 6.4125 2.69373 6.4125H4.81873C4.95962 6.4125 5.09475 6.35653 5.19438 6.2569C5.294 6.15727 5.34998 6.02215 5.34998 5.88125C5.34998 5.74035 5.294 5.60523 5.19438 5.5056C5.09475 5.40597 4.95962 5.35 4.81873 5.35H2.69373C2.27104 5.35 1.86566 5.51791 1.56677 5.8168C1.26789 6.11568 1.09998 6.52106 1.09998 6.94375V15.4438C1.09998 15.8664 1.26789 16.2718 1.56677 16.5707C1.86566 16.8696 2.27104 17.0375 2.69373 17.0375H12.2562C12.6789 17.0375 13.0843 16.8696 13.3832 16.5707C13.6821 16.2718 13.85 15.8664 13.85 15.4438V6.94375C13.85 6.52106 13.6821 6.11568 13.3832 5.8168C13.0843 5.51791 12.6789 5.35 12.2562 5.35H10.1312C9.99033 5.35 9.8552 5.40597 9.75558 5.5056C9.65595 5.60523 9.59998 5.74035 9.59998 5.88125C9.59998 6.02215 9.65595 6.15727 9.75558 6.2569C9.8552 6.35653 9.99033 6.4125 10.1312 6.4125H12.2562C12.3971 6.4125 12.5322 6.46847 12.6319 6.5681C12.7315 6.66773 12.7875 6.80285 12.7875 6.94375V15.4438C12.7875 15.5846 12.7315 15.7198 12.6319 15.8194C12.5322 15.919 12.3971 15.975 12.2562 15.975H2.69373C2.55283 15.975 2.4177 15.919 2.31808 15.8194C2.21845 15.7198 2.16248 15.5846 2.16248 15.4438V6.94375C2.16248 6.80285 2.21845 6.66773 2.31808 6.5681Z" fill="#56C456"/>
<path d="M5.71433 9.74318L6.48332 10.5125L6.21201 10.0996L5.60127 9.48858L5.71433 9.74318Z" fill="#56C456"/>
<path d="M6.91587 12.4487L3.91202 9.44488C3.81227 9.34512 3.75623 9.20982 3.75623 9.06875C3.75623 8.92768 3.81227 8.79238 3.91202 8.69263C4.01178 8.59287 4.14707 8.53683 4.28815 8.53683C4.42922 8.53683 4.56452 8.59287 4.66427 8.69263L5.71433 9.74318L5.60127 9.48858L4.73502 8.62193C4.61652 8.50342 4.45577 8.43683 4.28817 8.43683C4.12058 8.43683 3.95984 8.50341 3.84134 8.62191C3.72283 8.74042 3.65625 8.90115 3.65625 9.06875C3.65625 9.23635 3.72283 9.39708 3.84134 9.51559L7.02884 12.7031L6.91587 12.4487Z" fill="#56C456"/>
<path d="M6.9444 10.9738V1.63125C6.9444 1.49035 7.00037 1.35523 7.1 1.2556C7.19963 1.15597 7.33475 1.1 7.47565 1.1C7.61654 1.1 7.75167 1.15597 7.8513 1.2556C7.95093 1.35523 8.0069 1.49035 8.0069 1.63125V10.9738L10.287 8.69263C10.3868 8.59287 10.5221 8.53683 10.6631 8.53683C10.8042 8.53683 10.9395 8.59287 11.0393 8.69263C11.139 8.79238 11.1951 8.92768 11.1951 9.06875C11.1951 9.20982 11.139 9.34512 11.0393 9.44488L7.86651 12.6176L7.9226 12.703L11.11 9.51559C11.2285 9.39708 11.2951 9.23635 11.2951 9.06875C11.2951 8.90115 11.2285 8.74042 11.11 8.62191C10.9915 8.50341 10.8308 8.43683 10.6632 8.43683C10.4956 8.43683 10.3348 8.50342 10.2163 8.62193L8.10692 10.7323V1.63125C8.10692 1.46383 8.04041 1.30327 7.92203 1.18489C7.80365 1.06651 7.64309 1 7.47567 1C7.30825 1 7.14769 1.06651 7.02931 1.18489C6.91093 1.30327 6.84442 1.46383 6.84442 1.63125V10.7323L6.21201 10.0996L6.48332 10.5125L6.9444 10.9738Z" fill="#56C456"/>
<path d="M7.27204 12.7479C7.20749 12.7211 7.14887 12.6818 7.09952 12.6324L6.91587 12.4487L7.02884 12.7031L7.23373 12.8402L7.49557 12.7881C7.48894 12.7883 7.4823 12.7885 7.47565 12.7885C7.40577 12.7885 7.33658 12.7747 7.27204 12.7479Z" fill="#56C456"/>
<path d="M7.71761 12.8402C7.79426 12.8084 7.86398 12.7617 7.9226 12.703L7.6607 12.7552C7.60776 12.7749 7.55201 12.786 7.49557 12.7881L7.23373 12.8402C7.31042 12.8721 7.39264 12.8885 7.47567 12.8885C7.5587 12.8885 7.64092 12.8721 7.71761 12.8402Z" fill="#56C456"/>
<path d="M7.02884 12.7031C7.08745 12.7618 7.15708 12.8084 7.23373 12.8402L7.02884 12.7031Z" fill="#56C456"/>
<path d="M7.85177 12.6324C7.80242 12.6818 7.7438 12.7211 7.67926 12.7479C7.67311 12.7504 7.66693 12.7529 7.6607 12.7552L7.9226 12.703L7.86651 12.6176L7.85177 12.6324Z" fill="#56C456"/>
<path fill-rule="evenodd" clip-rule="evenodd" d="M2.38881 6.63881C2.46969 6.55794 2.57938 6.5125 2.69375 6.5125H4.81875C4.98617 6.5125 5.14673 6.44599 5.26511 6.32761C5.38349 6.20923 5.45 6.04867 5.45 5.88125C5.45 5.71383 5.38349 5.55327 5.26511 5.43489C5.14673 5.31651 4.98617 5.25 4.81875 5.25H2.69375C2.24454 5.25 1.81373 5.42845 1.49609 5.74609C1.17845 6.06373 1 6.49454 1 6.94375V15.4438C1 15.893 1.17845 16.3238 1.49609 16.6414C1.81373 16.9591 2.24454 17.1375 2.69375 17.1375H12.2563C12.7055 17.1375 13.1363 16.9591 13.4539 16.6414C13.7716 16.3238 13.95 15.893 13.95 15.4438V6.94375C13.95 6.49454 13.7716 6.06373 13.4539 5.74609C13.1363 5.42845 12.7055 5.25 12.2563 5.25H10.1313C9.96383 5.25 9.80327 5.31651 9.68489 5.43489C9.56651 5.55327 9.5 5.71383 9.5 5.88125C9.5 6.04867 9.56651 6.20923 9.68489 6.32761C9.80327 6.44599 9.96383 6.5125 10.1313 6.5125H12.2563C12.3706 6.5125 12.4803 6.55794 12.5612 6.63881C12.6421 6.71969 12.6875 6.82938 12.6875 6.94375V15.4438C12.6875 15.5581 12.6421 15.6678 12.5612 15.7487C12.4803 15.8296 12.3706 15.875 12.2563 15.875H2.69375C2.57938 15.875 2.46969 15.8296 2.38881 15.7487C2.30794 15.6678 2.2625 15.5581 2.2625 15.4438V6.94375C2.2625 6.82938 2.30794 6.71969 2.38881 6.63881ZM2.31808 6.5681C2.4177 6.46847 2.55283 6.4125 2.69373 6.4125H4.81873C4.95962 6.4125 5.09475 6.35653 5.19438 6.2569C5.294 6.15727 5.34998 6.02215 5.34998 5.88125C5.34998 5.74035 5.294 5.60523 5.19438 5.5056C5.09475 5.40597 4.95962 5.35 4.81873 5.35H2.69373C2.27104 5.35 1.86566 5.51791 1.56677 5.8168C1.26789 6.11568 1.09998 6.52106 1.09998 6.94375V15.4438C1.09998 15.8664 1.26789 16.2718 1.56677 16.5707C1.86566 16.8696 2.27104 17.0375 2.69373 17.0375H12.2562C12.6789 17.0375 13.0843 16.8696 13.3832 16.5707C13.6821 16.2718 13.85 15.8664 13.85 15.4438V6.94375C13.85 6.52106 13.6821 6.11568 13.3832 5.8168C13.0843 5.51791 12.6789 5.35 12.2562 5.35H10.1312C9.99033 5.35 9.8552 5.40597 9.75558 5.5056C9.65595 5.60523 9.59998 5.74035 9.59998 5.88125C9.59998 6.02215 9.65595 6.15727 9.75558 6.2569C9.8552 6.35653 9.99033 6.4125 10.1312 6.4125H12.2562C12.3971 6.4125 12.5322 6.46847 12.6319 6.5681C12.7315 6.66773 12.7875 6.80285 12.7875 6.94375V15.4438C12.7875 15.5846 12.7315 15.7198 12.6319 15.8194C12.5322 15.919 12.3971 15.975 12.2562 15.975H2.69373C2.55283 15.975 2.4177 15.919 2.31808 15.8194C2.21845 15.7198 2.16248 15.5846 2.16248 15.4438V6.94375C2.16248 6.80285 2.21845 6.66773 2.31808 6.5681Z" fill="#56C456"/>
<path d="M7.09952 12.6324L7.13492 12.5971L7.13488 12.597L7.09952 12.6324ZM7.27204 12.7479L7.2912 12.7017H7.2912L7.27204 12.7479ZM3.91202 9.44488L3.94738 9.40952L3.91202 9.44488ZM3.91202 8.69263L3.87667 8.65727V8.65727L3.91202 8.69263ZM4.66427 8.69263L4.69964 8.65728L4.69963 8.65727L4.66427 8.69263ZM6.9444 10.9738L6.90903 11.0092L6.9944 11.0946V10.9738H6.9444ZM7.1 1.2556L7.06464 1.22024L7.06464 1.22024L7.1 1.2556ZM7.8513 1.2556L7.88665 1.22024L7.88665 1.22024L7.8513 1.2556ZM8.0069 10.9738H7.9569V11.0946L8.04226 11.0092L8.0069 10.9738ZM10.287 8.69263L10.2517 8.65727L10.2517 8.65728L10.287 8.69263ZM11.0393 8.69263L11.0746 8.65727V8.65727L11.0393 8.69263ZM7.85177 12.6324L7.81642 12.597L7.81637 12.5971L7.85177 12.6324ZM7.67926 12.7479L7.66009 12.7017H7.66009L7.67926 12.7479ZM2.31808 6.5681L2.28272 6.53274V6.53274L2.31808 6.5681ZM5.19438 6.2569L5.22973 6.29226L5.22973 6.29226L5.19438 6.2569ZM5.19438 5.5056L5.22973 5.47024L5.22973 5.47024L5.19438 5.5056ZM1.56677 5.8168L1.53142 5.78144V5.78144L1.56677 5.8168ZM1.56677 16.5707L1.60213 16.5353H1.60213L1.56677 16.5707ZM13.3832 16.5707L13.3478 16.5353L13.3832 16.5707ZM13.3832 5.8168L13.3478 5.85215V5.85215L13.3832 5.8168ZM9.75558 5.5056L9.79093 5.54096L9.75558 5.5056ZM9.75558 6.2569L9.79093 6.22155L9.75558 6.2569ZM12.6319 6.5681L12.5965 6.60346L12.6319 6.5681ZM12.6319 15.8194L12.5965 15.784L12.6319 15.8194ZM2.31808 15.8194L2.35343 15.784H2.35343L2.31808 15.8194ZM7.9226 12.703L7.93237 12.752L8.00512 12.7375L7.96438 12.6755L7.9226 12.703ZM7.02884 12.7031L6.98314 12.7234L6.98901 12.7366L7.00102 12.7446L7.02884 12.7031ZM7.23373 12.8402L7.20592 12.8818L7.22316 12.8933L7.2435 12.8893L7.23373 12.8402ZM6.21201 10.0996L6.25468 10.0716L6.24738 10.0643L6.21201 10.0996ZM7.06412 12.6677C7.11811 12.7218 7.18226 12.7648 7.25287 12.7941L7.2912 12.7017C7.23273 12.6774 7.17963 12.6419 7.13492 12.5971L7.06412 12.6677ZM3.70623 9.06875C3.70623 9.22309 3.76754 9.3711 3.87667 9.48023L3.94738 9.40952C3.857 9.31914 3.80623 9.19656 3.80623 9.06875H3.70623ZM3.87667 8.65727C3.76754 8.7664 3.70623 8.91442 3.70623 9.06875H3.80623C3.80623 8.94094 3.857 8.81836 3.94738 8.72798L3.87667 8.65727ZM4.28815 8.48683C4.13381 8.48683 3.9858 8.54814 3.87667 8.65727L3.94738 8.72798C4.03775 8.6376 4.16033 8.58683 4.28815 8.58683V8.48683ZM4.69963 8.65727C4.5905 8.54814 4.44248 8.48683 4.28815 8.48683V8.58683C4.41596 8.58683 4.53854 8.6376 4.62892 8.72798L4.69963 8.65727ZM6.8944 1.63125V10.9738H6.9944V1.63125H6.8944ZM7.06464 1.22024C6.95564 1.32925 6.8944 1.47709 6.8944 1.63125H6.9944C6.9944 1.50362 7.0451 1.38121 7.13535 1.29096L7.06464 1.22024ZM7.47565 1.05C7.32149 1.05 7.17365 1.11124 7.06464 1.22024L7.13535 1.29096C7.2256 1.2007 7.34801 1.15 7.47565 1.15V1.05ZM7.88665 1.22024C7.77765 1.11124 7.6298 1.05 7.47565 1.05V1.15C7.60328 1.15 7.72569 1.2007 7.81594 1.29096L7.88665 1.22024ZM8.0569 1.63125C8.0569 1.47709 7.99566 1.32925 7.88665 1.22024L7.81594 1.29096C7.90619 1.38121 7.9569 1.50361 7.9569 1.63125H8.0569ZM8.0569 10.9738V1.63125H7.9569V10.9738H8.0569ZM10.2517 8.65728L7.97153 10.9385L8.04226 11.0092L10.3224 8.72797L10.2517 8.65728ZM10.6631 8.48683C10.5088 8.48683 10.3608 8.54814 10.2517 8.65727L10.3224 8.72798C10.4128 8.6376 10.5353 8.58683 10.6631 8.58683V8.48683ZM11.0746 8.65727C10.9655 8.54814 10.8175 8.48683 10.6631 8.48683V8.58683C10.791 8.58683 10.9135 8.6376 11.0039 8.72798L11.0746 8.65727ZM11.2451 9.06875C11.2451 8.91442 11.1838 8.7664 11.0746 8.65727L11.0039 8.72798C11.0943 8.81836 11.1451 8.94094 11.1451 9.06875H11.2451ZM11.0746 9.48023C11.1838 9.3711 11.2451 9.22309 11.2451 9.06875H11.1451C11.1451 9.19656 11.0943 9.31914 11.0039 9.40952L11.0746 9.48023ZM7.69842 12.7941C7.76904 12.7648 7.83318 12.7218 7.88717 12.6677L7.81637 12.5971C7.77167 12.6419 7.71856 12.6774 7.66009 12.7017L7.69842 12.7941ZM7.25287 12.7941C7.32349 12.8234 7.39919 12.8385 7.47565 12.8385V12.7385C7.41235 12.7385 7.34967 12.726 7.2912 12.7017L7.25287 12.7941ZM2.69373 6.3625C2.53957 6.3625 2.39173 6.42374 2.28272 6.53274L2.35343 6.60346C2.44368 6.5132 2.56609 6.4625 2.69373 6.4625V6.3625ZM4.81873 6.3625H2.69373V6.4625H4.81873V6.3625ZM5.15902 6.22155C5.06877 6.3118 4.94636 6.3625 4.81873 6.3625V6.4625C4.97288 6.4625 5.12073 6.40126 5.22973 6.29226L5.15902 6.22155ZM5.29998 5.88125C5.29998 6.00889 5.24927 6.13129 5.15902 6.22155L5.22973 6.29226C5.33874 6.18325 5.39998 6.03541 5.39998 5.88125H5.29998ZM5.15902 5.54096C5.24927 5.63121 5.29998 5.75361 5.29998 5.88125H5.39998C5.39998 5.72709 5.33874 5.57925 5.22973 5.47024L5.15902 5.54096ZM4.81873 5.4C4.94636 5.4 5.06877 5.4507 5.15902 5.54096L5.22973 5.47024C5.12073 5.36124 4.97288 5.3 4.81873 5.3V5.4ZM2.69373 5.4H4.81873V5.3H2.69373V5.4ZM1.60213 5.85215C1.89164 5.56264 2.2843 5.4 2.69373 5.4V5.3C2.25778 5.3 1.83968 5.47318 1.53142 5.78144L1.60213 5.85215ZM1.14998 6.94375C1.14998 6.53432 1.31262 6.14166 1.60213 5.85215L1.53142 5.78144C1.22316 6.08971 1.04998 6.5078 1.04998 6.94375H1.14998ZM1.14998 15.4438V6.94375H1.04998V15.4438H1.14998ZM1.60213 16.5353C1.31262 16.2458 1.14998 15.8532 1.14998 15.4438H1.04998C1.04998 15.8797 1.22316 16.2978 1.53142 16.6061L1.60213 16.5353ZM2.69373 16.9875C2.2843 16.9875 1.89164 16.8249 1.60213 16.5353L1.53142 16.6061C1.83968 16.9143 2.25778 17.0875 2.69373 17.0875V16.9875ZM12.2562 16.9875H2.69373V17.0875H12.2562V16.9875ZM13.3478 16.5353C13.0583 16.8249 12.6657 16.9875 12.2562 16.9875V17.0875C12.6922 17.0875 13.1103 16.9143 13.4185 16.6061L13.3478 16.5353ZM13.8 15.4438C13.8 15.8532 13.6373 16.2458 13.3478 16.5353L13.4185 16.6061C13.7268 16.2978 13.9 15.8797 13.9 15.4438H13.8ZM13.8 6.94375V15.4438H13.9V6.94375H13.8ZM13.3478 5.85215C13.6373 6.14166 13.8 6.53432 13.8 6.94375H13.9C13.9 6.5078 13.7268 6.08971 13.4185 5.78144L13.3478 5.85215ZM12.2562 5.4C12.6657 5.4 13.0583 5.56264 13.3478 5.85215L13.4185 5.78144C13.1103 5.47318 12.6922 5.3 12.2562 5.3V5.4ZM10.1312 5.4H12.2562V5.3H10.1312V5.4ZM9.79093 5.54096C9.88118 5.4507 10.0036 5.4 10.1312 5.4V5.3C9.97707 5.3 9.82923 5.36124 9.72022 5.47024L9.79093 5.54096ZM9.64998 5.88125C9.64998 5.75361 9.70068 5.63121 9.79093 5.54096L9.72022 5.47024C9.61121 5.57925 9.54998 5.72709 9.54998 5.88125H9.64998ZM9.79093 6.22155C9.70068 6.13129 9.64998 6.00889 9.64998 5.88125H9.54998C9.54998 6.03541 9.61121 6.18325 9.72022 6.29226L9.79093 6.22155ZM10.1312 6.3625C10.0036 6.3625 9.88118 6.3118 9.79093 6.22155L9.72022 6.29226C9.82923 6.40126 9.97707 6.4625 10.1312 6.4625V6.3625ZM12.2562 6.3625H10.1312V6.4625H12.2562V6.3625ZM12.6672 6.53274C12.5582 6.42374 12.4104 6.3625 12.2562 6.3625V6.4625C12.3839 6.4625 12.5063 6.5132 12.5965 6.60346L12.6672 6.53274ZM12.8375 6.94375C12.8375 6.78959 12.7762 6.64175 12.6672 6.53274L12.5965 6.60346C12.6868 6.69371 12.7375 6.81611 12.7375 6.94375H12.8375ZM12.8375 15.4438V6.94375H12.7375V15.4438H12.8375ZM12.6672 15.8548C12.7762 15.7458 12.8375 15.5979 12.8375 15.4438H12.7375C12.7375 15.5714 12.6868 15.6938 12.5965 15.784L12.6672 15.8548ZM12.2562 16.025C12.4104 16.025 12.5582 15.9638 12.6672 15.8548L12.5965 15.784C12.5063 15.8743 12.3839 15.925 12.2562 15.925V16.025ZM2.69373 16.025H12.2562V15.925H2.69373V16.025ZM2.28272 15.8548C2.39173 15.9638 2.53957 16.025 2.69373 16.025V15.925C2.56609 15.925 2.44368 15.8743 2.35343 15.784L2.28272 15.8548ZM2.11248 15.4438C2.11248 15.5979 2.17371 15.7458 2.28272 15.8548L2.35343 15.784C2.26318 15.6938 2.21248 15.5714 2.21248 15.4438H2.11248ZM2.11248 6.94375V15.4438H2.21248V6.94375H2.11248ZM2.28272 6.53274C2.17371 6.64175 2.11248 6.78959 2.11248 6.94375H2.21248C2.21248 6.81611 2.26318 6.69371 2.35343 6.60346L2.28272 6.53274ZM6.87978 10.697L4.77039 8.58658L4.69966 8.65728L6.80906 10.7677L6.87978 10.697ZM7.00102 12.7446L7.20592 12.8818L7.26155 12.7987L7.05665 12.6615L7.00102 12.7446ZM6.24738 10.0643L4.77039 8.58658L4.69966 8.65728L6.17665 10.135L6.24738 10.0643ZM5.67897 9.77852L6.44796 10.5479L6.51869 10.4772L5.7497 9.70783L5.67897 9.77852ZM6.52511 10.4851L6.2538 10.0722L6.17023 10.1271L6.44154 10.54L6.52511 10.4851ZM5.55557 9.50887L5.66864 9.76347L5.76003 9.72288L5.64696 9.46828L5.55557 9.50887ZM6.97976 10.9385L6.51869 10.4772L6.44796 10.5479L6.90903 11.0092L6.97976 10.9385ZM5.7497 9.70783L4.69964 8.65728L4.62891 8.72797L5.67897 9.77852L5.7497 9.70783ZM6.95123 12.4134L3.94738 9.40952L3.87667 9.48023L6.88052 12.4841L6.95123 12.4134ZM7.07453 12.6828L6.96157 12.4284L6.87018 12.469L6.98314 12.7234L7.07453 12.6828ZM5.66864 9.76347L6.87018 12.469L6.96157 12.4284L5.76003 9.72288L5.66864 9.76347ZM6.88052 12.4841L7.06417 12.6677L7.13488 12.597L6.95123 12.4134L6.88052 12.4841ZM11.0039 9.40952L7.83115 12.5823L7.90187 12.653L11.0746 9.48023L11.0039 9.40952ZM7.82472 12.6451L7.88081 12.7305L7.96438 12.6755L7.9083 12.5902L7.82472 12.6451ZM7.9083 12.5902L6.52511 10.4851L6.44154 10.54L7.82472 12.6451L7.9083 12.5902ZM7.88713 12.6677L7.90187 12.653L7.83115 12.5823L7.81642 12.597L7.88713 12.6677ZM7.2435 12.8893L7.50534 12.8371L7.4858 12.739L7.22396 12.7912L7.2435 12.8893ZM7.4937 12.7381C7.48769 12.7383 7.48167 12.7385 7.47565 12.7385V12.8385C7.48292 12.8385 7.49019 12.8383 7.49745 12.838L7.4937 12.7381ZM7.91283 12.654L7.65093 12.7061L7.67047 12.8042L7.93237 12.752L7.91283 12.654ZM7.64328 12.7083C7.59532 12.7261 7.54483 12.7362 7.4937 12.7381L7.49745 12.838C7.5592 12.8357 7.62019 12.8236 7.67812 12.802L7.64328 12.7083ZM7.67812 12.802C7.68493 12.7995 7.6917 12.7969 7.69842 12.7941L7.66009 12.7017C7.65453 12.704 7.64892 12.7062 7.64328 12.7083L7.67812 12.802ZM7.50534 12.8371L7.67047 12.8042L7.65093 12.7061L7.4858 12.739L7.50534 12.8371ZM4.73502 8.62193L4.80575 8.55124L4.80573 8.55122L4.73502 8.62193ZM6.84442 10.7323L6.77369 10.803L6.94442 10.9738V10.7323H6.84442ZM7.02931 1.18489L6.9586 1.11418V1.11418L7.02931 1.18489ZM7.92203 1.18489L7.99274 1.11418V1.11418L7.92203 1.18489ZM8.10692 10.7323H8.00692V10.9738L8.17765 10.803L8.10692 10.7323ZM10.2163 8.62193L10.1456 8.55122L10.1456 8.55124L10.2163 8.62193ZM11.11 8.62191L11.1807 8.5512L11.1807 8.5512L11.11 8.62191ZM11.11 9.51559L11.1807 9.5863L11.11 9.51559ZM7.9226 12.703L7.85188 12.6323L7.85181 12.6324L7.9226 12.703ZM7.02884 12.7031L7.09962 12.6325L7.09955 12.6324L7.02884 12.7031ZM7.23373 12.8402L7.27206 12.7479L7.27206 12.7479L7.23373 12.8402ZM3.84134 9.51559L3.91205 9.44488L3.84134 9.51559ZM3.84134 8.62191L3.77062 8.5512L3.84134 8.62191ZM7.71761 12.8402L7.67928 12.7479L7.67928 12.7479L7.71761 12.8402ZM2.38881 6.63881L2.3181 6.5681H2.3181L2.38881 6.63881ZM2.38881 15.7487L2.45952 15.678H2.45952L2.38881 15.7487ZM12.5612 15.7487L12.4905 15.678L12.4905 15.678L12.5612 15.7487ZM12.5612 6.63881L12.4905 6.70952L12.4905 6.70952L12.5612 6.63881ZM9.68489 6.32761L9.7556 6.2569L9.7556 6.2569L9.68489 6.32761ZM9.68489 5.43489L9.61418 5.36418H9.61418L9.68489 5.43489ZM13.4539 5.74609L13.5246 5.67538L13.4539 5.74609ZM13.4539 16.6414L13.3832 16.5707L13.3832 16.5707L13.4539 16.6414ZM1.49609 16.6414L1.5668 16.5707L1.49609 16.6414ZM1.49609 5.74609L1.42538 5.67538H1.42538L1.49609 5.74609ZM5.26511 5.43489L5.33582 5.36418L5.26511 5.43489ZM5.26511 6.32761L5.33582 6.39832L5.26511 6.32761ZM5.60127 9.48858L5.53054 9.55927L5.60127 9.48858ZM6.21201 10.0996L6.28274 10.0289L6.21201 10.0996ZM6.74442 1.63125V10.7323H6.94442V1.63125H6.74442ZM6.9586 1.11418C6.82146 1.25131 6.74442 1.43731 6.74442 1.63125H6.94442C6.94442 1.49035 7.00039 1.35523 7.10002 1.2556L6.9586 1.11418ZM7.47567 0.9C7.28173 0.9 7.09574 0.977042 6.9586 1.11418L7.10002 1.2556C7.19965 1.15597 7.33477 1.1 7.47567 1.1V0.9ZM7.99274 1.11418C7.85561 0.977042 7.66961 0.9 7.47567 0.9V1.1C7.61657 1.1 7.75169 1.15597 7.85132 1.2556L7.99274 1.11418ZM8.20692 1.63125C8.20692 1.43731 8.12988 1.25131 7.99274 1.11418L7.85132 1.2556C7.95095 1.35523 8.00692 1.49035 8.00692 1.63125H8.20692ZM8.20692 10.7323V1.63125H8.00692V10.7323H8.20692ZM10.6632 8.33683C10.469 8.33683 10.2829 8.41396 10.1456 8.55122L10.287 8.69264C10.3868 8.59288 10.5221 8.53683 10.6632 8.53683V8.33683ZM11.1807 8.5512C11.0435 8.41394 10.8573 8.33683 10.6632 8.33683V8.53683C10.8042 8.53683 10.9395 8.59287 11.0393 8.69262L11.1807 8.5512ZM11.3951 9.06875C11.3951 8.87463 11.318 8.68847 11.1807 8.5512L11.0393 8.69262C11.1391 8.79238 11.1951 8.92768 11.1951 9.06875H11.3951ZM11.1807 9.5863C11.318 9.44903 11.3951 9.26287 11.3951 9.06875H11.1951C11.1951 9.20982 11.1391 9.34512 11.0393 9.44488L11.1807 9.5863ZM7.99331 12.7737L11.1807 9.5863L11.0393 9.44488L7.85188 12.6323L7.99331 12.7737ZM6.95805 12.7737C7.02595 12.8418 7.10661 12.8958 7.19541 12.9326L7.27206 12.7479C7.20755 12.7211 7.14895 12.6819 7.09962 12.6325L6.95805 12.7737ZM3.77062 9.5863L6.95812 12.7738L7.09955 12.6324L3.91205 9.44488L3.77062 9.5863ZM3.55625 9.06875C3.55625 9.26287 3.63336 9.44904 3.77062 9.5863L3.91205 9.44488C3.81229 9.34512 3.75625 9.20982 3.75625 9.06875H3.55625ZM3.77062 8.5512C3.63336 8.68847 3.55625 8.87463 3.55625 9.06875H3.75625C3.75625 8.92768 3.81229 8.79238 3.91205 8.69262L3.77062 8.5512ZM4.28817 8.33683C4.09405 8.33683 3.90789 8.41394 3.77062 8.5512L3.91205 8.69262C4.0118 8.59287 4.1471 8.53683 4.28817 8.53683V8.33683ZM4.80573 8.55122C4.66848 8.41396 4.48229 8.33683 4.28817 8.33683V8.53683C4.42924 8.53683 4.56456 8.59288 4.66431 8.69264L4.80573 8.55122ZM7.75593 12.9326C7.84475 12.8958 7.92549 12.8417 7.99338 12.7736L7.85181 12.6324C7.80246 12.6818 7.74377 12.7211 7.67928 12.7479L7.75593 12.9326ZM7.47567 12.9885C7.57186 12.9885 7.6671 12.9695 7.75593 12.9326L7.67928 12.7479C7.61474 12.7747 7.54555 12.7885 7.47567 12.7885V12.9885ZM7.19541 12.9326C7.28424 12.9695 7.37948 12.9885 7.47567 12.9885V12.7885C7.40579 12.7885 7.3366 12.7747 7.27206 12.7479L7.19541 12.9326ZM2.45952 6.70952C2.52164 6.6474 2.6059 6.6125 2.69375 6.6125V6.4125C2.55285 6.4125 2.41773 6.46847 2.3181 6.5681L2.45952 6.70952ZM2.3625 6.94375C2.3625 6.8559 2.3974 6.77164 2.45952 6.70952L2.3181 6.5681C2.21847 6.66773 2.1625 6.80285 2.1625 6.94375H2.3625ZM2.3625 15.4438V6.94375H2.1625V15.4438H2.3625ZM2.45952 15.678C2.3974 15.6159 2.3625 15.5316 2.3625 15.4438H2.1625C2.1625 15.5846 2.21847 15.7198 2.3181 15.8194L2.45952 15.678ZM2.69375 15.775C2.6059 15.775 2.52164 15.7401 2.45952 15.678L2.3181 15.8194C2.41773 15.919 2.55285 15.975 2.69375 15.975V15.775ZM12.2563 15.775H2.69375V15.975H12.2563V15.775ZM12.4905 15.678C12.4284 15.7401 12.3441 15.775 12.2563 15.775V15.975C12.3971 15.975 12.5323 15.919 12.6319 15.8194L12.4905 15.678ZM12.5875 15.4438C12.5875 15.5316 12.5526 15.6159 12.4905 15.678L12.6319 15.8194C12.7315 15.7198 12.7875 15.5846 12.7875 15.4438H12.5875ZM12.5875 6.94375V15.4438H12.7875V6.94375H12.5875ZM12.4905 6.70952C12.5526 6.77164 12.5875 6.8559 12.5875 6.94375H12.7875C12.7875 6.80285 12.7315 6.66773 12.6319 6.5681L12.4905 6.70952ZM12.2563 6.6125C12.3441 6.6125 12.4284 6.6474 12.4905 6.70952L12.6319 6.5681C12.5323 6.46847 12.3971 6.4125 12.2563 6.4125V6.6125ZM10.1313 6.6125H12.2563V6.4125H10.1313V6.6125ZM9.61418 6.39832C9.75131 6.53546 9.93731 6.6125 10.1313 6.6125V6.4125C9.99035 6.4125 9.85523 6.35653 9.7556 6.2569L9.61418 6.39832ZM9.4 5.88125C9.4 6.07519 9.47704 6.26119 9.61418 6.39832L9.7556 6.2569C9.65597 6.15727 9.6 6.02215 9.6 5.88125H9.4ZM9.61418 5.36418C9.47704 5.50131 9.4 5.68731 9.4 5.88125H9.6C9.6 5.74035 9.65597 5.60523 9.7556 5.5056L9.61418 5.36418ZM10.1313 5.15C9.93731 5.15 9.75131 5.22704 9.61418 5.36418L9.7556 5.5056C9.85523 5.40597 9.99035 5.35 10.1313 5.35V5.15ZM12.2563 5.15H10.1313V5.35H12.2563V5.15ZM13.5246 5.67538C13.1882 5.33898 12.732 5.15 12.2563 5.15V5.35C12.6789 5.35 13.0843 5.51791 13.3832 5.8168L13.5246 5.67538ZM14.05 6.94375C14.05 6.46802 13.861 6.01177 13.5246 5.67538L13.3832 5.8168C13.6821 6.11568 13.85 6.52106 13.85 6.94375H14.05ZM14.05 15.4438V6.94375H13.85V15.4438H14.05ZM13.5246 16.7121C13.861 16.3757 14.05 15.9195 14.05 15.4438H13.85C13.85 15.8664 13.6821 16.2718 13.3832 16.5707L13.5246 16.7121ZM12.2563 17.2375C12.732 17.2375 13.1882 17.0485 13.5246 16.7121L13.3832 16.5707C13.0843 16.8696 12.6789 17.0375 12.2563 17.0375V17.2375ZM2.69375 17.2375H12.2563V17.0375H2.69375V17.2375ZM1.42538 16.7121C1.76177 17.0485 2.21802 17.2375 2.69375 17.2375V17.0375C2.27106 17.0375 1.86568 16.8696 1.5668 16.5707L1.42538 16.7121ZM0.9 15.4438C0.9 15.9195 1.08898 16.3757 1.42538 16.7121L1.5668 16.5707C1.26791 16.2718 1.1 15.8664 1.1 15.4438H0.9ZM0.9 6.94375V15.4438H1.1V6.94375H0.9ZM1.42538 5.67538C1.08898 6.01177 0.9 6.46802 0.9 6.94375H1.1C1.1 6.52106 1.26791 6.11568 1.5668 5.8168L1.42538 5.67538ZM2.69375 5.15C2.21802 5.15 1.76177 5.33898 1.42538 5.67538L1.5668 5.8168C1.86568 5.51791 2.27106 5.35 2.69375 5.35V5.15ZM4.81875 5.15H2.69375V5.35H4.81875V5.15ZM5.33582 5.36418C5.19869 5.22704 5.01269 5.15 4.81875 5.15V5.35C4.95965 5.35 5.09477 5.40597 5.1944 5.5056L5.33582 5.36418ZM5.55 5.88125C5.55 5.68731 5.47296 5.50131 5.33582 5.36418L5.1944 5.5056C5.29403 5.60523 5.35 5.74035 5.35 5.88125H5.55ZM5.33582 6.39832C5.47296 6.26119 5.55 6.07519 5.55 5.88125H5.35C5.35 6.02215 5.29403 6.15727 5.1944 6.2569L5.33582 6.39832ZM4.81875 6.6125C5.01269 6.6125 5.19869 6.53546 5.33582 6.39832L5.1944 6.2569C5.09477 6.35653 4.95965 6.4125 4.81875 6.4125V6.6125ZM2.69375 6.6125H4.81875V6.4125H2.69375V6.6125ZM10.1456 8.55124L8.03619 10.6616L8.17765 10.803L10.287 8.69262L10.1456 8.55124ZM4.6643 8.69262L5.53054 9.55927L5.67199 9.41788L4.80575 8.55124L4.6643 8.69262ZM6.28274 10.0289L5.67199 9.41788L5.53054 9.55927L6.14129 10.1703L6.28274 10.0289ZM6.91515 10.6616L6.28274 10.0289L6.14129 10.1703L6.77369 10.803L6.91515 10.6616Z" fill="#56C456" mask="url(#path-1-outside-1_1149_18065)"/>
</svg>
