<svg width="4" height="16" viewBox="0 0 4 16" fill="none" xmlns="http://www.w3.org/2000/svg">
<path fill-rule="evenodd" clip-rule="evenodd" d="M3.92849 13.7799C3.92849 14.2542 3.74006 14.7091 3.40466 15.0445C3.06926 15.3799 2.61435 15.5684 2.14002 15.5684C1.66569 15.5684 1.21079 15.3799 0.875391 15.0445C0.539989 14.7091 0.351562 14.2542 0.351562 13.7799C0.351562 13.3056 0.539989 12.8507 0.875391 12.5153C1.21079 12.1799 1.66569 11.9914 2.14002 11.9914C2.61435 11.9914 3.06926 12.1799 3.40466 12.5153C3.74006 12.8507 3.92849 13.3056 3.92849 13.7799ZM3.92849 7.81836C3.92849 8.29269 3.74006 8.74759 3.40466 9.08299C3.06926 9.4184 2.61435 9.60682 2.14002 9.60682C1.66569 9.60682 1.21079 9.4184 0.875391 9.08299C0.539989 8.74759 0.351562 8.29269 0.351562 7.81836C0.351562 7.34403 0.539989 6.88913 0.875391 6.55373C1.21079 6.21832 1.66569 6.0299 2.14002 6.0299C2.61435 6.0299 3.06926 6.21832 3.40466 6.55373C3.74006 6.88913 3.92849 7.34403 3.92849 7.81836ZM3.92849 1.85682C3.92849 2.33115 3.74006 2.78605 3.40466 3.12145C3.06926 3.45686 2.61435 3.64528 2.14002 3.64528C1.66569 3.64528 1.21079 3.45686 0.875391 3.12145C0.539989 2.78605 0.351562 2.33115 0.351562 1.85682C0.351562 1.38249 0.539989 0.927589 0.875391 0.592188C1.21079 0.256786 1.66569 0.0683594 2.14002 0.0683594C2.61435 0.0683594 3.06926 0.256786 3.40466 0.592188C3.74006 0.927589 3.92849 1.38249 3.92849 1.85682Z" fill="black"/>
</svg>
