<svg width="17" height="17" viewBox="0 0 17 17" fill="none" xmlns="http://www.w3.org/2000/svg">
<path d="M15.2051 8.07568C14.9928 8.07568 14.7893 8.15999 14.6392 8.31007C14.4891 8.46015 14.4048 8.6637 14.4048 8.87595V13.6776C14.4048 13.8898 14.3205 14.0934 14.1704 14.2434C14.0204 14.3935 13.8168 14.4778 13.6046 14.4778H2.4008C2.18856 14.4778 1.98501 14.3935 1.83493 14.2434C1.68485 14.0934 1.60054 13.8898 1.60054 13.6776V2.4738C1.60054 2.26156 1.68485 2.05801 1.83493 1.90793C1.98501 1.75785 2.18856 1.67354 2.4008 1.67354H7.20241C7.41466 1.67354 7.61821 1.58922 7.76829 1.43914C7.91837 1.28906 8.00268 1.08551 8.00268 0.873268C8.00268 0.661023 7.91837 0.457472 7.76829 0.307393C7.61821 0.157313 7.41466 0.0729996 7.20241 0.0729996H2.4008C1.76407 0.0729996 1.15342 0.325941 0.703179 0.776179C0.252941 1.22642 0 1.83707 0 2.4738V13.6776C0 14.3143 0.252941 14.9249 0.703179 15.3752C1.15342 15.8254 1.76407 16.0784 2.4008 16.0784H13.6046C14.2413 16.0784 14.8519 15.8254 15.3022 15.3752C15.7524 14.9249 16.0054 14.3143 16.0054 13.6776V8.87595C16.0054 8.6637 15.921 8.46015 15.771 8.31007C15.6209 8.15999 15.4173 8.07568 15.2051 8.07568ZM3.20107 8.68388V12.077C3.20107 12.2893 3.28539 12.4928 3.43547 12.6429C3.58554 12.793 3.7891 12.8773 4.00134 12.8773H7.39448C7.4998 12.8779 7.6042 12.8577 7.7017 12.8179C7.79921 12.7781 7.88789 12.7194 7.96267 12.6452L13.5005 7.09935L15.7733 4.87461C15.8483 4.80021 15.9078 4.7117 15.9485 4.61418C15.9891 4.51666 16.01 4.41206 16.01 4.30642C16.01 4.20077 15.9891 4.09617 15.9485 3.99865C15.9078 3.90113 15.8483 3.81262 15.7733 3.73823L12.3801 0.305077C12.3057 0.230069 12.2172 0.170534 12.1197 0.129906C12.0222 0.089277 11.9176 0.0683594 11.812 0.0683594C11.7063 0.0683594 11.6017 0.089277 11.5042 0.129906C11.4067 0.170534 11.3182 0.230069 11.2438 0.305077L8.98701 2.56984L3.43315 8.11569C3.35898 8.19047 3.3003 8.27915 3.26047 8.37666C3.22065 8.47416 3.20046 8.57856 3.20107 8.68388ZM11.812 2.00165L14.0767 4.2664L12.9403 5.40278L10.6756 3.13803L11.812 2.00165ZM4.80161 9.01199L9.5472 4.2664L11.812 6.53116L7.06637 11.2768H4.80161V9.01199Z" fill="#7749F8"/>
</svg>
