<svg width="18" height="16" viewBox="0 0 18 16" fill="none" xmlns="http://www.w3.org/2000/svg">
<path fill-rule="evenodd" clip-rule="evenodd" d="M10.7819 1.58414C10.754 1.56955 10.7235 1.56353 10.6932 1.56662C10.6628 1.56971 10.6336 1.58182 10.6082 1.60183C10.5828 1.62185 10.5621 1.64912 10.5479 1.68115C10.5337 1.71318 10.5265 1.74894 10.5269 1.78514V3.51464C10.5269 3.71355 10.4605 3.90431 10.3421 4.04497C10.2237 4.18562 10.0632 4.26464 9.89582 4.26464C9.05391 4.26464 7.35492 4.27214 5.73041 5.49764C4.48836 6.43364 3.21854 8.13764 2.45488 11.3116C3.74237 9.83714 5.21289 9.03764 6.50038 8.61464C7.29175 8.3549 8.10504 8.20095 8.92516 8.15564C9.26085 8.13811 9.5971 8.14212 9.93243 8.16764H9.94884L9.95515 8.16914H9.95641L9.89582 8.91464L9.95894 8.16764C10.1147 8.18624 10.2591 8.27299 10.3641 8.41104C10.4691 8.54909 10.5271 8.72858 10.5269 8.91464V10.6441C10.5269 10.8061 10.6658 10.9081 10.7819 10.8451L15.8107 6.44564C15.8278 6.43057 15.8455 6.41655 15.8637 6.40364C15.8912 6.38404 15.9139 6.35633 15.9297 6.32321C15.9454 6.29009 15.9537 6.25269 15.9537 6.21464C15.9537 6.17658 15.9454 6.13918 15.9297 6.10606C15.9139 6.07294 15.8912 6.04524 15.8637 6.02564C15.8455 6.01272 15.8278 5.9987 15.8107 5.98364L10.7819 1.58414ZM9.2647 9.64364C8.44413 9.66051 7.62862 9.80011 6.8374 10.0591C5.16366 10.6111 3.18193 11.8606 1.86415 14.6791C1.79288 14.8312 1.67933 14.9491 1.54296 15.0126C1.40658 15.076 1.25588 15.0812 1.11666 15.0271C0.977448 14.973 0.858396 14.8631 0.779909 14.7161C0.701423 14.5692 0.668389 14.3944 0.686469 14.2216C1.27215 8.65664 3.06707 5.72864 5.05384 4.23164C6.62534 3.04664 8.24354 2.81864 9.2647 2.77514V1.78514C9.26458 1.47624 9.33463 1.17303 9.46746 0.907507C9.60028 0.641983 9.79095 0.423987 10.0194 0.276523C10.2478 0.12906 10.5054 0.0575953 10.7652 0.0696715C11.0249 0.0817477 11.2771 0.176916 11.4951 0.345136L16.5365 4.75514C16.7449 4.90974 16.9168 5.12483 17.036 5.38016C17.1551 5.63549 17.2177 5.92266 17.2177 6.21464C17.2177 6.50661 17.1551 6.79378 17.036 7.04911C16.9168 7.30444 16.7449 7.51953 16.5365 7.67414L11.4951 12.0841C11.2771 12.2524 11.0249 12.3475 10.7652 12.3596C10.5054 12.3717 10.2478 12.3002 10.0194 12.1527C9.79095 12.0053 9.60028 11.7873 9.46746 11.5218C9.33463 11.2562 9.26458 10.953 9.2647 10.6441V9.64364Z" fill="#0066FF"/>
</svg>
