<svg width="735" height="348" viewBox="0 0 735 348" fill="none" xmlns="http://www.w3.org/2000/svg">
<rect x="0.5" y="0.216797" width="734" height="347" rx="14" fill="white"/>
<path d="M29.2614 26.0804H31.0227V33.7338C31.0227 34.5482 30.8314 35.2698 30.4489 35.8986C30.0663 36.5236 29.5284 37.016 28.8352 37.3759C28.142 37.7319 27.3295 37.91 26.3977 37.91C25.4697 37.91 24.6591 37.7319 23.9659 37.3759C23.2727 37.016 22.7348 36.5236 22.3523 35.8986C21.9697 35.2698 21.7784 34.5482 21.7784 33.7338V26.0804H23.5341V33.5918C23.5341 34.1183 23.6496 34.5861 23.8807 34.9952C24.1155 35.4043 24.447 35.7263 24.875 35.9611C25.303 36.1922 25.8106 36.3077 26.3977 36.3077C26.9886 36.3077 27.4981 36.1922 27.9261 35.9611C28.358 35.7263 28.6875 35.4043 28.9148 34.9952C29.1458 34.5861 29.2614 34.1183 29.2614 33.5918V26.0804ZM39.9787 31.1202L38.4389 31.3929C38.3745 31.196 38.2723 31.0085 38.1321 30.8304C37.9957 30.6524 37.8101 30.5066 37.5753 30.3929C37.3404 30.2793 37.0469 30.2225 36.6946 30.2225C36.2135 30.2225 35.812 30.3304 35.4901 30.5463C35.1681 30.7585 35.0071 31.0331 35.0071 31.3702C35.0071 31.6619 35.1151 31.8967 35.331 32.0748C35.5469 32.2528 35.8954 32.3986 36.3764 32.5123L37.7628 32.8304C38.5658 33.016 39.1643 33.302 39.5582 33.6884C39.9522 34.0748 40.1491 34.5766 40.1491 35.1941C40.1491 35.7168 39.9976 36.1827 39.6946 36.5918C39.3954 36.9971 38.9768 37.3153 38.4389 37.5463C37.9048 37.7774 37.2855 37.8929 36.581 37.8929C35.6037 37.8929 34.8063 37.6846 34.1889 37.2679C33.5715 36.8475 33.1927 36.2509 33.0526 35.4782L34.6946 35.2282C34.7969 35.6562 35.0071 35.9801 35.3253 36.1998C35.6435 36.4157 36.0582 36.5236 36.5696 36.5236C37.1264 36.5236 37.5715 36.4081 37.9048 36.177C38.2382 35.9422 38.4048 35.6562 38.4048 35.3191C38.4048 35.0463 38.3026 34.8172 38.098 34.6316C37.8973 34.446 37.5885 34.3058 37.1719 34.2111L35.6946 33.8873C34.8802 33.7016 34.2779 33.4062 33.8878 33.0009C33.5014 32.5956 33.3082 32.0823 33.3082 31.4611C33.3082 30.946 33.4522 30.4952 33.7401 30.1088C34.0279 29.7225 34.4257 29.4213 34.9332 29.2054C35.4408 28.9857 36.0223 28.8759 36.6776 28.8759C37.6207 28.8759 38.3632 29.0804 38.9048 29.4895C39.4465 29.8948 39.8045 30.4384 39.9787 31.1202ZM44.5568 37.91C44.0038 37.91 43.5038 37.8077 43.0568 37.6032C42.6098 37.3948 42.2557 37.0937 41.9943 36.6998C41.7367 36.3058 41.608 35.8229 41.608 35.2509C41.608 34.7585 41.7027 34.3532 41.892 34.035C42.0814 33.7168 42.3371 33.4649 42.6591 33.2793C42.9811 33.0937 43.3409 32.9535 43.7386 32.8588C44.1364 32.7641 44.5417 32.6922 44.9545 32.6429C45.4773 32.5823 45.9015 32.5331 46.2273 32.4952C46.553 32.4535 46.7898 32.3873 46.9375 32.2963C47.0852 32.2054 47.1591 32.0577 47.1591 31.8532V31.8134C47.1591 31.3172 47.0189 30.9327 46.7386 30.66C46.4621 30.3873 46.0492 30.2509 45.5 30.2509C44.928 30.2509 44.4773 30.3778 44.1477 30.6316C43.822 30.8816 43.5966 31.16 43.4716 31.4668L41.875 31.1032C42.0644 30.5729 42.3409 30.1448 42.7045 29.8191C43.072 29.4895 43.4943 29.2509 43.9716 29.1032C44.4489 28.9516 44.9508 28.8759 45.4773 28.8759C45.8258 28.8759 46.1951 28.9176 46.5852 29.0009C46.9792 29.0804 47.3466 29.2282 47.6875 29.4441C48.0322 29.66 48.3144 29.9687 48.5341 30.3702C48.7538 30.7679 48.8636 31.285 48.8636 31.9213V37.7168H47.2045V36.5236H47.1364C47.0265 36.7433 46.8617 36.9592 46.642 37.1713C46.4223 37.3835 46.1402 37.5596 45.7955 37.6998C45.4508 37.8399 45.0379 37.91 44.5568 37.91ZM44.9261 36.5463C45.3958 36.5463 45.7973 36.4535 46.1307 36.2679C46.4678 36.0823 46.7235 35.8399 46.8977 35.5407C47.0758 35.2376 47.1648 34.9138 47.1648 34.5691V33.4441C47.1042 33.5047 46.9867 33.5615 46.8125 33.6145C46.642 33.6638 46.447 33.7073 46.2273 33.7452C46.0076 33.7793 45.7936 33.8115 45.5852 33.8418C45.3769 33.8683 45.2027 33.891 45.0625 33.91C44.733 33.9516 44.4318 34.0217 44.1591 34.1202C43.8902 34.2187 43.6742 34.3607 43.5114 34.5463C43.3523 34.7282 43.2727 34.9706 43.2727 35.2736C43.2727 35.6941 43.428 36.0123 43.7386 36.2282C44.0492 36.4403 44.4451 36.5463 44.9261 36.5463ZM54.7855 41.1713C54.0923 41.1713 53.4957 41.0804 52.9957 40.8986C52.4995 40.7168 52.0942 40.4763 51.7798 40.177C51.4654 39.8778 51.2306 39.5501 51.0753 39.1941L52.5355 38.5918C52.6378 38.7585 52.7741 38.9346 52.9446 39.1202C53.1188 39.3096 53.3537 39.4706 53.6491 39.6032C53.9484 39.7357 54.3329 39.802 54.8026 39.802C55.4465 39.802 55.9787 39.6448 56.3991 39.3304C56.8196 39.0198 57.0298 38.5236 57.0298 37.8418V36.1259H56.9219C56.8196 36.3115 56.6719 36.5179 56.4787 36.7452C56.2893 36.9725 56.0279 37.1694 55.6946 37.3361C55.3613 37.5028 54.9276 37.5861 54.3935 37.5861C53.7041 37.5861 53.0829 37.4251 52.5298 37.1032C51.9806 36.7774 51.545 36.2982 51.223 35.6657C50.9048 35.0293 50.7457 34.2471 50.7457 33.3191C50.7457 32.391 50.9029 31.5956 51.2173 30.9327C51.5355 30.2698 51.9711 29.7623 52.5241 29.41C53.0772 29.0539 53.7041 28.8759 54.4048 28.8759C54.9465 28.8759 55.384 28.9668 55.7173 29.1486C56.0507 29.3266 56.3101 29.535 56.4957 29.7736C56.6851 30.0123 56.831 30.2225 56.9332 30.4043H57.0582V28.9895H58.723V37.91C58.723 38.66 58.5488 39.2755 58.2003 39.7566C57.8518 40.2376 57.3802 40.5937 56.7855 40.8248C56.1946 41.0558 55.5279 41.1713 54.7855 41.1713ZM54.7685 36.177C55.2571 36.177 55.67 36.0634 56.0071 35.8361C56.348 35.6051 56.6056 35.2755 56.7798 34.8475C56.9579 34.4157 57.0469 33.8986 57.0469 33.2963C57.0469 32.7092 56.9598 32.1922 56.7855 31.7452C56.6113 31.2982 56.3556 30.9498 56.0185 30.6998C55.6813 30.446 55.2647 30.3191 54.7685 30.3191C54.2571 30.3191 53.831 30.4516 53.4901 30.7168C53.1491 30.9782 52.8916 31.3342 52.7173 31.785C52.5469 32.2357 52.4616 32.7395 52.4616 33.2963C52.4616 33.8683 52.5488 34.3702 52.723 34.802C52.8973 35.2338 53.1548 35.571 53.4957 35.8134C53.8404 36.0558 54.2647 36.177 54.7685 36.177ZM64.7628 37.8929C63.9029 37.8929 63.1624 37.7092 62.5412 37.3418C61.9238 36.9706 61.4465 36.4498 61.1094 35.7793C60.776 35.1051 60.6094 34.3153 60.6094 33.41C60.6094 32.516 60.776 31.7282 61.1094 31.0463C61.4465 30.3645 61.9162 29.8323 62.5185 29.4498C63.1245 29.0672 63.8329 28.8759 64.6435 28.8759C65.1359 28.8759 65.6132 28.9573 66.0753 29.1202C66.5374 29.2831 66.9522 29.5388 67.3196 29.8873C67.687 30.2357 67.9768 30.6884 68.1889 31.2452C68.401 31.7982 68.5071 32.4706 68.5071 33.2623V33.8645H61.5696V32.5918H66.8423C66.8423 32.1448 66.7514 31.749 66.5696 31.4043C66.3878 31.0558 66.1321 30.7812 65.8026 30.5804C65.4768 30.3797 65.0942 30.2793 64.6548 30.2793C64.1776 30.2793 63.7609 30.3967 63.4048 30.6316C63.0526 30.8626 62.7798 31.1657 62.5866 31.5407C62.3973 31.9119 62.3026 32.3153 62.3026 32.7509V33.7452C62.3026 34.3285 62.4048 34.8248 62.6094 35.2338C62.8177 35.6429 63.1075 35.9554 63.4787 36.1713C63.8499 36.3835 64.2836 36.4895 64.7798 36.4895C65.1018 36.4895 65.3954 36.4441 65.6605 36.3532C65.9257 36.2585 66.1548 36.1183 66.348 35.9327C66.5412 35.7471 66.6889 35.5179 66.7912 35.2452L68.3991 35.535C68.2704 36.0085 68.0393 36.4232 67.706 36.7793C67.3764 37.1316 66.9616 37.4062 66.4616 37.6032C65.9654 37.7963 65.3991 37.8929 64.7628 37.8929ZM78.7003 28.9895V30.3532H73.9332V28.9895H78.7003ZM75.2116 26.8986H76.9105V35.1543C76.9105 35.4838 76.9598 35.7319 77.0582 35.8986C77.1567 36.0615 77.2836 36.1732 77.4389 36.2338C77.598 36.2907 77.7704 36.3191 77.956 36.3191C78.0923 36.3191 78.2116 36.3096 78.3139 36.2907C78.4162 36.2717 78.4957 36.2566 78.5526 36.2452L78.8594 37.6486C78.7609 37.6865 78.6207 37.7244 78.4389 37.7623C78.2571 37.8039 78.0298 37.8266 77.7571 37.8304C77.3101 37.838 76.8935 37.7585 76.5071 37.5918C76.1207 37.4251 75.8082 37.1676 75.5696 36.8191C75.331 36.4706 75.2116 36.0331 75.2116 35.5066V26.8986ZM80.5795 37.7168V28.9895H82.2216V30.3759H82.3125C82.4716 29.9062 82.7519 29.5369 83.1534 29.2679C83.5587 28.9952 84.017 28.8588 84.5284 28.8588C84.6345 28.8588 84.7595 28.8626 84.9034 28.8702C85.0511 28.8778 85.1667 28.8873 85.25 28.8986V30.5236C85.1818 30.5047 85.0606 30.4838 84.8864 30.4611C84.7121 30.4346 84.5379 30.4213 84.3636 30.4213C83.9621 30.4213 83.6042 30.5066 83.2898 30.677C82.9792 30.8437 82.733 31.0766 82.5511 31.3759C82.3693 31.6713 82.2784 32.0085 82.2784 32.3873V37.7168H80.5795ZM90.169 37.8929C89.3092 37.8929 88.5687 37.7092 87.9474 37.3418C87.33 36.9706 86.8527 36.4498 86.5156 35.7793C86.1823 35.1051 86.0156 34.3153 86.0156 33.41C86.0156 32.516 86.1823 31.7282 86.5156 31.0463C86.8527 30.3645 87.3224 29.8323 87.9247 29.4498C88.5308 29.0672 89.2391 28.8759 90.0497 28.8759C90.5421 28.8759 91.0194 28.9573 91.4815 29.1202C91.9437 29.2831 92.3584 29.5388 92.7259 29.8873C93.0933 30.2357 93.383 30.6884 93.5952 31.2452C93.8073 31.7982 93.9134 32.4706 93.9134 33.2623V33.8645H86.9759V32.5918H92.2486C92.2486 32.1448 92.1577 31.749 91.9759 31.4043C91.794 31.0558 91.5384 30.7812 91.2088 30.5804C90.883 30.3797 90.5005 30.2793 90.0611 30.2793C89.5838 30.2793 89.1671 30.3967 88.8111 30.6316C88.4588 30.8626 88.1861 31.1657 87.9929 31.5407C87.8035 31.9119 87.7088 32.3153 87.7088 32.7509V33.7452C87.7088 34.3285 87.8111 34.8248 88.0156 35.2338C88.224 35.6429 88.5137 35.9554 88.8849 36.1713C89.2562 36.3835 89.6899 36.4895 90.1861 36.4895C90.508 36.4895 90.8016 36.4441 91.0668 36.3532C91.3319 36.2585 91.5611 36.1183 91.7543 35.9327C91.9474 35.7471 92.0952 35.5179 92.1974 35.2452L93.8054 35.535C93.6766 36.0085 93.4455 36.4232 93.1122 36.7793C92.7827 37.1316 92.3679 37.4062 91.8679 37.6032C91.3717 37.7963 90.8054 37.8929 90.169 37.8929ZM97.4972 32.535V37.7168H95.7983V28.9895H97.429V30.41H97.5369C97.7377 29.9479 98.0521 29.5766 98.4801 29.2963C98.9119 29.016 99.4555 28.8759 100.111 28.8759C100.705 28.8759 101.226 29.0009 101.673 29.2509C102.12 29.4971 102.467 29.8645 102.713 30.3532C102.959 30.8418 103.082 31.446 103.082 32.1657V37.7168H101.384V32.3702C101.384 31.7376 101.219 31.2433 100.889 30.8873C100.56 30.5274 100.107 30.3475 99.5312 30.3475C99.1373 30.3475 98.7869 30.4327 98.4801 30.6032C98.1771 30.7736 97.9366 31.0236 97.7585 31.3532C97.5843 31.6789 97.4972 32.0729 97.4972 32.535ZM108.628 37.8873C107.923 37.8873 107.295 37.7073 106.741 37.3475C106.192 36.9838 105.76 36.4668 105.446 35.7963C105.135 35.1221 104.98 34.3134 104.98 33.3702C104.98 32.427 105.137 31.6202 105.452 30.9498C105.77 30.2793 106.205 29.766 106.759 29.41C107.312 29.0539 107.938 28.8759 108.639 28.8759C109.181 28.8759 109.616 28.9668 109.946 29.1486C110.279 29.3266 110.537 29.535 110.719 29.7736C110.904 30.0123 111.048 30.2225 111.151 30.4043H111.253V26.0804H112.952V37.7168H111.293V36.3588H111.151C111.048 36.5444 110.901 36.7566 110.707 36.9952C110.518 37.2338 110.257 37.4422 109.923 37.6202C109.59 37.7982 109.158 37.8873 108.628 37.8873ZM109.003 36.4384C109.491 36.4384 109.904 36.3096 110.241 36.052C110.582 35.7907 110.84 35.4289 111.014 34.9668C111.192 34.5047 111.281 33.9668 111.281 33.3532C111.281 32.7471 111.194 32.2168 111.02 31.7623C110.846 31.3077 110.59 30.9535 110.253 30.6998C109.916 30.446 109.499 30.3191 109.003 30.3191C108.491 30.3191 108.065 30.4516 107.724 30.7168C107.384 30.9819 107.126 31.3437 106.952 31.802C106.781 32.2604 106.696 32.7774 106.696 33.3532C106.696 33.9365 106.783 34.4611 106.957 34.927C107.132 35.3929 107.389 35.7623 107.73 36.035C108.075 36.3039 108.499 36.4384 109.003 36.4384Z" fill="#737B7B"/>
<path d="M26.0051 91.2168V87.41L36.1046 77.5094C37.0705 76.534 37.8754 75.6676 38.5194 74.91C39.1633 74.1524 39.6462 73.4185 39.9682 72.7083C40.2902 71.998 40.4512 71.2405 40.4512 70.4355C40.4512 69.517 40.2428 68.731 39.8262 68.0776C39.4095 67.4147 38.8366 66.9034 38.1074 66.5435C37.3783 66.1837 36.5497 66.0037 35.6216 66.0037C34.6652 66.0037 33.8271 66.2026 33.1074 66.6003C32.3877 66.9886 31.829 67.5426 31.4313 68.2623C31.043 68.9819 30.8489 69.839 30.8489 70.8333H25.8347C25.8347 68.9867 26.2561 67.3816 27.0989 66.0179C27.9417 64.6543 29.1017 63.5984 30.579 62.8503C32.0658 62.1022 33.7703 61.7282 35.6926 61.7282C37.6434 61.7282 39.3574 62.0927 40.8347 62.8219C42.312 63.5511 43.4578 64.5501 44.2722 65.8191C45.0961 67.088 45.508 68.5369 45.508 70.1657C45.508 71.2547 45.2997 72.3248 44.883 73.3759C44.4663 74.427 43.7324 75.5918 42.6813 76.8702C41.6396 78.1486 40.1766 79.6969 38.2921 81.5151L33.2779 86.6145V86.8134H45.9483V91.2168H26.0051ZM61.5023 91.6145C60.1103 91.6051 58.7514 91.3636 57.4256 90.8901C56.0998 90.4071 54.9067 89.6259 53.8461 88.5463C52.7855 87.4573 51.9426 86.0132 51.3176 84.214C50.6926 82.4052 50.3849 80.1657 50.3944 77.4952C50.3944 75.0047 50.6595 72.784 51.1898 70.8333C51.7201 68.8825 52.4824 67.2348 53.4767 65.8901C54.4711 64.5359 55.669 63.5037 57.0705 62.7935C58.4815 62.0833 60.0582 61.7282 61.8006 61.7282C63.6283 61.7282 65.2476 62.088 66.6586 62.8077C68.079 63.5274 69.2248 64.5123 70.0961 65.7623C70.9673 67.0028 71.507 68.4043 71.7154 69.9668H66.5307C66.2656 68.8494 65.7211 67.9592 64.8972 67.2963C64.0828 66.624 63.0506 66.2878 61.8006 66.2878C59.7836 66.2878 58.2305 67.1638 57.1415 68.9157C56.062 70.6676 55.5175 73.0729 55.508 76.1316H55.7069C56.1709 75.2982 56.7722 74.5833 57.5108 73.9867C58.2495 73.3901 59.0828 72.9308 60.0108 72.6088C60.9483 72.2774 61.9379 72.1117 62.9796 72.1117C64.6841 72.1117 66.2135 72.5189 67.5676 73.3333C68.9313 74.1477 70.0108 75.2698 70.8063 76.6998C71.6017 78.1202 71.9947 79.749 71.9853 81.5861C71.9947 83.499 71.5591 85.2177 70.6784 86.7424C69.7978 88.2575 68.5714 89.4507 66.9995 90.3219C65.4275 91.1931 63.5951 91.624 61.5023 91.6145ZM61.4739 87.3532C62.5061 87.3532 63.4294 87.1022 64.2438 86.6003C65.0582 86.0984 65.7021 85.4213 66.1756 84.5691C66.6491 83.7168 66.8811 82.7604 66.8716 81.6998C66.8811 80.6581 66.6538 79.7158 66.1898 78.873C65.7353 78.0302 65.1055 77.3626 64.3006 76.8702C63.4957 76.3778 62.5771 76.1316 61.5449 76.1316C60.7779 76.1316 60.0629 76.2783 59.4 76.5719C58.7372 76.8655 58.1595 77.2727 57.6671 77.7935C57.1747 78.3049 56.7864 78.9015 56.5023 79.5833C56.2277 80.2556 56.0856 80.9753 56.0762 81.7424C56.0856 82.7556 56.3224 83.6884 56.7864 84.5407C57.2504 85.3929 57.8896 86.0748 58.704 86.5861C59.5184 87.0975 60.4417 87.3532 61.4739 87.3532ZM87.5392 91.7708C85.2002 91.7708 83.1926 91.1789 81.5165 89.9952C79.8498 88.802 78.5667 87.0833 77.6671 84.839C76.7769 82.5852 76.3319 79.8721 76.3319 76.6998C76.3413 73.5274 76.7911 70.8285 77.6813 68.6032C78.5809 66.3683 79.8641 64.6638 81.5307 63.4895C83.2069 62.3153 85.2097 61.7282 87.5392 61.7282C89.8688 61.7282 91.8716 62.3153 93.5478 63.4895C95.2239 64.6638 96.507 66.3683 97.3972 68.6032C98.2968 70.838 98.7466 73.5369 98.7466 76.6998C98.7466 79.8816 98.2968 82.5994 97.3972 84.8532C96.507 87.0975 95.2239 88.8115 93.5478 89.9952C91.8811 91.1789 89.8783 91.7708 87.5392 91.7708ZM87.5392 87.3248C89.3574 87.3248 90.7921 86.4299 91.8432 84.6401C92.9038 82.8408 93.4341 80.1941 93.4341 76.6998C93.4341 74.3891 93.1926 72.4479 92.7097 70.8759C92.2267 69.3039 91.5449 68.1202 90.6642 67.3248C89.7836 66.5198 88.7419 66.1174 87.5392 66.1174C85.7305 66.1174 84.3006 67.017 83.2495 68.8162C82.1983 70.606 81.668 73.2338 81.6586 76.6998C81.6491 79.0198 81.8811 80.9706 82.3546 82.552C82.8375 84.1335 83.5194 85.3266 84.4 86.1316C85.2807 86.927 86.3271 87.3248 87.5392 87.3248Z" fill="#333333"/>
<rect x="120.5" y="59.0723" width="20.1436" height="20.1436" rx="10.0718" fill="#05CD99"/>
<path d="M127.46 68.4472C127.25 68.6647 126.91 68.6647 126.7 68.4472C126.491 68.2297 126.491 67.8771 126.7 67.6597L129.812 64.4336C130.232 63.9987 130.912 63.9987 131.331 64.4336L134.443 67.6597C134.653 67.8771 134.653 68.2297 134.443 68.4472C134.233 68.6647 133.893 68.6647 133.683 68.4472L131.109 65.7781V73.6223C131.109 73.9299 130.868 74.1792 130.572 74.1792C130.275 74.1792 130.035 73.9299 130.035 73.6223V65.7781L127.46 68.4472Z" fill="#FCFCFC"/>
<path d="M149.763 73.0991V65.5991H151.035V73.0991H149.763ZM146.649 69.9854V68.7127H154.149V69.9854H146.649ZM156.011 75.1445V74.1218L159.852 69.9173C160.302 69.4248 160.674 68.9968 160.965 68.6332C161.257 68.2657 161.473 67.921 161.613 67.5991C161.757 67.2733 161.829 66.9324 161.829 66.5763C161.829 66.1673 161.73 65.8131 161.533 65.5138C161.34 65.2146 161.075 64.9835 160.738 64.8207C160.401 64.6578 160.022 64.5763 159.602 64.5763C159.155 64.5763 158.765 64.6692 158.431 64.8548C158.102 65.0366 157.846 65.2923 157.664 65.6218C157.486 65.9513 157.397 66.3377 157.397 66.7809H156.056C156.056 66.0991 156.213 65.5006 156.528 64.9854C156.842 64.4703 157.27 64.0688 157.812 63.7809C158.357 63.493 158.969 63.3491 159.647 63.3491C160.329 63.3491 160.933 63.493 161.46 63.7809C161.986 64.0688 162.399 64.457 162.698 64.9457C162.997 65.4343 163.147 65.9779 163.147 66.5763C163.147 67.0044 163.069 67.4229 162.914 67.832C162.763 68.2373 162.497 68.69 162.119 69.19C161.744 69.6862 161.223 70.2923 160.556 71.0082L157.943 73.8036V73.8945H163.352V75.1445H156.011ZM166.378 75.2354C166.098 75.2354 165.857 75.1351 165.657 74.9343C165.456 74.7335 165.355 74.493 165.355 74.2127C165.355 73.9324 165.456 73.6919 165.657 73.4911C165.857 73.2904 166.098 73.19 166.378 73.19C166.659 73.19 166.899 73.2904 167.1 73.4911C167.301 73.6919 167.401 73.9324 167.401 74.2127C167.401 74.3983 167.354 74.5688 167.259 74.7241C167.168 74.8794 167.045 75.0044 166.89 75.0991C166.738 75.19 166.568 75.2354 166.378 75.2354ZM169.192 72.7582V71.5991L174.305 63.5082H175.146V65.3036H174.578L170.714 71.4173V71.5082H177.601V72.7582H169.192ZM174.669 75.1445V72.4059V71.8661V63.5082H176.01V75.1445H174.669ZM183.046 75.3036C182.38 75.3036 181.779 75.171 181.245 74.9059C180.711 74.6407 180.283 74.2771 179.961 73.815C179.639 73.3529 179.463 72.8263 179.433 72.2354H180.796C180.849 72.762 181.088 73.1976 181.512 73.5423C181.94 73.8832 182.452 74.0536 183.046 74.0536C183.524 74.0536 183.948 73.9419 184.319 73.7184C184.694 73.4949 184.988 73.1881 185.2 72.7979C185.416 72.404 185.524 71.9589 185.524 71.4627C185.524 70.9551 185.412 70.5025 185.189 70.1048C184.969 69.7032 184.666 69.387 184.279 69.1559C183.893 68.9248 183.452 68.8074 182.956 68.8036C182.599 68.7998 182.234 68.8548 181.859 68.9684C181.484 69.0782 181.175 69.2203 180.933 69.3945L179.615 69.2354L180.319 63.5082H186.365V64.7582H181.501L181.092 68.19H181.16C181.399 68.0006 181.698 67.8434 182.058 67.7184C182.418 67.5934 182.793 67.5309 183.183 67.5309C183.895 67.5309 184.529 67.7013 185.086 68.0423C185.647 68.3794 186.086 68.8415 186.404 69.4286C186.726 70.0157 186.887 70.6862 186.887 71.44C186.887 72.1824 186.721 72.8453 186.387 73.4286C186.058 74.0082 185.603 74.4665 185.024 74.8036C184.444 75.137 183.785 75.3036 183.046 75.3036ZM194.756 72.9627V72.3491C194.756 71.9248 194.843 71.5366 195.018 71.1843C195.196 70.8282 195.453 70.5442 195.79 70.332C196.131 70.1161 196.544 70.0082 197.029 70.0082C197.521 70.0082 197.934 70.1161 198.268 70.332C198.601 70.5442 198.853 70.8282 199.023 71.1843C199.194 71.5366 199.279 71.9248 199.279 72.3491V72.9627C199.279 73.387 199.192 73.7771 199.018 74.1332C198.847 74.4854 198.593 74.7695 198.256 74.9854C197.923 75.1976 197.514 75.3036 197.029 75.3036C196.537 75.3036 196.122 75.1976 195.785 74.9854C195.448 74.7695 195.192 74.4854 195.018 74.1332C194.843 73.7771 194.756 73.387 194.756 72.9627ZM195.915 72.3491V72.9627C195.915 73.315 195.999 73.6313 196.165 73.9116C196.332 74.1881 196.62 74.3263 197.029 74.3263C197.427 74.3263 197.707 74.1881 197.87 73.9116C198.037 73.6313 198.12 73.315 198.12 72.9627V72.3491C198.12 71.9968 198.04 71.6824 197.881 71.4059C197.722 71.1256 197.438 70.9854 197.029 70.9854C196.631 70.9854 196.345 71.1256 196.171 71.4059C196.001 71.6824 195.915 71.9968 195.915 72.3491ZM188.961 66.3036V65.69C188.961 65.2657 189.048 64.8775 189.222 64.5252C189.4 64.1692 189.658 63.8851 189.995 63.6729C190.336 63.457 190.749 63.3491 191.234 63.3491C191.726 63.3491 192.139 63.457 192.472 63.6729C192.806 63.8851 193.057 64.1692 193.228 64.5252C193.398 64.8775 193.484 65.2657 193.484 65.69V66.3036C193.484 66.7279 193.396 67.118 193.222 67.4741C193.052 67.8263 192.798 68.1104 192.461 68.3263C192.127 68.5385 191.718 68.6445 191.234 68.6445C190.741 68.6445 190.326 68.5385 189.989 68.3263C189.652 68.1104 189.396 67.8263 189.222 67.4741C189.048 67.118 188.961 66.7279 188.961 66.3036ZM190.12 65.69V66.3036C190.12 66.6559 190.203 66.9722 190.37 67.2525C190.537 67.529 190.824 67.6673 191.234 67.6673C191.631 67.6673 191.912 67.529 192.074 67.2525C192.241 66.9722 192.324 66.6559 192.324 66.3036V65.69C192.324 65.3377 192.245 65.0233 192.086 64.7468C191.927 64.4665 191.643 64.3263 191.234 64.3263C190.836 64.3263 190.55 64.4665 190.376 64.7468C190.205 65.0233 190.12 65.3377 190.12 65.69ZM189.393 75.1445L197.393 63.5082H198.688L190.688 75.1445H189.393Z" fill="#05CD99"/>
<path d="M121.253 91.2168V90.5776L123.653 87.9498C123.935 87.642 124.167 87.3745 124.349 87.1472C124.532 86.9176 124.667 86.7021 124.754 86.5009C124.844 86.2973 124.889 86.0842 124.889 85.8617C124.889 85.606 124.828 85.3846 124.705 85.1976C124.584 85.0106 124.418 84.8662 124.207 84.7644C123.997 84.6626 123.76 84.6117 123.497 84.6117C123.218 84.6117 122.974 84.6697 122.766 84.7857C122.56 84.8993 122.4 85.0591 122.286 85.2651C122.175 85.4711 122.119 85.7125 122.119 85.9895H121.281C121.281 85.5634 121.379 85.1893 121.576 84.8674C121.772 84.5454 122.04 84.2944 122.379 84.1145C122.719 83.9346 123.102 83.8446 123.526 83.8446C123.952 83.8446 124.329 83.9346 124.658 84.1145C124.987 84.2944 125.246 84.5371 125.433 84.8425C125.62 85.1479 125.713 85.4876 125.713 85.8617C125.713 86.1292 125.665 86.3908 125.567 86.6465C125.473 86.8998 125.307 87.1827 125.07 87.4952C124.836 87.8053 124.51 88.1841 124.094 88.6316L122.46 90.3787V90.4355H125.841V91.2168H121.253ZM129.722 91.3162C129.424 91.3115 129.126 91.2547 128.827 91.1458C128.529 91.0369 128.257 90.8534 128.011 90.5953C127.764 90.3349 127.567 89.9834 127.418 89.5407C127.268 89.0956 127.194 88.5369 127.194 87.8645C127.194 87.2206 127.254 86.65 127.375 86.1529C127.496 85.6533 127.671 85.2331 127.901 84.8922C128.13 84.5489 128.407 84.2885 128.732 84.111C129.058 83.9334 129.426 83.8446 129.836 83.8446C130.243 83.8446 130.605 83.9263 130.923 84.0897C131.242 84.2507 131.503 84.4756 131.704 84.7644C131.905 85.0532 132.035 85.3858 132.094 85.7623H131.228C131.147 85.4355 130.991 85.1645 130.759 84.949C130.527 84.7336 130.219 84.6259 129.836 84.6259C129.272 84.6259 128.829 84.8709 128.504 85.361C128.182 85.851 128.02 86.5388 128.018 87.4242H128.075C128.207 87.223 128.365 87.0513 128.547 86.9093C128.732 86.7649 128.935 86.6536 129.158 86.5755C129.38 86.4973 129.616 86.4583 129.864 86.4583C130.281 86.4583 130.662 86.5624 131.008 86.7708C131.353 86.9767 131.63 87.262 131.839 87.6266C132.047 87.9888 132.151 88.4043 132.151 88.873C132.151 89.3229 132.051 89.7348 131.849 90.1088C131.648 90.4805 131.365 90.7765 131.001 90.9966C130.638 91.2144 130.212 91.321 129.722 91.3162ZM129.722 90.535C130.021 90.535 130.288 90.4604 130.525 90.3113C130.764 90.1621 130.952 89.9621 131.089 89.7111C131.229 89.4602 131.299 89.1808 131.299 88.873C131.299 88.5724 131.232 88.2989 131.097 88.0527C130.964 87.8042 130.781 87.6065 130.546 87.4597C130.314 87.3129 130.049 87.2395 129.751 87.2395C129.526 87.2395 129.316 87.2845 129.122 87.3745C128.928 87.4621 128.758 87.5828 128.611 87.7367C128.466 87.8906 128.353 88.0669 128.27 88.2658C128.187 88.4623 128.146 88.6694 128.146 88.8873C128.146 89.1761 128.213 89.446 128.348 89.6969C128.485 89.9479 128.672 90.1503 128.909 90.3042C129.148 90.458 129.419 90.535 129.722 90.535ZM135.92 91.3162C135.385 91.3162 134.929 91.1706 134.553 90.8794C134.176 90.5859 133.889 90.1609 133.69 89.6046C133.491 89.0459 133.392 88.3712 133.392 87.5804C133.392 86.7944 133.491 86.1233 133.69 85.5669C133.891 85.0082 134.18 84.5821 134.556 84.2885C134.935 83.9926 135.39 83.8446 135.92 83.8446C136.45 83.8446 136.904 83.9926 137.28 84.2885C137.659 84.5821 137.948 85.0082 138.146 85.5669C138.348 86.1233 138.448 86.7944 138.448 87.5804C138.448 88.3712 138.349 89.0459 138.15 89.6046C137.951 90.1609 137.664 90.5859 137.287 90.8794C136.911 91.1706 136.455 91.3162 135.92 91.3162ZM135.92 90.535C136.45 90.535 136.862 90.2793 137.156 89.7679C137.449 89.2566 137.596 88.5274 137.596 87.5804C137.596 86.9507 137.529 86.4145 137.394 85.9718C137.261 85.5291 137.069 85.1917 136.818 84.9597C136.57 84.7277 136.27 84.6117 135.92 84.6117C135.394 84.6117 134.984 84.8709 134.688 85.3894C134.392 85.9055 134.244 86.6358 134.244 87.5804C134.244 88.2102 134.31 88.7452 134.443 89.1855C134.575 89.6259 134.766 89.9609 135.014 90.1905C135.265 90.4202 135.567 90.535 135.92 90.535ZM147.511 83.9441H148.392V88.7594C148.392 89.2566 148.274 89.7005 148.04 90.0911C147.808 90.4793 147.48 90.7859 147.056 91.0108C146.633 91.2334 146.135 91.3446 145.565 91.3446C144.994 91.3446 144.497 91.2334 144.073 91.0108C143.65 90.7859 143.32 90.4793 143.086 90.0911C142.854 89.7005 142.738 89.2566 142.738 88.7594V83.9441H143.619V88.6884C143.619 89.0435 143.697 89.3596 143.853 89.6365C144.009 89.9112 144.232 90.1278 144.521 90.2864C144.812 90.4426 145.16 90.5208 145.565 90.5208C145.97 90.5208 146.318 90.4426 146.609 90.2864C146.9 90.1278 147.123 89.9112 147.276 89.6365C147.433 89.3596 147.511 89.0435 147.511 88.6884V83.9441ZM153.9 86.9838L153.147 87.1969C153.1 87.0714 153.03 86.9495 152.938 86.8311C152.848 86.7104 152.725 86.611 152.569 86.5328C152.412 86.4547 152.212 86.4157 151.968 86.4157C151.635 86.4157 151.356 86.4926 151.134 86.6465C150.914 86.798 150.804 86.9909 150.804 87.2253C150.804 87.4337 150.879 87.5982 151.031 87.7189C151.182 87.8397 151.419 87.9403 151.741 88.0208L152.551 88.2196C153.038 88.338 153.402 88.5191 153.641 88.763C153.88 89.0044 154 89.3158 154 89.6969C154 90.0094 153.91 90.2888 153.73 90.535C153.552 90.7812 153.304 90.9753 152.984 91.1174C152.664 91.2594 152.293 91.3304 151.869 91.3304C151.313 91.3304 150.852 91.2097 150.488 90.9682C150.123 90.7267 149.892 90.374 149.795 89.91L150.591 89.7111C150.666 90.0047 150.81 90.2248 151.02 90.3716C151.233 90.5184 151.511 90.5918 151.855 90.5918C152.245 90.5918 152.556 90.5089 152.785 90.3432C153.017 90.1751 153.133 89.9739 153.133 89.7395C153.133 89.5501 153.067 89.3915 152.934 89.2637C152.802 89.1335 152.598 89.0364 152.324 88.9725L151.414 88.7594C150.915 88.641 150.548 88.4576 150.314 88.209C150.082 87.958 149.966 87.6444 149.966 87.2679C149.966 86.9602 150.052 86.6879 150.225 86.4512C150.4 86.2144 150.638 86.0286 150.939 85.8936C151.242 85.7587 151.585 85.6912 151.968 85.6912C152.508 85.6912 152.932 85.8096 153.24 86.0463C153.55 86.2831 153.77 86.5956 153.9 86.9838ZM157.548 91.3304C157.023 91.3304 156.569 91.2144 156.188 90.9824C155.809 90.748 155.517 90.4213 155.311 90.0023C155.107 89.5809 155.006 89.0908 155.006 88.5321C155.006 87.9734 155.107 87.481 155.311 87.0549C155.517 86.6264 155.803 86.2926 156.17 86.0534C156.54 85.812 156.97 85.6912 157.463 85.6912C157.747 85.6912 158.028 85.7386 158.305 85.8333C158.581 85.928 158.834 86.0819 159.061 86.2949C159.288 86.5056 159.469 86.785 159.604 87.133C159.739 87.481 159.807 87.9095 159.807 88.4185V88.7736H155.602V88.0492H158.954C158.954 87.7414 158.893 87.4668 158.77 87.2253C158.649 86.9838 158.476 86.7933 158.251 86.6536C158.029 86.5139 157.766 86.4441 157.463 86.4441C157.129 86.4441 156.84 86.5269 156.596 86.6926C156.355 86.856 156.169 87.0691 156.039 87.3319C155.909 87.5946 155.844 87.8764 155.844 88.177V88.66C155.844 89.0719 155.915 89.4211 156.057 89.7076C156.201 89.9917 156.401 90.2083 156.657 90.3574C156.912 90.5042 157.21 90.5776 157.548 90.5776C157.768 90.5776 157.967 90.5468 158.145 90.4853C158.325 90.4213 158.48 90.3266 158.61 90.2012C158.74 90.0733 158.841 89.9147 158.912 89.7253L159.721 89.9526C159.636 90.2272 159.493 90.4687 159.292 90.677C159.09 90.883 158.842 91.044 158.546 91.16C158.25 91.2736 157.917 91.3304 157.548 91.3304ZM161.081 91.2168V85.7623H161.891V86.5861H161.948C162.047 86.3162 162.227 86.0972 162.488 85.9292C162.748 85.7611 163.042 85.677 163.368 85.677C163.43 85.677 163.507 85.6782 163.599 85.6806C163.692 85.6829 163.761 85.6865 163.809 85.6912V86.5435C163.78 86.5364 163.715 86.5257 163.613 86.5115C163.514 86.495 163.409 86.4867 163.297 86.4867C163.032 86.4867 162.796 86.5423 162.587 86.6536C162.381 86.7625 162.218 86.914 162.097 87.1081C161.979 87.2999 161.92 87.5189 161.92 87.7651V91.2168H161.081ZM168.666 86.9838L167.913 87.1969C167.866 87.0714 167.796 86.9495 167.703 86.8311C167.614 86.7104 167.49 86.611 167.334 86.5328C167.178 86.4547 166.978 86.4157 166.734 86.4157C166.4 86.4157 166.122 86.4926 165.9 86.6465C165.679 86.798 165.569 86.9909 165.569 87.2253C165.569 87.4337 165.645 87.5982 165.797 87.7189C165.948 87.8397 166.185 87.9403 166.507 88.0208L167.316 88.2196C167.804 88.338 168.167 88.5191 168.407 88.763C168.646 89.0044 168.765 89.3158 168.765 89.6969C168.765 90.0094 168.675 90.2888 168.495 90.535C168.318 90.7812 168.069 90.9753 167.75 91.1174C167.43 91.2594 167.058 91.3304 166.635 91.3304C166.078 91.3304 165.618 91.2097 165.253 90.9682C164.889 90.7267 164.658 90.374 164.561 89.91L165.356 89.7111C165.432 90.0047 165.575 90.2248 165.786 90.3716C165.999 90.5184 166.277 90.5918 166.62 90.5918C167.011 90.5918 167.321 90.5089 167.551 90.3432C167.783 90.1751 167.899 89.9739 167.899 89.7395C167.899 89.5501 167.833 89.3915 167.7 89.2637C167.567 89.1335 167.364 89.0364 167.089 88.9725L166.18 88.7594C165.681 88.641 165.314 88.4576 165.079 88.209C164.847 87.958 164.731 87.6444 164.731 87.2679C164.731 86.9602 164.818 86.6879 164.99 86.4512C165.166 86.2144 165.404 86.0286 165.704 85.8936C166.007 85.7587 166.35 85.6912 166.734 85.6912C167.274 85.6912 167.698 85.8096 168.005 86.0463C168.315 86.2831 168.536 86.5956 168.666 86.9838ZM175.211 85.7623V86.4725H172.385V85.7623H175.211ZM173.209 84.4554H174.047V89.6543C174.047 89.891 174.081 90.0686 174.15 90.187C174.221 90.303 174.311 90.3811 174.42 90.4213C174.531 90.4592 174.648 90.4782 174.771 90.4782C174.863 90.4782 174.939 90.4734 174.998 90.464C175.058 90.4521 175.105 90.4426 175.14 90.4355L175.311 91.1884C175.254 91.2097 175.175 91.231 175.073 91.2523C174.971 91.276 174.842 91.2878 174.686 91.2878C174.449 91.2878 174.217 91.2369 173.99 91.1351C173.765 91.0333 173.578 90.8783 173.429 90.6699C173.282 90.4616 173.209 90.1988 173.209 89.8816V84.4554ZM177.427 87.9355V91.2168H176.589V83.9441H177.427V86.6145H177.498C177.626 86.3328 177.818 86.1091 178.074 85.9434C178.332 85.7753 178.675 85.6912 179.104 85.6912C179.475 85.6912 179.801 85.7658 180.08 85.915C180.359 86.0617 180.576 86.2878 180.73 86.5932C180.886 86.8962 180.964 87.2821 180.964 87.7509V91.2168H180.126V87.8077C180.126 87.3745 180.014 87.0395 179.789 86.8027C179.566 86.5636 179.257 86.4441 178.862 86.4441C178.587 86.4441 178.341 86.5021 178.123 86.6181C177.908 86.7341 177.738 86.9033 177.612 87.1259C177.489 87.3484 177.427 87.6183 177.427 87.9355ZM182.498 91.2168V85.7623H183.336V91.2168H182.498ZM182.924 84.8532C182.76 84.8532 182.619 84.7975 182.501 84.6863C182.385 84.575 182.327 84.4412 182.327 84.285C182.327 84.1287 182.385 83.995 182.501 83.8837C182.619 83.7724 182.76 83.7168 182.924 83.7168C183.087 83.7168 183.227 83.7724 183.343 83.8837C183.461 83.995 183.52 84.1287 183.52 84.285C183.52 84.4412 183.461 84.575 183.343 84.6863C183.227 84.7975 183.087 84.8532 182.924 84.8532ZM188.734 86.9838L187.981 87.1969C187.934 87.0714 187.864 86.9495 187.772 86.8311C187.682 86.7104 187.559 86.611 187.403 86.5328C187.246 86.4547 187.046 86.4157 186.802 86.4157C186.469 86.4157 186.19 86.4926 185.968 86.6465C185.748 86.798 185.638 86.9909 185.638 87.2253C185.638 87.4337 185.713 87.5982 185.865 87.7189C186.016 87.8397 186.253 87.9403 186.575 88.0208L187.385 88.2196C187.872 88.338 188.236 88.5191 188.475 88.763C188.714 89.0044 188.834 89.3158 188.834 89.6969C188.834 90.0094 188.744 90.2888 188.564 90.535C188.386 90.7812 188.138 90.9753 187.818 91.1174C187.498 91.2594 187.127 91.3304 186.703 91.3304C186.147 91.3304 185.686 91.2097 185.322 90.9682C184.957 90.7267 184.726 90.374 184.629 89.91L185.425 89.7111C185.5 90.0047 185.644 90.2248 185.854 90.3716C186.067 90.5184 186.345 90.5918 186.689 90.5918C187.079 90.5918 187.39 90.5089 187.619 90.3432C187.851 90.1751 187.967 89.9739 187.967 89.7395C187.967 89.5501 187.901 89.3915 187.768 89.2637C187.636 89.1335 187.432 89.0364 187.157 88.9725L186.248 88.7594C185.749 88.641 185.382 88.4576 185.148 88.209C184.916 87.958 184.8 87.6444 184.8 87.2679C184.8 86.9602 184.886 86.6879 185.059 86.4512C185.234 86.2144 185.472 86.0286 185.773 85.8936C186.076 85.7587 186.419 85.6912 186.802 85.6912C187.342 85.6912 187.766 85.8096 188.074 86.0463C188.384 86.2831 188.604 86.5956 188.734 86.9838ZM192.908 91.2168V85.7623H193.717V86.6145H193.788C193.902 86.3233 194.085 86.0972 194.339 85.9363C194.592 85.7729 194.896 85.6912 195.251 85.6912C195.611 85.6912 195.911 85.7729 196.15 85.9363C196.391 86.0972 196.58 86.3233 196.714 86.6145H196.771C196.911 86.3328 197.121 86.1091 197.4 85.9434C197.679 85.7753 198.014 85.6912 198.405 85.6912C198.893 85.6912 199.291 85.8439 199.602 86.1493C199.912 86.4524 200.067 86.9247 200.067 87.5662V91.2168H199.229V87.5662C199.229 87.1638 199.119 86.8761 198.898 86.7033C198.678 86.5305 198.419 86.4441 198.121 86.4441C197.737 86.4441 197.44 86.5601 197.229 86.7921C197.019 87.0217 196.913 87.3129 196.913 87.6657V91.2168H196.061V87.481C196.061 87.1709 195.96 86.9211 195.759 86.7317C195.558 86.54 195.299 86.4441 194.982 86.4441C194.764 86.4441 194.56 86.5021 194.371 86.6181C194.184 86.7341 194.032 86.8951 193.916 87.101C193.803 87.3046 193.746 87.5402 193.746 87.8077V91.2168H192.908ZM203.815 91.3304C203.323 91.3304 202.891 91.2132 202.519 90.9789C202.15 90.7445 201.861 90.4166 201.652 89.9952C201.446 89.5738 201.343 89.0814 201.343 88.5179C201.343 87.9498 201.446 87.4538 201.652 87.03C201.861 86.6062 202.15 86.2772 202.519 86.0428C202.891 85.8084 203.323 85.6912 203.815 85.6912C204.307 85.6912 204.738 85.8084 205.108 86.0428C205.479 86.2772 205.768 86.6062 205.974 87.03C206.182 87.4538 206.287 87.9498 206.287 88.5179C206.287 89.0814 206.182 89.5738 205.974 89.9952C205.768 90.4166 205.479 90.7445 205.108 90.9789C204.738 91.2132 204.307 91.3304 203.815 91.3304ZM203.815 90.5776C204.189 90.5776 204.497 90.4817 204.738 90.29C204.98 90.0982 205.158 89.8461 205.275 89.5336C205.391 89.2211 205.449 88.8825 205.449 88.5179C205.449 88.1533 205.391 87.8136 205.275 87.4988C205.158 87.1839 204.98 86.9294 204.738 86.7353C204.497 86.5411 204.189 86.4441 203.815 86.4441C203.441 86.4441 203.133 86.5411 202.892 86.7353C202.65 86.9294 202.471 87.1839 202.355 87.4988C202.239 87.8136 202.181 88.1533 202.181 88.5179C202.181 88.8825 202.239 89.2211 202.355 89.5336C202.471 89.8461 202.65 90.0982 202.892 90.29C203.133 90.4817 203.441 90.5776 203.815 90.5776ZM208.404 87.9355V91.2168H207.566V85.7623H208.376V86.6145H208.447C208.574 86.3375 208.769 86.115 209.029 85.9469C209.289 85.7765 209.626 85.6912 210.037 85.6912C210.407 85.6912 210.73 85.767 211.007 85.9185C211.284 86.0676 211.499 86.2949 211.653 86.6003C211.807 86.9033 211.884 87.2869 211.884 87.7509V91.2168H211.046V87.8077C211.046 87.3792 210.935 87.0454 210.712 86.8063C210.49 86.5648 210.184 86.4441 209.796 86.4441C209.528 86.4441 209.289 86.5021 209.079 86.6181C208.87 86.7341 208.706 86.9033 208.585 87.1259C208.464 87.3484 208.404 87.6183 208.404 87.9355ZM215.788 85.7623V86.4725H212.961V85.7623H215.788ZM213.785 84.4554H214.623V89.6543C214.623 89.891 214.657 90.0686 214.726 90.187C214.797 90.303 214.887 90.3811 214.996 90.4213C215.107 90.4592 215.224 90.4782 215.347 90.4782C215.44 90.4782 215.515 90.4734 215.575 90.464C215.634 90.4521 215.681 90.4426 215.717 90.4355L215.887 91.1884C215.83 91.2097 215.751 91.231 215.649 91.2523C215.547 91.276 215.418 91.2878 215.262 91.2878C215.025 91.2878 214.793 91.2369 214.566 91.1351C214.341 91.0333 214.154 90.8783 214.005 90.6699C213.858 90.4616 213.785 90.1988 213.785 89.8816V84.4554ZM218.004 87.9355V91.2168H217.165V83.9441H218.004V86.6145H218.075C218.202 86.3328 218.394 86.1091 218.65 85.9434C218.908 85.7753 219.251 85.6912 219.68 85.6912C220.051 85.6912 220.377 85.7658 220.656 85.915C220.936 86.0617 221.152 86.2878 221.306 86.5932C221.462 86.8962 221.54 87.2821 221.54 87.7509V91.2168H220.702V87.8077C220.702 87.3745 220.59 87.0395 220.365 86.8027C220.143 86.5636 219.834 86.4441 219.438 86.4441C219.164 86.4441 218.917 86.5021 218.7 86.6181C218.484 86.7341 218.314 86.9033 218.188 87.1259C218.065 87.3484 218.004 87.6183 218.004 87.9355Z" fill="#737B7B"/>
<path d="M114.939 303.782C114.894 303.379 114.706 303.066 114.377 302.845C114.047 302.62 113.632 302.508 113.132 302.508C112.774 302.508 112.465 302.565 112.203 302.678C111.942 302.789 111.739 302.943 111.594 303.139C111.452 303.332 111.381 303.552 111.381 303.799C111.381 304.007 111.429 304.186 111.526 304.336C111.625 304.487 111.755 304.613 111.914 304.715C112.076 304.815 112.249 304.899 112.434 304.967C112.618 305.032 112.796 305.086 112.966 305.129L113.818 305.35C114.097 305.419 114.382 305.511 114.675 305.627C114.968 305.744 115.239 305.897 115.489 306.088C115.739 306.278 115.941 306.514 116.094 306.795C116.25 307.076 116.328 307.413 116.328 307.805C116.328 308.299 116.201 308.738 115.945 309.122C115.692 309.505 115.324 309.808 114.841 310.029C114.361 310.251 113.78 310.362 113.098 310.362C112.445 310.362 111.88 310.258 111.402 310.051C110.925 309.843 110.551 309.549 110.282 309.169C110.012 308.785 109.863 308.33 109.834 307.805H111.155C111.181 308.12 111.283 308.383 111.462 308.593C111.644 308.801 111.875 308.955 112.157 309.058C112.441 309.157 112.752 309.207 113.09 309.207C113.462 309.207 113.793 309.149 114.083 309.032C114.375 308.913 114.605 308.748 114.773 308.538C114.941 308.325 115.024 308.076 115.024 307.792C115.024 307.534 114.951 307.322 114.803 307.157C114.658 306.992 114.461 306.856 114.211 306.748C113.963 306.64 113.684 306.545 113.371 306.463L112.34 306.181C111.641 305.991 111.087 305.711 110.678 305.342C110.272 304.972 110.068 304.484 110.068 303.876C110.068 303.373 110.205 302.934 110.478 302.559C110.75 302.184 111.12 301.893 111.586 301.686C112.051 301.475 112.577 301.37 113.162 301.37C113.753 301.37 114.274 301.474 114.726 301.681C115.181 301.889 115.539 302.174 115.8 302.538C116.061 302.899 116.198 303.313 116.209 303.782H114.939ZM117.662 310.217V301.49H123.134V302.623H118.979V305.282H122.848V306.411H118.979V309.083H123.185V310.217H117.662ZM124.652 310.217V301.49H127.763C128.442 301.49 129.005 301.613 129.451 301.86C129.897 302.107 130.231 302.445 130.452 302.874C130.674 303.301 130.785 303.781 130.785 304.315C130.785 304.852 130.672 305.335 130.448 305.764C130.226 306.19 129.891 306.528 129.442 306.778C128.996 307.025 128.435 307.149 127.759 307.149H125.62V306.032H127.64C128.069 306.032 128.417 305.958 128.684 305.811C128.951 305.66 129.147 305.455 129.272 305.197C129.397 304.938 129.459 304.644 129.459 304.315C129.459 303.985 129.397 303.693 129.272 303.437C129.147 303.181 128.949 302.981 128.679 302.836C128.412 302.691 128.06 302.619 127.623 302.619H125.969V310.217H124.652Z" fill="#CDCFD4"/>
<path d="M197.893 305.853C197.893 306.785 197.723 307.586 197.382 308.257C197.041 308.924 196.573 309.438 195.98 309.799C195.389 310.157 194.717 310.336 193.964 310.336C193.208 310.336 192.534 310.157 191.94 309.799C191.349 309.438 190.883 308.923 190.542 308.252C190.201 307.582 190.031 306.782 190.031 305.853C190.031 304.921 190.201 304.122 190.542 303.454C190.883 302.784 191.349 302.269 191.94 301.911C192.534 301.551 193.208 301.37 193.964 301.37C194.717 301.37 195.389 301.551 195.98 301.911C196.573 302.269 197.041 302.784 197.382 303.454C197.723 304.122 197.893 304.921 197.893 305.853ZM196.589 305.853C196.589 305.143 196.474 304.545 196.244 304.059C196.017 303.57 195.704 303.201 195.306 302.951C194.912 302.698 194.464 302.572 193.964 302.572C193.461 302.572 193.012 302.698 192.617 302.951C192.223 303.201 191.91 303.57 191.68 304.059C191.453 304.545 191.339 305.143 191.339 305.853C191.339 306.563 191.453 307.163 191.68 307.651C191.91 308.137 192.223 308.507 192.617 308.759C193.012 309.009 193.461 309.134 193.964 309.134C194.464 309.134 194.912 309.009 195.306 308.759C195.704 308.507 196.017 308.137 196.244 307.651C196.474 307.163 196.589 306.563 196.589 305.853ZM206.543 304.328H205.214C205.163 304.044 205.067 303.794 204.928 303.578C204.789 303.362 204.619 303.178 204.417 303.028C204.215 302.877 203.989 302.764 203.739 302.687C203.492 302.61 203.229 302.572 202.951 302.572C202.448 302.572 201.998 302.698 201.6 302.951C201.205 303.204 200.893 303.575 200.663 304.063C200.435 304.552 200.322 305.149 200.322 305.853C200.322 306.563 200.435 307.163 200.663 307.651C200.893 308.14 201.207 308.509 201.604 308.759C202.002 309.009 202.45 309.134 202.947 309.134C203.222 309.134 203.484 309.097 203.731 309.024C203.981 308.947 204.207 308.835 204.408 308.687C204.61 308.539 204.781 308.359 204.92 308.146C205.062 307.93 205.16 307.683 205.214 307.404L206.543 307.409C206.472 307.838 206.335 308.232 206.13 308.593C205.928 308.951 205.668 309.261 205.35 309.522C205.035 309.781 204.674 309.981 204.268 310.123C203.862 310.265 203.418 310.336 202.938 310.336C202.183 310.336 201.509 310.157 200.918 309.799C200.327 309.438 199.862 308.923 199.521 308.252C199.183 307.582 199.013 306.782 199.013 305.853C199.013 304.921 199.184 304.122 199.525 303.454C199.866 302.784 200.332 302.269 200.923 301.911C201.513 301.551 202.185 301.37 202.938 301.37C203.401 301.37 203.833 301.437 204.234 301.57C204.637 301.701 204.999 301.894 205.32 302.15C205.641 302.403 205.907 302.713 206.117 303.079C206.327 303.443 206.469 303.859 206.543 304.328ZM207.449 302.623V301.49H214.203V302.623H211.48V310.217H210.167V302.623H207.449Z" fill="#CDCFD4"/>
<path d="M278.96 301.49V310.217H277.749L273.313 303.816H273.232V310.217H271.916V301.49H273.134L277.575 307.899H277.656V301.49H278.96ZM288.221 305.853C288.221 306.785 288.051 307.586 287.71 308.257C287.369 308.924 286.902 309.438 286.308 309.799C285.717 310.157 285.045 310.336 284.292 310.336C283.537 310.336 282.862 310.157 282.268 309.799C281.677 309.438 281.211 308.923 280.871 308.252C280.53 307.582 280.359 306.782 280.359 305.853C280.359 304.921 280.53 304.122 280.871 303.454C281.211 302.784 281.677 302.269 282.268 301.911C282.862 301.551 283.537 301.37 284.292 301.37C285.045 301.37 285.717 301.551 286.308 301.911C286.902 302.269 287.369 302.784 287.71 303.454C288.051 304.122 288.221 304.921 288.221 305.853ZM286.917 305.853C286.917 305.143 286.802 304.545 286.572 304.059C286.345 303.57 286.033 303.201 285.635 302.951C285.24 302.698 284.792 302.572 284.292 302.572C283.79 302.572 283.341 302.698 282.946 302.951C282.551 303.201 282.238 303.57 282.008 304.059C281.781 304.545 281.667 305.143 281.667 305.853C281.667 306.563 281.781 307.163 282.008 307.651C282.238 308.137 282.551 308.507 282.946 308.759C283.341 309.009 283.79 309.134 284.292 309.134C284.792 309.134 285.24 309.009 285.635 308.759C286.033 308.507 286.345 308.137 286.572 307.651C286.802 307.163 286.917 306.563 286.917 305.853ZM289.952 301.49L292.381 308.597H292.479L294.908 301.49H296.332L293.191 310.217H291.67L288.529 301.49H289.952Z" fill="#CDCFD4"/>
<path d="M357.212 310.217H354.386V301.49H357.301C358.156 301.49 358.891 301.664 359.504 302.014C360.118 302.36 360.588 302.859 360.915 303.509C361.244 304.157 361.409 304.934 361.409 305.84C361.409 306.749 361.243 307.531 360.91 308.184C360.581 308.838 360.104 309.34 359.479 309.693C358.854 310.042 358.098 310.217 357.212 310.217ZM355.703 309.066H357.139C357.804 309.066 358.356 308.941 358.797 308.691C359.237 308.438 359.567 308.073 359.785 307.596C360.004 307.116 360.114 306.531 360.114 305.84C360.114 305.156 360.004 304.575 359.785 304.097C359.57 303.62 359.247 303.258 358.818 303.011C358.389 302.764 357.856 302.64 357.22 302.64H355.703V309.066ZM362.806 310.217V301.49H368.278V302.623H364.123V305.282H367.993V306.411H364.123V309.083H368.329V310.217H362.806ZM377.046 304.328H375.716C375.665 304.044 375.57 303.794 375.43 303.578C375.291 303.362 375.121 303.178 374.919 303.028C374.717 302.877 374.492 302.764 374.242 302.687C373.994 302.61 373.732 302.572 373.453 302.572C372.95 302.572 372.5 302.698 372.102 302.951C371.707 303.204 371.395 303.575 371.165 304.063C370.938 304.552 370.824 305.149 370.824 305.853C370.824 306.563 370.938 307.163 371.165 307.651C371.395 308.14 371.709 308.509 372.107 308.759C372.504 309.009 372.952 309.134 373.449 309.134C373.725 309.134 373.986 309.097 374.233 309.024C374.483 308.947 374.709 308.835 374.911 308.687C375.112 308.539 375.283 308.359 375.422 308.146C375.564 307.93 375.662 307.683 375.716 307.404L377.046 307.409C376.975 307.838 376.837 308.232 376.632 308.593C376.43 308.951 376.171 309.261 375.852 309.522C375.537 309.781 375.176 309.981 374.77 310.123C374.364 310.265 373.921 310.336 373.44 310.336C372.685 310.336 372.011 310.157 371.421 309.799C370.83 309.438 370.364 308.923 370.023 308.252C369.685 307.582 369.516 306.782 369.516 305.853C369.516 304.921 369.686 304.122 370.027 303.454C370.368 302.784 370.834 302.269 371.425 301.911C372.016 301.551 372.688 301.37 373.44 301.37C373.903 301.37 374.335 301.437 374.736 301.57C375.139 301.701 375.501 301.894 375.823 302.15C376.144 302.403 376.409 302.713 376.619 303.079C376.83 303.443 376.972 303.859 377.046 304.328Z" fill="#CDCFD4"/>
<path d="M439.892 301.49H441.204V307.677C441.204 308.237 441.093 308.715 440.872 309.113C440.653 309.511 440.345 309.815 439.947 310.025C439.549 310.232 439.083 310.336 438.549 310.336C438.058 310.336 437.616 310.247 437.224 310.068C436.835 309.889 436.527 309.629 436.299 309.288C436.075 308.944 435.963 308.526 435.963 308.035H437.271C437.271 308.276 437.326 308.485 437.437 308.661C437.551 308.838 437.706 308.975 437.902 309.075C438.1 309.171 438.328 309.22 438.583 309.22C438.862 309.22 439.098 309.161 439.291 309.045C439.487 308.926 439.636 308.751 439.738 308.521C439.84 308.291 439.892 308.009 439.892 307.677V301.49ZM443.618 310.217H442.22L445.361 301.49H446.882L450.023 310.217H448.625L446.158 303.075H446.089L443.618 310.217ZM443.852 306.799H448.386V307.907H443.852V306.799ZM458.087 301.49V310.217H456.877L452.441 303.816H452.36V310.217H451.043V301.49H452.262L456.702 307.899H456.783V301.49H458.087Z" fill="#CDCFD4"/>
<path d="M519.187 310.217V301.49H524.599V302.623H520.504V305.282H524.211V306.411H520.504V310.217H519.187ZM525.978 310.217V301.49H531.45V302.623H527.295V305.282H531.164V306.411H527.295V309.083H531.501V310.217H525.978ZM532.969 310.217V301.49H536.165C536.784 301.49 537.297 301.592 537.703 301.796C538.109 301.998 538.413 302.272 538.615 302.619C538.817 302.963 538.918 303.35 538.918 303.782C538.918 304.146 538.851 304.453 538.717 304.703C538.584 304.95 538.405 305.149 538.18 305.299C537.959 305.447 537.715 305.555 537.448 305.623V305.708C537.737 305.722 538.02 305.816 538.296 305.99C538.574 306.16 538.804 306.403 538.986 306.718C539.168 307.034 539.259 307.417 539.259 307.869C539.259 308.315 539.153 308.715 538.943 309.07C538.736 309.423 538.415 309.703 537.98 309.91C537.546 310.115 536.99 310.217 536.314 310.217H532.969ZM534.286 309.088H536.186C536.817 309.088 537.269 308.965 537.541 308.721C537.814 308.477 537.95 308.171 537.95 307.805C537.95 307.529 537.881 307.276 537.742 307.046C537.602 306.816 537.403 306.633 537.145 306.497C536.889 306.36 536.585 306.292 536.233 306.292H534.286V309.088ZM534.286 305.265H536.05C536.345 305.265 536.611 305.208 536.847 305.095C537.085 304.981 537.274 304.822 537.413 304.617C537.555 304.41 537.626 304.166 537.626 303.884C537.626 303.524 537.5 303.221 537.247 302.977C536.994 302.732 536.607 302.61 536.084 302.61H534.286V305.265Z" fill="#CDCFD4"/>
<path d="M598.541 301.49H600.139L602.917 308.274H603.019L605.798 301.49H607.396V310.217H606.143V303.901H606.062L603.488 310.204H602.448L599.874 303.897H599.793V310.217H598.541V301.49ZM609.807 310.217H608.41L611.55 301.49H613.072L616.212 310.217H614.814L612.347 303.075H612.279L609.807 310.217ZM610.042 306.799H614.576V307.907H610.042V306.799ZM617.232 310.217V301.49H620.343C621.019 301.49 621.58 301.606 622.027 301.839C622.475 302.072 622.811 302.394 623.032 302.806C623.254 303.215 623.365 303.688 623.365 304.225C623.365 304.759 623.252 305.23 623.028 305.636C622.806 306.039 622.471 306.353 622.022 306.578C621.576 306.802 621.015 306.914 620.339 306.914H617.982V305.781H620.22C620.646 305.781 620.992 305.72 621.259 305.597C621.529 305.475 621.727 305.298 621.852 305.065C621.977 304.832 622.039 304.552 622.039 304.225C622.039 303.896 621.975 303.61 621.848 303.369C621.723 303.127 621.525 302.943 621.255 302.815C620.988 302.684 620.637 302.619 620.203 302.619H618.549V310.217H617.232ZM621.541 306.279L623.697 310.217H622.197L620.083 306.279H621.541Z" fill="#CDCFD4"/>
<rect x="590.676" y="15.2168" width="123" height="37" rx="7" fill="#7749F8" fill-opacity="0.1"/>
<g clip-path="url(#clip0_511_11203)">
<path d="M617.676 27.4668H616.926V26.7168C616.926 26.3043 616.588 25.9668 616.176 25.9668C615.763 25.9668 615.426 26.3043 615.426 26.7168V27.4668H607.926V26.7168C607.926 26.3043 607.588 25.9668 607.176 25.9668C606.763 25.9668 606.426 26.3043 606.426 26.7168V27.4668H605.676C604.851 27.4668 604.176 28.1418 604.176 28.9668V40.9668C604.176 41.7918 604.851 42.4668 605.676 42.4668H617.676C618.501 42.4668 619.176 41.7918 619.176 40.9668V28.9668C619.176 28.1418 618.501 27.4668 617.676 27.4668ZM616.926 40.9668H606.426C606.013 40.9668 605.676 40.6293 605.676 40.2168V31.2168H617.676V40.2168C617.676 40.6293 617.338 40.9668 616.926 40.9668Z" fill="#7749F8"/>
</g>
<path d="M629.966 39.2168V30.6208H627.068V29.4168H634.334V30.6208H631.45V39.2168H629.966ZM635.387 39.2168V29.1368H636.871V33.3928C637.104 32.9915 637.426 32.6788 637.837 32.4548C638.257 32.2215 638.719 32.1048 639.223 32.1048C640.053 32.1048 640.707 32.3661 641.183 32.8888C641.659 33.4115 641.897 34.1908 641.897 35.2268V39.2168H640.427V35.3808C640.427 34.0368 639.89 33.3648 638.817 33.3648C638.257 33.3648 637.79 33.5608 637.417 33.9528C637.053 34.3448 636.871 34.9048 636.871 35.6328V39.2168H635.387ZM644.204 30.9568C643.924 30.9568 643.691 30.8728 643.504 30.7048C643.327 30.5275 643.238 30.3081 643.238 30.0468C643.238 29.7855 643.327 29.5708 643.504 29.4028C643.691 29.2255 643.924 29.1368 644.204 29.1368C644.484 29.1368 644.713 29.2255 644.89 29.4028C645.077 29.5708 645.17 29.7855 645.17 30.0468C645.17 30.3081 645.077 30.5275 644.89 30.7048C644.713 30.8728 644.484 30.9568 644.204 30.9568ZM643.462 39.2168V32.2728H644.946V39.2168H643.462ZM649.397 39.3848C648.52 39.3848 647.797 39.1701 647.227 38.7408C646.658 38.3115 646.331 37.7421 646.247 37.0328H647.745C647.82 37.3501 647.997 37.6255 648.277 37.8588C648.557 38.0828 648.926 38.1948 649.383 38.1948C649.831 38.1948 650.158 38.1015 650.363 37.9148C650.569 37.7281 650.671 37.5135 650.671 37.2708C650.671 36.9161 650.527 36.6781 650.237 36.5568C649.957 36.4261 649.565 36.3095 649.061 36.2068C648.669 36.1228 648.277 36.0108 647.885 35.8708C647.503 35.7308 647.181 35.5348 646.919 35.2828C646.667 35.0215 646.541 34.6715 646.541 34.2328C646.541 33.6261 646.775 33.1221 647.241 32.7208C647.708 32.3101 648.361 32.1048 649.201 32.1048C649.976 32.1048 650.601 32.2915 651.077 32.6648C651.563 33.0381 651.847 33.5655 651.931 34.2468H650.503C650.457 33.9481 650.317 33.7148 650.083 33.5468C649.859 33.3788 649.556 33.2948 649.173 33.2948C648.8 33.2948 648.511 33.3741 648.305 33.5328C648.1 33.6821 647.997 33.8781 647.997 34.1208C647.997 34.3635 648.137 34.5548 648.417 34.6948C648.707 34.8348 649.085 34.9608 649.551 35.0728C650.018 35.1755 650.447 35.2968 650.839 35.4368C651.241 35.5675 651.563 35.7635 651.805 36.0248C652.048 36.2861 652.169 36.6688 652.169 37.1728C652.179 37.8075 651.931 38.3348 651.427 38.7548C650.933 39.1748 650.256 39.3848 649.397 39.3848ZM656.757 39.2168V32.2728H658.073L658.199 33.2528C658.423 32.8981 658.717 32.6181 659.081 32.4128C659.454 32.2075 659.883 32.1048 660.369 32.1048C661.47 32.1048 662.235 32.5388 662.665 33.4068C662.917 33.0055 663.253 32.6881 663.673 32.4548C664.102 32.2215 664.564 32.1048 665.059 32.1048C665.927 32.1048 666.608 32.3661 667.103 32.8888C667.597 33.4115 667.845 34.1908 667.845 35.2268V39.2168H666.361V35.3808C666.361 34.0368 665.847 33.3648 664.821 33.3648C664.298 33.3648 663.869 33.5608 663.533 33.9528C663.206 34.3448 663.043 34.9048 663.043 35.6328V39.2168H661.559V35.3808C661.559 34.0368 661.041 33.3648 660.005 33.3648C659.491 33.3648 659.067 33.5608 658.731 33.9528C658.404 34.3448 658.241 34.9048 658.241 35.6328V39.2168H656.757ZM672.549 39.3848C671.886 39.3848 671.289 39.2355 670.757 38.9368C670.234 38.6288 669.819 38.2041 669.511 37.6628C669.203 37.1121 669.049 36.4728 669.049 35.7448C669.049 35.0168 669.203 34.3821 669.511 33.8408C669.828 33.2901 670.253 32.8655 670.785 32.5668C671.317 32.2588 671.91 32.1048 672.563 32.1048C673.226 32.1048 673.818 32.2588 674.341 32.5668C674.873 32.8655 675.293 33.2901 675.601 33.8408C675.918 34.3821 676.077 35.0168 676.077 35.7448C676.077 36.4728 675.918 37.1121 675.601 37.6628C675.293 38.2041 674.873 38.6288 674.341 38.9368C673.809 39.2355 673.212 39.3848 672.549 39.3848ZM672.549 38.1108C672.904 38.1108 673.23 38.0221 673.529 37.8448C673.837 37.6675 674.084 37.4061 674.271 37.0608C674.458 36.7061 674.551 36.2675 674.551 35.7448C674.551 35.2221 674.458 34.7881 674.271 34.4428C674.094 34.0881 673.851 33.8221 673.543 33.6448C673.244 33.4675 672.918 33.3788 672.563 33.3788C672.208 33.3788 671.877 33.4675 671.569 33.6448C671.27 33.8221 671.028 34.0881 670.841 34.4428C670.654 34.7881 670.561 35.2221 670.561 35.7448C670.561 36.2675 670.654 36.7061 670.841 37.0608C671.028 37.4061 671.27 37.6675 671.569 37.8448C671.868 38.0221 672.194 38.1108 672.549 38.1108ZM677.402 39.2168V32.2728H678.718L678.83 33.4908C679.044 33.0615 679.357 32.7255 679.768 32.4828C680.188 32.2308 680.668 32.1048 681.21 32.1048C682.05 32.1048 682.708 32.3661 683.184 32.8888C683.669 33.4115 683.912 34.1908 683.912 35.2268V39.2168H682.442V35.3808C682.442 34.0368 681.891 33.3648 680.79 33.3648C680.239 33.3648 679.782 33.5608 679.418 33.9528C679.063 34.3448 678.886 34.9048 678.886 35.6328V39.2168H677.402ZM688.292 39.2168C687.61 39.2168 687.069 39.0535 686.668 38.7268C686.266 38.3908 686.066 37.7981 686.066 36.9488V33.5188H684.876V32.2728H686.066L686.248 30.5088H687.55V32.2728H689.51V33.5188H687.55V36.9488C687.55 37.3315 687.629 37.5975 687.788 37.7468C687.956 37.8868 688.24 37.9568 688.642 37.9568H689.44V39.2168H688.292ZM690.76 39.2168V29.1368H692.244V33.3928C692.477 32.9915 692.799 32.6788 693.21 32.4548C693.63 32.2215 694.092 32.1048 694.596 32.1048C695.426 32.1048 696.08 32.3661 696.556 32.8888C697.032 33.4115 697.27 34.1908 697.27 35.2268V39.2168H695.8V35.3808C695.8 34.0368 695.263 33.3648 694.19 33.3648C693.63 33.3648 693.163 33.5608 692.79 33.9528C692.426 34.3448 692.244 34.9048 692.244 35.6328V39.2168H690.76Z" fill="#7749F8"/>
<path d="M42.7883 140.336C42.2542 140.336 41.7741 140.234 41.348 140.029C40.9247 139.822 40.5866 139.538 40.3337 139.177C40.0809 138.816 39.946 138.404 39.9289 137.941H41.2073C41.2386 138.316 41.4048 138.624 41.7059 138.866C42.007 139.107 42.3678 139.228 42.7883 139.228C43.1235 139.228 43.4204 139.151 43.6789 138.998C43.9403 138.842 44.1448 138.627 44.2926 138.355C44.4431 138.082 44.5184 137.771 44.5184 137.421C44.5184 137.066 44.4417 136.749 44.2883 136.471C44.1349 136.193 43.9232 135.974 43.6534 135.815C43.3863 135.656 43.0795 135.575 42.7329 135.572C42.4687 135.572 42.2031 135.617 41.936 135.708C41.669 135.799 41.4531 135.919 41.2883 136.066L40.0823 135.887L40.5724 131.49H45.3707V132.619H41.6676L41.3906 135.061H41.4417C41.6122 134.896 41.838 134.758 42.1193 134.647C42.4034 134.536 42.7073 134.481 43.0312 134.481C43.5624 134.481 44.0355 134.607 44.4502 134.86C44.8678 135.113 45.196 135.458 45.4346 135.896C45.6761 136.33 45.7954 136.83 45.7926 137.396C45.7954 137.961 45.6676 138.465 45.409 138.909C45.1534 139.352 44.7982 139.701 44.3437 139.957C43.892 140.21 43.3735 140.336 42.7883 140.336ZM50.1474 140.362C49.4741 140.359 48.8988 140.181 48.4215 139.829C47.9442 139.477 47.5792 138.964 47.3263 138.291C47.0735 137.617 46.9471 136.806 46.9471 135.857C46.9471 134.911 47.0735 134.103 47.3263 133.433C47.582 132.762 47.9485 132.251 48.4258 131.899C48.9059 131.546 49.4798 131.37 50.1474 131.37C50.815 131.37 51.3874 131.548 51.8647 131.903C52.342 132.255 52.707 132.767 52.9599 133.437C53.2156 134.105 53.3434 134.911 53.3434 135.857C53.3434 136.809 53.217 137.622 52.9641 138.295C52.7113 138.965 52.3462 139.478 51.869 139.833C51.3917 140.186 50.8178 140.362 50.1474 140.362ZM50.1474 139.224C50.7383 139.224 51.1999 138.936 51.5323 138.359C51.8675 137.782 52.0352 136.948 52.0352 135.857C52.0352 135.133 51.9585 134.521 51.805 134.021C51.6545 133.518 51.4371 133.137 51.1531 132.879C50.8718 132.617 50.5366 132.487 50.1474 132.487C49.5593 132.487 49.0977 132.776 48.7624 133.356C48.4272 133.936 48.2582 134.769 48.2553 135.857C48.2553 136.585 48.3306 137.2 48.4812 137.703C48.6346 138.203 48.8519 138.582 49.1332 138.84C49.4144 139.096 49.7525 139.224 50.1474 139.224ZM57.6535 140.362C56.9802 140.359 56.4049 140.181 55.9276 139.829C55.4503 139.477 55.0853 138.964 54.8324 138.291C54.5796 137.617 54.4532 136.806 54.4532 135.857C54.4532 134.911 54.5796 134.103 54.8324 133.433C55.0881 132.762 55.4546 132.251 55.9319 131.899C56.412 131.546 56.9859 131.37 57.6535 131.37C58.3211 131.37 58.8935 131.548 59.3708 131.903C59.8481 132.255 60.2131 132.767 60.466 133.437C60.7216 134.105 60.8495 134.911 60.8495 135.857C60.8495 136.809 60.7231 137.622 60.4702 138.295C60.2174 138.965 59.8523 139.478 59.3751 139.833C58.8978 140.186 58.3239 140.362 57.6535 140.362ZM57.6535 139.224C58.2444 139.224 58.706 138.936 59.0384 138.359C59.3736 137.782 59.5413 136.948 59.5413 135.857C59.5413 135.133 59.4645 134.521 59.3111 134.021C59.1606 133.518 58.9432 133.137 58.6591 132.879C58.3779 132.617 58.0427 132.487 57.6535 132.487C57.0654 132.487 56.6038 132.776 56.2685 133.356C55.9333 133.936 55.7643 134.769 55.7614 135.857C55.7614 136.585 55.8367 137.2 55.9873 137.703C56.1407 138.203 56.358 138.582 56.6393 138.84C56.9205 139.096 57.2586 139.224 57.6535 139.224Z" fill="#CDCFD4"/>
<path d="M39.5193 173.651V172.586L43.2906 166.628H44.1301V168.196H43.5974L40.9 172.466V172.534H46.069V173.651H39.5193ZM43.6571 175.355V173.327L43.6656 172.841V166.628H44.9142V175.355H43.6571ZM50.3525 175.5C49.6792 175.498 49.1039 175.32 48.6266 174.968C48.1493 174.615 47.7843 174.103 47.5314 173.429C47.2786 172.756 47.1522 171.945 47.1522 170.996C47.1522 170.05 47.2786 169.242 47.5314 168.571C47.7871 167.901 48.1536 167.39 48.6309 167.037C49.111 166.685 49.6848 166.509 50.3525 166.509C51.0201 166.509 51.5925 166.686 52.0698 167.042C52.5471 167.394 52.9121 167.905 53.165 168.576C53.4206 169.243 53.5485 170.05 53.5485 170.996C53.5485 171.948 53.4221 172.76 53.1692 173.434C52.9164 174.104 52.5513 174.617 52.074 174.972C51.5968 175.324 51.0229 175.5 50.3525 175.5ZM50.3525 174.363C50.9434 174.363 51.405 174.074 51.7374 173.498C52.0726 172.921 52.2402 172.087 52.2402 170.996C52.2402 170.272 52.1635 169.659 52.0101 169.159C51.8596 168.657 51.6422 168.276 51.3581 168.017C51.0769 167.756 50.7417 167.625 50.3525 167.625C49.7644 167.625 49.3027 167.915 48.9675 168.495C48.6323 169.074 48.4632 169.908 48.4604 170.996C48.4604 171.723 48.5357 172.338 48.6863 172.841C48.8397 173.341 49.057 173.721 49.3382 173.979C49.6195 174.235 49.9576 174.363 50.3525 174.363ZM57.8585 175.5C57.1852 175.498 56.61 175.32 56.1327 174.968C55.6554 174.615 55.2904 174.103 55.0375 173.429C54.7847 172.756 54.6583 171.945 54.6583 170.996C54.6583 170.05 54.7847 169.242 55.0375 168.571C55.2932 167.901 55.6597 167.39 56.137 167.037C56.6171 166.685 57.1909 166.509 57.8585 166.509C58.5262 166.509 59.0986 166.686 59.5759 167.042C60.0531 167.394 60.4182 167.905 60.671 168.576C60.9267 169.243 61.0546 170.05 61.0546 170.996C61.0546 171.948 60.9281 172.76 60.6753 173.434C60.4225 174.104 60.0574 174.617 59.5801 174.972C59.1029 175.324 58.529 175.5 57.8585 175.5ZM57.8585 174.363C58.4495 174.363 58.9111 174.074 59.2435 173.498C59.5787 172.921 59.7463 172.087 59.7463 170.996C59.7463 170.272 59.6696 169.659 59.5162 169.159C59.3656 168.657 59.1483 168.276 58.8642 168.017C58.583 167.756 58.2477 167.625 57.8585 167.625C57.2705 167.625 56.8088 167.915 56.4736 168.495C56.1384 169.074 55.9693 169.908 55.9665 170.996C55.9665 171.723 56.0418 172.338 56.1924 172.841C56.3458 173.341 56.5631 173.721 56.8443 173.979C57.1256 174.235 57.4637 174.363 57.8585 174.363Z" fill="#CDCFD4"/>
<path d="M42.7995 210.613C42.2143 210.613 41.6915 210.513 41.2313 210.311C40.7739 210.109 40.4117 209.829 40.1447 209.471C39.8804 209.111 39.7384 208.693 39.7185 208.219H41.0566C41.0736 208.477 41.1603 208.702 41.3165 208.892C41.4756 209.079 41.683 209.224 41.9387 209.327C42.1944 209.429 42.4785 209.48 42.791 209.48C43.1347 209.48 43.4387 209.42 43.7029 209.301C43.9699 209.182 44.1787 209.015 44.3293 208.802C44.4799 208.586 44.5552 208.338 44.5552 208.057C44.5552 207.764 44.4799 207.507 44.3293 207.285C44.1816 207.061 43.9643 206.885 43.6773 206.757C43.3932 206.629 43.0495 206.565 42.6461 206.565H41.9089V205.491H42.6461C42.9699 205.491 43.254 205.433 43.4983 205.317C43.7455 205.2 43.9387 205.038 44.0779 204.831C44.2171 204.621 44.2867 204.375 44.2867 204.094C44.2867 203.824 44.2256 203.589 44.1035 203.39C43.9841 203.189 43.8137 203.031 43.5921 202.917C43.3733 202.804 43.1148 202.747 42.8165 202.747C42.5324 202.747 42.2668 202.8 42.0197 202.905C41.7753 203.007 41.5765 203.155 41.4231 203.348C41.2697 203.538 41.1873 203.767 41.1759 204.034H39.9018C39.916 203.562 40.0552 203.148 40.3194 202.79C40.5864 202.432 40.9387 202.152 41.3762 201.95C41.8137 201.748 42.2995 201.648 42.8336 201.648C43.3932 201.648 43.8762 201.757 44.2824 201.976C44.6915 202.192 45.0069 202.48 45.2285 202.841C45.4529 203.202 45.5637 203.596 45.5608 204.025C45.5637 204.514 45.4273 204.929 45.1518 205.27C44.879 205.611 44.5154 205.839 44.0608 205.956V206.024C44.6404 206.112 45.0893 206.342 45.4074 206.714C45.7285 207.086 45.8875 207.548 45.8847 208.099C45.8875 208.579 45.754 209.01 45.4841 209.39C45.2171 209.771 44.852 210.071 44.389 210.29C43.9259 210.506 43.3961 210.613 42.7995 210.613ZM50.2939 210.639C49.6206 210.636 49.0453 210.459 48.568 210.106C48.0907 209.754 47.7257 209.241 47.4728 208.568C47.22 207.895 47.0936 207.084 47.0936 206.135C47.0936 205.189 47.22 204.381 47.4728 203.71C47.7285 203.04 48.095 202.528 48.5723 202.176C49.0524 201.824 49.6262 201.648 50.2939 201.648C50.9615 201.648 51.5339 201.825 52.0112 202.18C52.4885 202.532 52.8535 203.044 53.1064 203.714C53.362 204.382 53.4899 205.189 53.4899 206.135C53.4899 207.086 53.3635 207.899 53.1106 208.572C52.8578 209.243 52.4927 209.756 52.0154 210.111C51.5382 210.463 50.9643 210.639 50.2939 210.639ZM50.2939 209.501C50.8848 209.501 51.3464 209.213 51.6788 208.636C52.014 208.059 52.1816 207.226 52.1816 206.135C52.1816 205.41 52.1049 204.798 51.9515 204.298C51.801 203.795 51.5836 203.415 51.2995 203.156C51.0183 202.895 50.6831 202.764 50.2939 202.764C49.7058 202.764 49.2441 203.054 48.9089 203.633C48.5737 204.213 48.4047 205.047 48.4018 206.135C48.4018 206.862 48.4771 207.477 48.6277 207.98C48.7811 208.48 48.9984 208.859 49.2797 209.118C49.5609 209.373 49.899 209.501 50.2939 209.501ZM57.8 210.639C57.1267 210.636 56.5514 210.459 56.0741 210.106C55.5968 209.754 55.2318 209.241 54.9789 208.568C54.7261 207.895 54.5997 207.084 54.5997 206.135C54.5997 205.189 54.7261 204.381 54.9789 203.71C55.2346 203.04 55.6011 202.528 56.0784 202.176C56.5585 201.824 57.1323 201.648 57.8 201.648C58.4676 201.648 59.04 201.825 59.5173 202.18C59.9946 202.532 60.3596 203.044 60.6125 203.714C60.8681 204.382 60.996 205.189 60.996 206.135C60.996 207.086 60.8696 207.899 60.6167 208.572C60.3639 209.243 59.9988 209.756 59.5215 210.111C59.0443 210.463 58.4704 210.639 57.8 210.639ZM57.8 209.501C58.3909 209.501 58.8525 209.213 59.1849 208.636C59.5201 208.059 59.6877 207.226 59.6877 206.135C59.6877 205.41 59.611 204.798 59.4576 204.298C59.3071 203.795 59.0897 203.415 58.8056 203.156C58.5244 202.895 58.1892 202.764 57.8 202.764C57.2119 202.764 56.7502 203.054 56.415 203.633C56.0798 204.213 55.9107 205.047 55.9079 206.135C55.9079 206.862 55.9832 207.477 56.1338 207.98C56.2872 208.48 56.5045 208.859 56.7857 209.118C57.067 209.373 57.4051 209.501 57.8 209.501Z" fill="#CDCFD4"/>
<path d="M44.1035 236.906V245.633H42.7824V238.227H42.7313L40.6432 239.59V238.329L42.8208 236.906H44.1035ZM49.2626 245.778C48.5893 245.775 48.014 245.597 47.5368 245.245C47.0595 244.893 46.6944 244.38 46.4416 243.707C46.1887 243.033 46.0623 242.222 46.0623 241.273C46.0623 240.327 46.1887 239.519 46.4416 238.849C46.6973 238.178 47.0637 237.667 47.541 237.315C48.0211 236.962 48.595 236.786 49.2626 236.786C49.9302 236.786 50.5027 236.964 50.9799 237.319C51.4572 237.671 51.8223 238.183 52.0751 238.853C52.3308 239.521 52.4586 240.327 52.4586 241.273C52.4586 242.225 52.3322 243.038 52.0794 243.711C51.8265 244.381 51.4615 244.894 50.9842 245.249C50.5069 245.602 49.9331 245.778 49.2626 245.778ZM49.2626 244.64C49.8535 244.64 50.3152 244.352 50.6475 243.775C50.9828 243.198 51.1504 242.364 51.1504 241.273C51.1504 240.549 51.0737 239.937 50.9203 239.437C50.7697 238.934 50.5524 238.553 50.2683 238.295C49.987 238.033 49.6518 237.903 49.2626 237.903C48.6745 237.903 48.2129 238.192 47.8777 238.772C47.5424 239.352 47.3734 240.185 47.3706 241.273C47.3706 242.001 47.4458 242.616 47.5964 243.119C47.7498 243.619 47.9672 243.998 48.2484 244.256C48.5297 244.512 48.8677 244.64 49.2626 244.64ZM56.7687 245.778C56.0954 245.775 55.5201 245.597 55.0428 245.245C54.5656 244.893 54.2005 244.38 53.9477 243.707C53.6948 243.033 53.5684 242.222 53.5684 241.273C53.5684 240.327 53.6948 239.519 53.9477 238.849C54.2034 238.178 54.5698 237.667 55.0471 237.315C55.5272 236.962 56.1011 236.786 56.7687 236.786C57.4363 236.786 58.0088 236.964 58.486 237.319C58.9633 237.671 59.3284 238.183 59.5812 238.853C59.8369 239.521 59.9647 240.327 59.9647 241.273C59.9647 242.225 59.8383 243.038 59.5855 243.711C59.3326 244.381 58.9676 244.894 58.4903 245.249C58.013 245.602 57.4392 245.778 56.7687 245.778ZM56.7687 244.64C57.3596 244.64 57.8213 244.352 58.1536 243.775C58.4889 243.198 58.6565 242.364 58.6565 241.273C58.6565 240.549 58.5798 239.937 58.4264 239.437C58.2758 238.934 58.0585 238.553 57.7744 238.295C57.4931 238.033 57.1579 237.903 56.7687 237.903C56.1806 237.903 55.719 238.192 55.3838 238.772C55.0485 239.352 54.8795 240.185 54.8767 241.273C54.8767 242.001 54.9519 242.616 55.1025 243.119C55.2559 243.619 55.4732 243.998 55.7545 244.256C56.0357 244.512 56.3738 244.64 56.7687 244.64Z" fill="#CDCFD4"/>
<path d="M47.8565 272.044V280.771H46.5355V273.365H46.4843L44.3963 274.729V273.468L46.5738 272.044H47.8565ZM53.0157 280.916C52.3424 280.914 51.7671 280.736 51.2898 280.384C50.8125 280.031 50.4475 279.519 50.1946 278.845C49.9418 278.172 49.8154 277.361 49.8154 276.412C49.8154 275.466 49.9418 274.658 50.1946 273.987C50.4503 273.317 50.8168 272.806 51.2941 272.453C51.7742 272.101 52.348 271.925 53.0157 271.925C53.6833 271.925 54.2557 272.102 54.733 272.458C55.2103 272.81 55.5753 273.321 55.8282 273.992C56.0838 274.659 56.2117 275.466 56.2117 276.412C56.2117 277.364 56.0853 278.176 55.8324 278.85C55.5796 279.52 55.2145 280.033 54.7372 280.388C54.26 280.74 53.6861 280.916 53.0157 280.916ZM53.0157 279.779C53.6066 279.779 54.0682 279.49 54.4006 278.914C54.7358 278.337 54.9034 277.503 54.9034 276.412C54.9034 275.688 54.8267 275.075 54.6733 274.575C54.5228 274.073 54.3054 273.692 54.0213 273.433C53.7401 273.172 53.4049 273.041 53.0157 273.041C52.4276 273.041 51.9659 273.331 51.6307 273.911C51.2955 274.49 51.1264 275.324 51.1236 276.412C51.1236 277.139 51.1989 277.754 51.3495 278.257C51.5029 278.757 51.7202 279.137 52.0014 279.395C52.2827 279.651 52.6208 279.779 53.0157 279.779Z" fill="#CDCFD4"/>
<line x1="78.0078" y1="278.033" x2="677.802" y2="278.033" stroke="#CDCFD4" stroke-dasharray="5 5"/>
<line x1="78.0078" y1="242.133" x2="677.802" y2="242.133" stroke="#CDCFD4" stroke-dasharray="5 5"/>
<line x1="78.0078" y1="206.232" x2="677.802" y2="206.232" stroke="#CDCFD4" stroke-dasharray="5 5"/>
<line x1="78.0078" y1="170.332" x2="677.802" y2="170.332" stroke="#CDCFD4" stroke-dasharray="5 5"/>
<line x1="78.0078" y1="134.432" x2="677.802" y2="134.432" stroke="#CDCFD4" stroke-dasharray="5 5"/>
<g filter="url(#filter0_d_511_11203)">
<path d="M116.316 226.503C133.687 219.767 174.686 207.009 199.711 209.864C230.992 213.433 243.604 239.436 266.68 228.574C289.756 217.712 335.405 154.336 374.254 173.507C413.102 192.678 431.89 252.551 472.03 205.17C512.17 157.788 505.828 136.011 543.659 136.089C581.489 136.168 644.495 143.805 664.431 122.325" stroke="#2F80ED" stroke-width="4.38617" stroke-linecap="round"/>
</g>
<defs>
<filter id="filter0_d_511_11203" x="91.0956" y="111.359" width="598.555" height="159.326" filterUnits="userSpaceOnUse" color-interpolation-filters="sRGB">
<feFlood flood-opacity="0" result="BackgroundImageFix"/>
<feColorMatrix in="SourceAlpha" type="matrix" values="0 0 0 0 0 0 0 0 0 0 0 0 0 0 0 0 0 0 127 0" result="hardAlpha"/>
<feOffset dy="14.2551"/>
<feGaussianBlur stdDeviation="11.5137"/>
<feColorMatrix type="matrix" values="0 0 0 0 0.262745 0 0 0 0 0.0941176 0 0 0 0 1 0 0 0 0.25 0"/>
<feBlend mode="normal" in2="BackgroundImageFix" result="effect1_dropShadow_511_11203"/>
<feBlend mode="normal" in="SourceGraphic" in2="effect1_dropShadow_511_11203" result="shape"/>
</filter>
<clipPath id="clip0_511_11203">
<rect width="18" height="18" fill="white" transform="translate(602.676 25.2168)"/>
</clipPath>
</defs>
</svg>
