<svg width="29" height="22" viewBox="0 0 29 22" fill="none" xmlns="http://www.w3.org/2000/svg">
<path fill-rule="evenodd" clip-rule="evenodd" d="M0.5 2.25C0.5 1.2835 1.23741 0.5 2.14706 0.5H26.8529C27.7626 0.5 28.5 1.2835 28.5 2.25C28.5 3.2165 27.7626 4 26.8529 4H2.14706C1.23741 4 0.5 3.2165 0.5 2.25Z" fill="black"/>
<path fill-rule="evenodd" clip-rule="evenodd" d="M0.5 11C0.5 10.0335 1.23741 9.25 2.14706 9.25H26.8529C27.7626 9.25 28.5 10.0335 28.5 11C28.5 11.9665 27.7626 12.75 26.8529 12.75H2.14706C1.23741 12.75 0.5 11.9665 0.5 11Z" fill="black"/>
<path fill-rule="evenodd" clip-rule="evenodd" d="M0.5 19.75C0.5 18.7835 1.23741 18 2.14706 18H26.8529C27.7626 18 28.5 18.7835 28.5 19.75C28.5 20.7165 27.7626 21.5 26.8529 21.5H2.14706C1.23741 21.5 0.5 20.7165 0.5 19.75Z" fill="black"/>
</svg>
