<svg width="22" height="25" viewBox="0 0 22 25" fill="none" xmlns="http://www.w3.org/2000/svg">
<path fill-rule="evenodd" clip-rule="evenodd" d="M5 4.09961C5.55228 4.09961 6 4.54732 6 5.09961L6 19.0996C6 19.6519 5.55229 20.0996 5 20.0996C4.44772 20.0996 4 19.6519 4 19.0996L4 5.09961C4 4.54732 4.44772 4.09961 5 4.09961Z" fill="#737B7B"/>
<path fill-rule="evenodd" clip-rule="evenodd" d="M13 4.09961C13.5523 4.09961 14 4.54732 14 5.09961L14 19.0996C14 19.6519 13.5523 20.0996 13 20.0996C12.4477 20.0996 12 19.6519 12 19.0996L12 5.09961C12 4.54732 12.4477 4.09961 13 4.09961Z" fill="#737B7B"/>
<path fill-rule="evenodd" clip-rule="evenodd" d="M21 4.09961C21.5523 4.09961 22 4.54732 22 5.09961L22 19.0996C22 19.6519 21.5523 20.0996 21 20.0996C20.4477 20.0996 20 19.6519 20 19.0996L20 5.09961C20 4.54732 20.4477 4.09961 21 4.09961Z" fill="#737B7B"/>
<path fill-rule="evenodd" clip-rule="evenodd" d="M1 8.09961C1.55228 8.09961 2 8.54732 2 9.09961L2 15.0996C2 15.6519 1.55229 16.0996 1 16.0996C0.447716 16.0996 3.47494e-07 15.6519 3.22083e-07 15.0996L4.60118e-08 9.09961C2.06002e-08 8.54732 0.447715 8.09961 1 8.09961Z" fill="#737B7B"/>
<path fill-rule="evenodd" clip-rule="evenodd" d="M17 8.09961C17.5523 8.09961 18 8.54732 18 9.09961L18 15.0996C18 15.6519 17.5523 16.0996 17 16.0996C16.4477 16.0996 16 15.6519 16 15.0996L16 9.09961C16 8.54732 16.4477 8.09961 17 8.09961Z" fill="#737B7B"/>
<path fill-rule="evenodd" clip-rule="evenodd" d="M9 0.0996094C9.55228 0.0996094 10 0.547325 10 1.09961L10 23.0996C10 23.6519 9.55228 24.0996 9 24.0996C8.44772 24.0996 8 23.6519 8 23.0996L8 1.09961C8 0.547325 8.44772 0.0996094 9 0.0996094Z" fill="#737B7B"/>
</svg>
