<svg width="37" height="58" viewBox="0 0 37 58" fill="none" xmlns="http://www.w3.org/2000/svg">
<path fill-rule="evenodd" clip-rule="evenodd" d="M2.51185 23.8691C2.98482 23.8691 3.43842 24.057 3.77286 24.3915C4.1073 24.7259 4.29518 25.1795 4.29518 25.6525V29.2191C4.29518 33.0029 5.79827 36.6317 8.47379 39.3072C11.1493 41.9827 14.7781 43.4858 18.5619 43.4858C22.3456 43.4858 25.9744 41.9827 28.6499 39.3072C31.3254 36.6317 32.8285 33.0029 32.8285 29.2191V25.6525C32.8285 25.1795 33.0164 24.7259 33.3508 24.3915C33.6853 24.057 34.1389 23.8691 34.6119 23.8691C35.0848 23.8691 35.5384 24.057 35.8729 24.3915C36.2073 24.7259 36.3952 25.1795 36.3952 25.6525V29.2191C36.3952 33.6401 34.7532 37.9035 31.7875 41.1822C28.8218 44.461 24.744 46.5212 20.3452 46.9633V54.1858H31.0452C31.5182 54.1858 31.9718 54.3737 32.3062 54.7081C32.6406 55.0426 32.8285 55.4962 32.8285 55.9691C32.8285 56.4421 32.6406 56.8957 32.3062 57.2302C31.9718 57.5646 31.5182 57.7525 31.0452 57.7525H6.07852C5.60555 57.7525 5.15195 57.5646 4.81751 57.2302C4.48307 56.8957 4.29518 56.4421 4.29518 55.9691C4.29518 55.4962 4.48307 55.0426 4.81751 54.7081C5.15195 54.3737 5.60555 54.1858 6.07852 54.1858H16.7785V46.9633C12.3797 46.5212 8.30189 44.461 5.33622 41.1822C2.37055 37.9035 0.72846 33.6401 0.728516 29.2191V25.6525C0.728516 25.1795 0.916402 24.7259 1.25084 24.3915C1.58528 24.057 2.03888 23.8691 2.51185 23.8691Z" fill="#F2994A"/>
<path fill-rule="evenodd" clip-rule="evenodd" d="M25.6966 29.2169V11.3836C25.6966 9.49172 24.9451 7.67733 23.6073 6.33957C22.2696 5.00181 20.4552 4.25026 18.5633 4.25026C16.6714 4.25026 14.857 5.00181 13.5193 6.33957C12.1815 7.67733 11.4299 9.49172 11.4299 11.3836V29.2169C11.4299 31.1088 12.1815 32.9232 13.5193 34.261C14.857 35.5987 16.6714 36.3503 18.5633 36.3503C20.4552 36.3503 22.2696 35.5987 23.6073 34.261C24.9451 32.9232 25.6966 31.1088 25.6966 29.2169ZM18.5633 0.683594C15.7255 0.683594 13.0039 1.81091 10.9972 3.81755C8.9906 5.82419 7.86328 8.54578 7.86328 11.3836V29.2169C7.86328 32.0547 8.9906 34.7763 10.9972 36.783C13.0039 38.7896 15.7255 39.9169 18.5633 39.9169C21.4011 39.9169 24.1227 38.7896 26.1293 36.783C28.136 34.7763 29.2633 32.0547 29.2633 29.2169V11.3836C29.2633 8.54578 28.136 5.82419 26.1293 3.81755C24.1227 1.81091 21.4011 0.683594 18.5633 0.683594V0.683594Z" fill="#F2994A"/>
</svg>
