<svg width="24" height="24" viewBox="0 0 24 24" fill="none" xmlns="http://www.w3.org/2000/svg">
<path fill-rule="evenodd" clip-rule="evenodd" d="M5 4C5.55228 4 6 4.44772 6 5L6 19C6 19.5523 5.55229 20 5 20C4.44772 20 4 19.5523 4 19L4 5C4 4.44772 4.44772 4 5 4Z" fill="#737B7B"/>
<path fill-rule="evenodd" clip-rule="evenodd" d="M13 4C13.5523 4 14 4.44772 14 5L14 19C14 19.5523 13.5523 20 13 20C12.4477 20 12 19.5523 12 19L12 5C12 4.44772 12.4477 4 13 4Z" fill="#737B7B"/>
<path fill-rule="evenodd" clip-rule="evenodd" d="M21 4C21.5523 4 22 4.44772 22 5L22 19C22 19.5523 21.5523 20 21 20C20.4477 20 20 19.5523 20 19L20 5C20 4.44772 20.4477 4 21 4Z" fill="#737B7B"/>
<path fill-rule="evenodd" clip-rule="evenodd" d="M1 8C1.55228 8 2 8.44772 2 9L2 15C2 15.5523 1.55229 16 1 16C0.447716 16 3.47494e-07 15.5523 3.22083e-07 15L4.60118e-08 9C2.06002e-08 8.44772 0.447715 8 1 8Z" fill="#737B7B"/>
<path fill-rule="evenodd" clip-rule="evenodd" d="M17 8C17.5523 8 18 8.44772 18 9L18 15C18 15.5523 17.5523 16 17 16C16.4477 16 16 15.5523 16 15L16 9C16 8.44772 16.4477 8 17 8Z" fill="#737B7B"/>
<path fill-rule="evenodd" clip-rule="evenodd" d="M9 0C9.55228 0 10 0.447715 10 1L10 23C10 23.5523 9.55228 24 9 24C8.44772 24 8 23.5523 8 23L8 1C8 0.447715 8.44772 0 9 0Z" fill="#737B7B"/>
<circle cx="17.5" cy="17.5" r="6.5" fill="white"/>
<path fill-rule="evenodd" clip-rule="evenodd" d="M21 17.75C21 18.1642 20.6642 18.5 20.25 18.5L14.75 18.5C14.3358 18.5 14 18.1642 14 17.75C14 17.3358 14.3358 17 14.75 17L20.25 17C20.6642 17 21 17.3358 21 17.75Z" fill="#737B7B"/>
<path fill-rule="evenodd" clip-rule="evenodd" d="M17.75 14C18.1642 14 18.5 14.3358 18.5 14.75V20.25C18.5 20.6642 18.1642 21 17.75 21C17.3358 21 17 20.6642 17 20.25V14.75C17 14.3358 17.3358 14 17.75 14Z" fill="#737B7B"/>
</svg>
