<svg width="30" height="30" viewBox="0 0 30 30" fill="none" xmlns="http://www.w3.org/2000/svg">
<circle cx="15" cy="15" r="15" fill="#7749F8"/>
<path d="M22.5516 16.0478L14.0963 22.7293C13.0999 23.5178 11.5391 22.877 11.5391 21.6803V8.3172C11.5388 8.04937 11.624 7.78716 11.7845 7.56195C11.945 7.33675 12.174 7.1581 12.444 7.04741C12.714 6.93672 13.0136 6.89867 13.3069 6.93782C13.6002 6.97697 13.8748 7.09166 14.0979 7.26815L22.5501 13.9497C22.7157 14.0805 22.8485 14.2417 22.9395 14.4227C23.0305 14.6036 23.0775 14.8 23.0775 14.9987C23.0775 15.1975 23.0305 15.3939 22.9395 15.5748C22.8485 15.7558 22.7157 15.917 22.5501 16.0478H22.5516Z" fill="white"/>
</svg>
