<svg width="33" height="33" viewBox="0 0 33 33" fill="none" xmlns="http://www.w3.org/2000/svg">
<path fill-rule="evenodd" clip-rule="evenodd" d="M16.6367 0.144531C17.4651 0.144531 18.1367 0.816104 18.1367 1.64453L18.1367 30.7437C18.1367 31.5722 17.4651 32.2437 16.6367 32.2437C15.8083 32.2437 15.1367 31.5722 15.1367 30.7437L15.1367 1.64453C15.1367 0.816104 15.8083 0.144531 16.6367 0.144531Z" fill="#7749F8"/>
<path fill-rule="evenodd" clip-rule="evenodd" d="M0.587891 16.1934C0.587891 15.3649 1.25946 14.6934 2.08789 14.6934L31.1871 14.6934C32.0155 14.6934 32.6871 15.3649 32.6871 16.1934C32.6871 17.0218 32.0155 17.6934 31.1871 17.6934L2.08789 17.6934C1.25946 17.6934 0.587891 17.0218 0.587891 16.1934Z" fill="#7749F8"/>
</svg>
