<svg width="24" height="24" viewBox="0 0 24 24" fill="none" xmlns="http://www.w3.org/2000/svg">
<path fill-rule="evenodd" clip-rule="evenodd" d="M5 4C5.55228 4 6 4.44772 6 5L6 19C6 19.5523 5.55229 20 5 20C4.44772 20 4 19.5523 4 19L4 5C4 4.44772 4.44772 4 5 4Z" fill="#EB5757"/>
<path fill-rule="evenodd" clip-rule="evenodd" d="M13 4C13.5523 4 14 4.44772 14 5L14 19C14 19.5523 13.5523 20 13 20C12.4477 20 12 19.5523 12 19L12 5C12 4.44772 12.4477 4 13 4Z" fill="#EB5757"/>
<path fill-rule="evenodd" clip-rule="evenodd" d="M21 4C21.5523 4 22 4.44772 22 5L22 19C22 19.5523 21.5523 20 21 20C20.4477 20 20 19.5523 20 19L20 5C20 4.44772 20.4477 4 21 4Z" fill="#EB5757"/>
<path fill-rule="evenodd" clip-rule="evenodd" d="M1 8C1.55228 8 2 8.44772 2 9L2 15C2 15.5523 1.55229 16 1 16C0.447716 16 3.47494e-07 15.5523 3.22083e-07 15L4.60118e-08 9C2.06002e-08 8.44772 0.447715 8 1 8Z" fill="#EB5757"/>
<path fill-rule="evenodd" clip-rule="evenodd" d="M17 8C17.5523 8 18 8.44772 18 9L18 15C18 15.5523 17.5523 16 17 16C16.4477 16 16 15.5523 16 15L16 9C16 8.44772 16.4477 8 17 8Z" fill="#EB5757"/>
<path fill-rule="evenodd" clip-rule="evenodd" d="M9 0C9.55228 0 10 0.447715 10 1L10 23C10 23.5523 9.55228 24 9 24C8.44772 24 8 23.5523 8 23L8 1C8 0.447715 8.44772 0 9 0Z" fill="#EB5757"/>
<circle cx="17.5" cy="17.5" r="6.5" fill="white"/>
<path d="M20.7721 17.9541L17.1081 20.8495C16.6764 21.1912 16 20.9135 16 20.3949V14.6042C15.9999 14.4882 16.0368 14.3745 16.1064 14.2769C16.1759 14.1794 16.2751 14.1019 16.3921 14.054C16.5091 14.006 16.639 13.9895 16.7661 14.0065C16.8932 14.0235 17.0122 14.0731 17.1088 14.1496L20.7714 17.045C20.8432 17.1016 20.9008 17.1715 20.9402 17.2499C20.9796 17.3283 21 17.4134 21 17.4995C21 17.5857 20.9796 17.6708 20.9402 17.7492C20.9008 17.8276 20.8432 17.8975 20.7714 17.9541H20.7721Z" fill="#EB5757"/>
</svg>
