<svg width="26" height="20" viewBox="0 0 26 20" fill="none" xmlns="http://www.w3.org/2000/svg">
<path fill-rule="evenodd" clip-rule="evenodd" d="M12.6066 0.898C12.7796 0.981457 12.9255 1.11207 13.0277 1.27486C13.1299 1.43764 13.1842 1.62599 13.1844 1.81829V18.1789C13.1841 18.3713 13.1296 18.5598 13.0273 18.7226C12.9249 18.8854 12.7787 19.0159 12.6056 19.0992C12.4324 19.1825 12.2393 19.2152 12.0485 19.1935C11.8577 19.1718 11.6768 19.0966 11.5267 18.9765L6.7027 15.1113H1.95628C1.68557 15.1113 1.42594 15.0036 1.23451 14.8118C1.04309 14.6201 0.935547 14.36 0.935547 14.0888V5.90845C0.935547 5.63725 1.04309 5.37717 1.23451 5.1854C1.42594 4.99364 1.68557 4.88591 1.95628 4.88591H6.7027L11.5267 1.0207C11.6769 0.900429 11.858 0.825099 12.049 0.80339C12.2401 0.781681 12.4334 0.814477 12.6066 0.898ZM11.1429 3.94517L7.6969 6.70603C7.51622 6.85125 7.2916 6.93058 7.05996 6.93099H2.97702V13.0662H7.05996C7.2916 13.0666 7.51622 13.146 7.6969 13.2912L11.1429 16.0521V3.94517Z" fill="#5F6868"/>
<path d="M21.3922 18.6766C21.7904 19.0755 22.4399 19.0784 22.8068 18.6505C23.7177 17.588 24.4562 16.3859 24.993 15.0879C25.66 13.4749 26.0023 11.7457 26.0002 9.99978C26.0023 8.25382 25.66 6.52465 24.993 4.91163C24.4564 3.61411 23.7182 2.41231 22.8076 1.35007C22.4403 0.921611 21.7899 0.924454 21.3913 1.32385C20.9928 1.72299 20.9973 2.36675 21.3584 2.80002C22.0826 3.66917 22.6726 4.64475 23.1066 5.69435C23.671 7.05925 23.9606 8.52241 23.9587 9.99978C23.9611 11.4773 23.672 12.9408 23.1079 14.3061C22.6739 15.3565 22.0838 16.3328 21.3592 17.2026C20.9987 17.6353 20.9943 18.2781 21.3922 18.6766Z" fill="#5F6868"/>
<path d="M17.3072 15.7828C17.7059 16.1822 18.3581 16.1858 18.7105 15.7449C19.2494 15.0708 19.6916 14.3224 20.0228 13.5214C20.4846 12.4046 20.7215 11.2074 20.7199 9.99866C20.7215 8.78989 20.4846 7.59272 20.0228 6.47595C19.6916 5.67488 19.2494 4.9265 18.7105 4.25234C18.3581 3.81151 17.7059 3.8151 17.3072 4.21451C16.9088 4.61364 16.9161 5.25645 17.2541 5.70791C17.6111 6.18473 17.9078 6.70555 18.1364 7.25867C18.4955 8.12731 18.6797 9.05848 18.6784 9.99866C18.6796 10.9388 18.4954 11.87 18.1363 12.7386C17.9076 13.2917 17.6109 13.8125 17.254 14.2894C16.9161 14.7409 16.9088 15.3837 17.3072 15.7828Z" fill="#5F6868"/>
</svg>
