<svg width="45" height="44" viewBox="0 0 45 44" fill="none" xmlns="http://www.w3.org/2000/svg">
<path fill-rule="evenodd" clip-rule="evenodd" d="M40.5599 43.8157C40.5599 43.8157 44.1595 43.8157 44.1595 40.2162C44.1595 36.6166 40.5599 25.818 22.5622 25.818C4.5644 25.818 0.964844 36.6166 0.964844 40.2162C0.964844 43.8157 4.5644 43.8157 4.5644 43.8157H40.5599ZM4.58239 40.4177V40.4105V40.4177ZM4.64359 40.2162H40.4807C40.4976 40.2142 40.5144 40.2118 40.5311 40.209L40.5599 40.2018C40.5563 39.3163 40.0056 36.6526 37.5651 34.2121C35.2182 31.8652 30.8015 29.4175 22.5622 29.4175C14.3192 29.4175 9.90613 31.8652 7.55922 34.2121C5.11873 36.6526 4.57159 39.3163 4.5644 40.2018C4.59074 40.2068 4.61714 40.2116 4.64359 40.2162ZM40.5455 40.4177V40.4105V40.4177ZM22.5622 18.6189C24.4715 18.6189 26.3026 17.8604 27.6527 16.5103C29.0028 15.1602 29.7613 13.3291 29.7613 11.4197C29.7613 9.51043 29.0028 7.67931 27.6527 6.32921C26.3026 4.97912 24.4715 4.22065 22.5622 4.22065C20.6528 4.22065 18.8217 4.97912 17.4716 6.32921C16.1215 7.67931 15.363 9.51043 15.363 11.4197C15.363 13.3291 16.1215 15.1602 17.4716 16.5103C18.8217 17.8604 20.6528 18.6189 22.5622 18.6189ZM33.3608 11.4197C33.3608 14.2837 32.2231 17.0304 30.198 19.0555C28.1728 21.0807 25.4261 22.2184 22.5622 22.2184C19.6982 22.2184 16.9515 21.0807 14.9264 19.0555C12.9012 17.0304 11.7635 14.2837 11.7635 11.4197C11.7635 8.55577 12.9012 5.80909 14.9264 3.78395C16.9515 1.75881 19.6982 0.621094 22.5622 0.621094C25.4261 0.621094 28.1728 1.75881 30.198 3.78395C32.2231 5.80909 33.3608 8.55577 33.3608 11.4197Z" fill="#007BFF"/>
</svg>
