<svg width="53" height="58" viewBox="0 0 53 58" fill="none" xmlns="http://www.w3.org/2000/svg">
<path fill-rule="evenodd" clip-rule="evenodd" d="M12.3874 10.3203C13.6922 10.3203 14.75 11.3781 14.75 12.6829L14.75 45.759C14.75 47.0638 13.6922 48.1215 12.3874 48.1215C11.0826 48.1215 10.0248 47.0638 10.0248 45.759L10.0248 12.6829C10.0248 11.3781 11.0826 10.3203 12.3874 10.3203Z" fill="#EB5757"/>
<path fill-rule="evenodd" clip-rule="evenodd" d="M31.2859 10.3203C32.5907 10.3203 33.6484 11.3781 33.6484 12.6829L33.6484 45.759C33.6484 47.0638 32.5907 48.1215 31.2859 48.1215C29.981 48.1215 28.9233 47.0638 28.9233 45.759L28.9233 12.6829C28.9233 11.3781 29.981 10.3203 31.2859 10.3203Z" fill="#EB5757"/>
<path fill-rule="evenodd" clip-rule="evenodd" d="M50.1902 10.3203C51.495 10.3203 52.5527 11.3781 52.5527 12.6829L52.5527 45.759C52.5527 47.0638 51.495 48.1215 50.1902 48.1215C48.8853 48.1215 47.8276 47.0638 47.8276 45.759L47.8276 12.6829C47.8276 11.3781 48.8853 10.3203 50.1902 10.3203Z" fill="#EB5757"/>
<path fill-rule="evenodd" clip-rule="evenodd" d="M2.9343 19.7656C4.23911 19.7656 5.29688 20.8234 5.29688 22.1282L5.29688 36.3037C5.29688 37.6085 4.23911 38.6662 2.9343 38.6662C1.62948 38.6662 0.571722 37.6085 0.571722 36.3037L0.571722 22.1282C0.571722 20.8234 1.62948 19.7656 2.9343 19.7656Z" fill="#EB5757"/>
<path fill-rule="evenodd" clip-rule="evenodd" d="M40.739 19.7656C42.0438 19.7656 43.1016 20.8234 43.1016 22.1282L43.1016 36.3037C43.1016 37.6085 42.0438 38.6662 40.739 38.6662C39.4342 38.6662 38.3764 37.6085 38.3764 36.3037L38.3764 22.1282C38.3764 20.8234 39.4342 19.7656 40.739 19.7656Z" fill="#EB5757"/>
<path fill-rule="evenodd" clip-rule="evenodd" d="M21.8386 0.867188C23.1434 0.867188 24.2012 1.92495 24.2012 3.22976L24.2012 55.2065C24.2012 56.5113 23.1434 57.569 21.8386 57.569C20.5338 57.569 19.476 56.5113 19.476 55.2065L19.476 3.22976C19.476 1.92495 20.5338 0.867188 21.8386 0.867188Z" fill="#EB5757"/>
</svg>
